%FSLAX25Y25*%
%MOIN*%
G70*
G01*
G75*
G04 Layer_Physical_Order=2*
G04 Layer_Color=16711680*
%ADD10R,0.03150X0.03150*%
%ADD11R,0.03543X0.02756*%
%ADD12R,0.04724X0.13780*%
%ADD13R,0.04331X0.05512*%
%ADD14R,0.05512X0.04331*%
%ADD15R,0.02756X0.03543*%
%ADD16O,0.07087X0.01181*%
%ADD17O,0.01181X0.07087*%
%ADD18R,0.05512X0.26378*%
%ADD19R,0.03543X0.03150*%
%ADD20R,0.09055X0.09055*%
%ADD21R,0.09764X0.06102*%
%ADD22R,0.01181X0.02559*%
%ADD23R,0.05709X0.02362*%
%ADD24O,0.02165X0.00984*%
%ADD25R,0.03543X0.05906*%
%ADD26R,0.03150X0.03543*%
%ADD27C,0.01000*%
%ADD28C,0.02000*%
%ADD29C,0.03500*%
%ADD30C,0.05000*%
%ADD31C,0.04000*%
%ADD32C,0.01200*%
%ADD33C,0.01500*%
%ADD34C,0.03000*%
%ADD35C,0.05906*%
%ADD36C,0.08661*%
%ADD37R,0.05906X0.05906*%
%ADD38C,0.06299*%
%ADD39O,0.07874X0.17716*%
%ADD40O,0.07874X0.15748*%
%ADD41O,0.15748X0.07874*%
%ADD42C,0.05906*%
%ADD43R,0.05906X0.05906*%
%ADD44C,0.03000*%
%ADD45C,0.04000*%
%ADD46R,0.10039X0.03347*%
%ADD47R,0.22441X0.22244*%
G36*
X392378Y22622D02*
X128121D01*
Y170879D01*
X169152D01*
X169185Y170380D01*
X168968Y170351D01*
X168007Y169953D01*
X167181Y169319D01*
X166547Y168493D01*
X166149Y167532D01*
X166079Y167000D01*
X173921D01*
X173851Y167532D01*
X173453Y168493D01*
X172819Y169319D01*
X171993Y169953D01*
X171032Y170351D01*
X170815Y170380D01*
X170848Y170879D01*
X392378D01*
Y22622D01*
D02*
G37*
%LPC*%
G36*
X235000Y78949D02*
X234524Y78855D01*
X233698Y78302D01*
X233145Y77476D01*
X233050Y77000D01*
X235000D01*
Y78949D01*
D02*
G37*
G36*
X187921Y80035D02*
X184500D01*
Y76614D01*
X185032Y76684D01*
X185993Y77083D01*
X186819Y77716D01*
X187453Y78542D01*
X187851Y79504D01*
X187921Y80035D01*
D02*
G37*
G36*
X183500D02*
X180079D01*
X180149Y79504D01*
X180547Y78542D01*
X181181Y77716D01*
X182007Y77083D01*
X182968Y76684D01*
X183500Y76614D01*
Y80035D01*
D02*
G37*
G36*
Y84456D02*
X182968Y84386D01*
X182007Y83988D01*
X181181Y83355D01*
X180547Y82529D01*
X180149Y81567D01*
X180079Y81035D01*
X183500D01*
Y84456D01*
D02*
G37*
G36*
X386500Y85583D02*
X385573Y85461D01*
X384708Y85103D01*
X383966Y84534D01*
X383397Y83792D01*
X383039Y82927D01*
X382917Y82000D01*
X383039Y81073D01*
X383397Y80208D01*
X383966Y79466D01*
X384708Y78897D01*
X385573Y78539D01*
X386500Y78417D01*
X387427Y78539D01*
X388292Y78897D01*
X389034Y79466D01*
X389603Y80208D01*
X389961Y81073D01*
X390083Y82000D01*
X389961Y82927D01*
X389603Y83792D01*
X389034Y84534D01*
X388292Y85103D01*
X387427Y85461D01*
X386500Y85583D01*
D02*
G37*
G36*
X236000Y78949D02*
Y77000D01*
X237949D01*
X237855Y77476D01*
X237302Y78302D01*
X236475Y78855D01*
X236000Y78949D01*
D02*
G37*
G36*
X184000Y74119D02*
X183073Y73997D01*
X182208Y73639D01*
X181466Y73069D01*
X180897Y72327D01*
X180539Y71463D01*
X180417Y70535D01*
X180539Y69608D01*
X180897Y68744D01*
X181466Y68002D01*
X182208Y67432D01*
X183073Y67074D01*
X184000Y66952D01*
X184927Y67074D01*
X185792Y67432D01*
X186534Y68002D01*
X187103Y68744D01*
X187461Y69608D01*
X187583Y70535D01*
X187461Y71463D01*
X187103Y72327D01*
X186534Y73069D01*
X185792Y73639D01*
X184927Y73997D01*
X184000Y74119D01*
D02*
G37*
G36*
X386500Y65583D02*
X385573Y65461D01*
X384708Y65103D01*
X383966Y64534D01*
X383397Y63792D01*
X383039Y62927D01*
X382917Y62000D01*
X383039Y61073D01*
X383397Y60208D01*
X383966Y59466D01*
X384708Y58897D01*
X385573Y58539D01*
X386500Y58417D01*
X387427Y58539D01*
X388292Y58897D01*
X389034Y59466D01*
X389603Y60208D01*
X389961Y61073D01*
X390083Y62000D01*
X389961Y62927D01*
X389603Y63792D01*
X389034Y64534D01*
X388292Y65103D01*
X387427Y65461D01*
X386500Y65583D01*
D02*
G37*
G36*
X194000Y59048D02*
X193073Y58926D01*
X192208Y58568D01*
X191466Y57998D01*
X190897Y57256D01*
X190539Y56392D01*
X190417Y55465D01*
X190539Y54537D01*
X190897Y53673D01*
X191466Y52931D01*
X192208Y52361D01*
X193073Y52003D01*
X194000Y51881D01*
X194927Y52003D01*
X195792Y52361D01*
X196534Y52931D01*
X197103Y53673D01*
X197461Y54537D01*
X197583Y55465D01*
X197461Y56392D01*
X197103Y57256D01*
X196534Y57998D01*
X195792Y58568D01*
X194927Y58926D01*
X194000Y59048D01*
D02*
G37*
G36*
X237949Y76000D02*
X236000D01*
Y74050D01*
X236475Y74145D01*
X237302Y74698D01*
X237855Y75524D01*
X237949Y76000D01*
D02*
G37*
G36*
X235000D02*
X233050D01*
X233145Y75524D01*
X233698Y74698D01*
X234524Y74145D01*
X235000Y74050D01*
Y76000D01*
D02*
G37*
G36*
X386500Y75583D02*
X385573Y75461D01*
X384708Y75103D01*
X383966Y74534D01*
X383397Y73792D01*
X383039Y72927D01*
X382917Y72000D01*
X383039Y71073D01*
X383397Y70208D01*
X383966Y69466D01*
X384708Y68897D01*
X385573Y68539D01*
X386500Y68417D01*
X387427Y68539D01*
X388292Y68897D01*
X389034Y69466D01*
X389603Y70208D01*
X389961Y71073D01*
X390083Y72000D01*
X389961Y72927D01*
X389603Y73792D01*
X389034Y74534D01*
X388292Y75103D01*
X387427Y75461D01*
X386500Y75583D01*
D02*
G37*
G36*
X184500Y84456D02*
Y81035D01*
X187921D01*
X187851Y81567D01*
X187453Y82529D01*
X186819Y83355D01*
X185993Y83988D01*
X185032Y84386D01*
X184500Y84456D01*
D02*
G37*
G36*
X193500Y89386D02*
X192968Y89316D01*
X192007Y88917D01*
X191181Y88284D01*
X190547Y87458D01*
X190149Y86496D01*
X190079Y85965D01*
X193500D01*
Y89386D01*
D02*
G37*
G36*
X258000Y86949D02*
Y85000D01*
X259949D01*
X259855Y85475D01*
X259302Y86302D01*
X258475Y86855D01*
X258000Y86949D01*
D02*
G37*
G36*
X257000D02*
X256524Y86855D01*
X255698Y86302D01*
X255145Y85475D01*
X255050Y85000D01*
X257000D01*
Y86949D01*
D02*
G37*
G36*
X238949Y94000D02*
X237000D01*
Y92050D01*
X237475Y92145D01*
X238302Y92698D01*
X238855Y93524D01*
X238949Y94000D01*
D02*
G37*
G36*
X236000D02*
X234050D01*
X234145Y93524D01*
X234698Y92698D01*
X235525Y92145D01*
X236000Y92050D01*
Y94000D01*
D02*
G37*
G36*
X194500Y89386D02*
Y85965D01*
X197921D01*
X197851Y86496D01*
X197453Y87458D01*
X196819Y88284D01*
X195993Y88917D01*
X195032Y89316D01*
X194500Y89386D01*
D02*
G37*
G36*
X257000Y84000D02*
X255050D01*
X255145Y83525D01*
X255698Y82698D01*
X256524Y82145D01*
X257000Y82051D01*
Y84000D01*
D02*
G37*
G36*
X197921Y84965D02*
X194500D01*
Y81543D01*
X195032Y81613D01*
X195993Y82012D01*
X196819Y82645D01*
X197453Y83471D01*
X197851Y84433D01*
X197921Y84965D01*
D02*
G37*
G36*
X193500D02*
X190079D01*
X190149Y84433D01*
X190547Y83471D01*
X191181Y82645D01*
X192007Y82012D01*
X192968Y81613D01*
X193500Y81543D01*
Y84965D01*
D02*
G37*
G36*
X235000Y91141D02*
X234181Y90978D01*
X233486Y90514D01*
X233022Y89819D01*
X232859Y89000D01*
X232951Y88537D01*
X219535Y75122D01*
X200965D01*
X199829Y76258D01*
X199465Y76501D01*
X199035Y76586D01*
X199035Y76586D01*
X197381D01*
X197103Y77256D01*
X196534Y77998D01*
X195792Y78568D01*
X194927Y78926D01*
X194000Y79048D01*
X193073Y78926D01*
X192208Y78568D01*
X191466Y77998D01*
X190897Y77256D01*
X190539Y76392D01*
X190417Y75465D01*
X190539Y74537D01*
X190897Y73673D01*
X191466Y72931D01*
X192208Y72361D01*
X192810Y72112D01*
X192713Y71622D01*
X192000D01*
X192000Y71622D01*
X191571Y71536D01*
X191207Y71293D01*
X191207Y71293D01*
X184029Y64115D01*
X184000Y64119D01*
X183073Y63997D01*
X182208Y63639D01*
X181466Y63069D01*
X180897Y62327D01*
X180539Y61463D01*
X180417Y60535D01*
X180539Y59608D01*
X180897Y58744D01*
X181466Y58002D01*
X182208Y57432D01*
X183073Y57074D01*
X184000Y56952D01*
X184927Y57074D01*
X185792Y57432D01*
X186534Y58002D01*
X187103Y58744D01*
X187461Y59608D01*
X187583Y60535D01*
X187461Y61463D01*
X187103Y62327D01*
X186534Y63069D01*
X186511Y63424D01*
X190383Y67296D01*
X190798Y67019D01*
X190539Y66392D01*
X190417Y65465D01*
X190539Y64537D01*
X190897Y63673D01*
X191466Y62931D01*
X192208Y62361D01*
X193073Y62003D01*
X194000Y61881D01*
X194927Y62003D01*
X195792Y62361D01*
X196534Y62931D01*
X197103Y63673D01*
X197461Y64537D01*
X197583Y65465D01*
X197461Y66392D01*
X197103Y67256D01*
X196534Y67998D01*
X195792Y68568D01*
X195019Y68888D01*
X195116Y69378D01*
X197000D01*
X197000Y69378D01*
X197429Y69464D01*
X197793Y69707D01*
X198965Y70878D01*
X220828D01*
X220828Y70878D01*
X221258Y70964D01*
X221621Y71207D01*
X235172Y84758D01*
X235670Y84709D01*
X236086Y84086D01*
X236781Y83622D01*
X237600Y83459D01*
X238419Y83622D01*
X239114Y84086D01*
X239578Y84781D01*
X239741Y85600D01*
X239578Y86419D01*
X239114Y87114D01*
X238419Y87578D01*
X237600Y87741D01*
X237185Y87659D01*
X236907Y88074D01*
X236978Y88181D01*
X237141Y89000D01*
X236978Y89819D01*
X236514Y90514D01*
X235819Y90978D01*
X235000Y91141D01*
D02*
G37*
G36*
X154000Y98026D02*
X152532Y97881D01*
X151120Y97453D01*
X149819Y96758D01*
X148678Y95822D01*
X147742Y94681D01*
X147047Y93380D01*
X146619Y91968D01*
X146474Y90500D01*
X146619Y89032D01*
X147047Y87620D01*
X147742Y86319D01*
X148678Y85178D01*
X149819Y84242D01*
X151120Y83547D01*
X152532Y83119D01*
X154000Y82974D01*
X155468Y83119D01*
X156880Y83547D01*
X158181Y84242D01*
X159322Y85178D01*
X160258Y86319D01*
X160953Y87620D01*
X161381Y89032D01*
X161526Y90500D01*
X161381Y91968D01*
X160953Y93380D01*
X160258Y94681D01*
X159322Y95822D01*
X158181Y96758D01*
X156880Y97453D01*
X155468Y97881D01*
X154000Y98026D01*
D02*
G37*
G36*
X259949Y84000D02*
X258000D01*
Y82051D01*
X258475Y82145D01*
X259302Y82698D01*
X259855Y83525D01*
X259949Y84000D01*
D02*
G37*
G36*
X322500Y32083D02*
X321573Y31961D01*
X320708Y31603D01*
X319966Y31034D01*
X319397Y30292D01*
X319039Y29427D01*
X318917Y28500D01*
X319039Y27573D01*
X319397Y26708D01*
X319966Y25966D01*
X320708Y25397D01*
X321573Y25039D01*
X322500Y24917D01*
X323427Y25039D01*
X324292Y25397D01*
X325034Y25966D01*
X325603Y26708D01*
X325961Y27573D01*
X326083Y28500D01*
X325961Y29427D01*
X325603Y30292D01*
X325034Y31034D01*
X324292Y31603D01*
X323427Y31961D01*
X322500Y32083D01*
D02*
G37*
G36*
X312500D02*
X311573Y31961D01*
X310708Y31603D01*
X309966Y31034D01*
X309397Y30292D01*
X309039Y29427D01*
X308917Y28500D01*
X309039Y27573D01*
X309397Y26708D01*
X309966Y25966D01*
X310708Y25397D01*
X311573Y25039D01*
X312500Y24917D01*
X313427Y25039D01*
X314292Y25397D01*
X315034Y25966D01*
X315603Y26708D01*
X315961Y27573D01*
X316083Y28500D01*
X315961Y29427D01*
X315603Y30292D01*
X315034Y31034D01*
X314292Y31603D01*
X313427Y31961D01*
X312500Y32083D01*
D02*
G37*
G36*
X215353Y31753D02*
X208247D01*
Y24647D01*
X215353D01*
Y31753D01*
D02*
G37*
G36*
X386000Y31500D02*
X382547D01*
Y28047D01*
X386000D01*
Y31500D01*
D02*
G37*
G36*
X342500Y32083D02*
X341573Y31961D01*
X340708Y31603D01*
X339966Y31034D01*
X339397Y30292D01*
X339039Y29427D01*
X338917Y28500D01*
X339039Y27573D01*
X339397Y26708D01*
X339966Y25966D01*
X340708Y25397D01*
X341573Y25039D01*
X342500Y24917D01*
X343427Y25039D01*
X344292Y25397D01*
X345034Y25966D01*
X345603Y26708D01*
X345961Y27573D01*
X346083Y28500D01*
X345961Y29427D01*
X345603Y30292D01*
X345034Y31034D01*
X344292Y31603D01*
X343427Y31961D01*
X342500Y32083D01*
D02*
G37*
G36*
X332500D02*
X331573Y31961D01*
X330708Y31603D01*
X329966Y31034D01*
X329397Y30292D01*
X329039Y29427D01*
X328917Y28500D01*
X329039Y27573D01*
X329397Y26708D01*
X329966Y25966D01*
X330708Y25397D01*
X331573Y25039D01*
X332500Y24917D01*
X333427Y25039D01*
X334292Y25397D01*
X335034Y25966D01*
X335603Y26708D01*
X335961Y27573D01*
X336083Y28500D01*
X335961Y29427D01*
X335603Y30292D01*
X335034Y31034D01*
X334292Y31603D01*
X333427Y31961D01*
X332500Y32083D01*
D02*
G37*
G36*
X302000Y28000D02*
X298547D01*
Y24547D01*
X302000D01*
Y28000D01*
D02*
G37*
G36*
X245721Y27700D02*
X242300D01*
Y24279D01*
X242832Y24349D01*
X243793Y24747D01*
X244619Y25381D01*
X245253Y26207D01*
X245651Y27168D01*
X245721Y27700D01*
D02*
G37*
G36*
X241300D02*
X237879D01*
X237949Y27168D01*
X238347Y26207D01*
X238981Y25381D01*
X239807Y24747D01*
X240768Y24349D01*
X241300Y24279D01*
Y27700D01*
D02*
G37*
G36*
X231800Y31783D02*
X230873Y31661D01*
X230008Y31303D01*
X229266Y30734D01*
X228697Y29992D01*
X228339Y29127D01*
X228217Y28200D01*
X228339Y27273D01*
X228697Y26408D01*
X229266Y25666D01*
X230008Y25097D01*
X230873Y24739D01*
X231800Y24617D01*
X232727Y24739D01*
X233592Y25097D01*
X234334Y25666D01*
X234903Y26408D01*
X235261Y27273D01*
X235383Y28200D01*
X235261Y29127D01*
X234903Y29992D01*
X234334Y30734D01*
X233592Y31303D01*
X232727Y31661D01*
X231800Y31783D01*
D02*
G37*
G36*
X221800D02*
X220873Y31661D01*
X220008Y31303D01*
X219266Y30734D01*
X218697Y29992D01*
X218339Y29127D01*
X218217Y28200D01*
X218339Y27273D01*
X218697Y26408D01*
X219266Y25666D01*
X220008Y25097D01*
X220873Y24739D01*
X221800Y24617D01*
X222727Y24739D01*
X223592Y25097D01*
X224334Y25666D01*
X224903Y26408D01*
X225261Y27273D01*
X225383Y28200D01*
X225261Y29127D01*
X224903Y29992D01*
X224334Y30734D01*
X223592Y31303D01*
X222727Y31661D01*
X221800Y31783D01*
D02*
G37*
G36*
X306453Y28000D02*
X303000D01*
Y24547D01*
X306453D01*
Y28000D01*
D02*
G37*
G36*
X390453Y31500D02*
X387000D01*
Y28047D01*
X390453D01*
Y31500D01*
D02*
G37*
G36*
X386500Y45583D02*
X385573Y45461D01*
X384708Y45103D01*
X383966Y44534D01*
X383397Y43792D01*
X383039Y42927D01*
X382917Y42000D01*
X383039Y41073D01*
X383397Y40208D01*
X383966Y39466D01*
X384708Y38897D01*
X385573Y38539D01*
X386500Y38417D01*
X387427Y38539D01*
X388292Y38897D01*
X389034Y39466D01*
X389603Y40208D01*
X389961Y41073D01*
X390083Y42000D01*
X389961Y42927D01*
X389603Y43792D01*
X389034Y44534D01*
X388292Y45103D01*
X387427Y45461D01*
X386500Y45583D01*
D02*
G37*
G36*
X154000Y53026D02*
X152532Y52881D01*
X151120Y52453D01*
X149819Y51758D01*
X148678Y50822D01*
X147742Y49681D01*
X147047Y48380D01*
X146619Y46968D01*
X146474Y45500D01*
X146619Y44032D01*
X147047Y42620D01*
X147742Y41319D01*
X148678Y40178D01*
X149819Y39242D01*
X151120Y38547D01*
X152532Y38119D01*
X154000Y37974D01*
X155468Y38119D01*
X156880Y38547D01*
X158181Y39242D01*
X159322Y40178D01*
X160258Y41319D01*
X160953Y42620D01*
X161381Y44032D01*
X161526Y45500D01*
X161381Y46968D01*
X160953Y48380D01*
X160258Y49681D01*
X159322Y50822D01*
X158181Y51758D01*
X156880Y52453D01*
X155468Y52881D01*
X154000Y53026D01*
D02*
G37*
G36*
X166008Y42481D02*
X164721Y42312D01*
X163521Y41815D01*
X162491Y41025D01*
X161701Y39994D01*
X161204Y38795D01*
X161035Y37508D01*
X161204Y36221D01*
X161701Y35021D01*
X162491Y33991D01*
X163521Y33201D01*
X164721Y32704D01*
X166008Y32535D01*
X167295Y32704D01*
X168494Y33201D01*
X169525Y33991D01*
X170315Y35021D01*
X170812Y36221D01*
X170981Y37508D01*
X170812Y38795D01*
X170315Y39994D01*
X169525Y41025D01*
X168494Y41815D01*
X167295Y42312D01*
X166008Y42481D01*
D02*
G37*
G36*
X386500Y55583D02*
X385573Y55461D01*
X384708Y55103D01*
X383966Y54534D01*
X383397Y53792D01*
X383039Y52927D01*
X382917Y52000D01*
X383039Y51073D01*
X383397Y50208D01*
X383966Y49466D01*
X384708Y48897D01*
X385573Y48539D01*
X386500Y48417D01*
X387427Y48539D01*
X388292Y48897D01*
X389034Y49466D01*
X389603Y50208D01*
X389961Y51073D01*
X390083Y52000D01*
X389961Y52927D01*
X389603Y53792D01*
X389034Y54534D01*
X388292Y55103D01*
X387427Y55461D01*
X386500Y55583D01*
D02*
G37*
G36*
X184000Y54119D02*
X183073Y53997D01*
X182208Y53639D01*
X181466Y53069D01*
X180897Y52327D01*
X180539Y51463D01*
X180417Y50535D01*
X180539Y49608D01*
X180897Y48744D01*
X181466Y48002D01*
X182208Y47432D01*
X183073Y47074D01*
X184000Y46952D01*
X184927Y47074D01*
X185792Y47432D01*
X186534Y48002D01*
X187103Y48744D01*
X187461Y49608D01*
X187583Y50535D01*
X187461Y51463D01*
X187103Y52327D01*
X186534Y53069D01*
X185792Y53639D01*
X184927Y53997D01*
X184000Y54119D01*
D02*
G37*
G36*
X262200Y49541D02*
X261381Y49378D01*
X260686Y48914D01*
X260222Y48219D01*
X260059Y47400D01*
X260222Y46581D01*
X260686Y45886D01*
X261381Y45422D01*
X262200Y45259D01*
X263019Y45422D01*
X263714Y45886D01*
X264178Y46581D01*
X264341Y47400D01*
X264178Y48219D01*
X263714Y48914D01*
X263019Y49378D01*
X262200Y49541D01*
D02*
G37*
G36*
X302000Y32453D02*
X298547D01*
Y29000D01*
X302000D01*
Y32453D01*
D02*
G37*
G36*
X242300Y32121D02*
Y28700D01*
X245721D01*
X245651Y29232D01*
X245253Y30193D01*
X244619Y31019D01*
X243793Y31653D01*
X242832Y32051D01*
X242300Y32121D01*
D02*
G37*
G36*
X241300D02*
X240768Y32051D01*
X239807Y31653D01*
X238981Y31019D01*
X238347Y30193D01*
X237949Y29232D01*
X237879Y28700D01*
X241300D01*
Y32121D01*
D02*
G37*
G36*
X390453Y35953D02*
X387000D01*
Y32500D01*
X390453D01*
Y35953D01*
D02*
G37*
G36*
X386000D02*
X382547D01*
Y32500D01*
X386000D01*
Y35953D01*
D02*
G37*
G36*
X306453Y32453D02*
X303000D01*
Y29000D01*
X306453D01*
Y32453D01*
D02*
G37*
G36*
X374472Y153500D02*
X369993D01*
Y150063D01*
X370163Y148774D01*
X370660Y147573D01*
X371451Y146542D01*
X372483Y145750D01*
X373684Y145253D01*
X374472Y145149D01*
Y153500D01*
D02*
G37*
G36*
X350563Y163497D02*
X349379Y163341D01*
X348275Y162884D01*
X347327Y162157D01*
X346600Y161209D01*
X346143Y160106D01*
X345987Y158921D01*
Y149079D01*
X346143Y147894D01*
X346600Y146791D01*
X347327Y145843D01*
X348275Y145116D01*
X349379Y144659D01*
X350563Y144503D01*
X351747Y144659D01*
X352851Y145116D01*
X353799Y145843D01*
X354526Y146791D01*
X354983Y147894D01*
X355139Y149079D01*
Y158921D01*
X354983Y160106D01*
X354526Y161209D01*
X353799Y162157D01*
X352851Y162884D01*
X351747Y163341D01*
X350563Y163497D01*
D02*
G37*
G36*
X138421Y145000D02*
X135000D01*
Y141579D01*
X135532Y141649D01*
X136493Y142047D01*
X137319Y142681D01*
X137953Y143507D01*
X138351Y144468D01*
X138421Y145000D01*
D02*
G37*
G36*
X135000Y149421D02*
Y146000D01*
X138421D01*
X138351Y146532D01*
X137953Y147493D01*
X137319Y148319D01*
X136493Y148953D01*
X135532Y149351D01*
X135000Y149421D01*
D02*
G37*
G36*
X134000D02*
X133468Y149351D01*
X132507Y148953D01*
X131681Y148319D01*
X131047Y147493D01*
X130649Y146532D01*
X130579Y146000D01*
X134000D01*
Y149421D01*
D02*
G37*
G36*
X379952Y153500D02*
X375472D01*
Y145149D01*
X376261Y145253D01*
X377462Y145750D01*
X378494Y146542D01*
X379285Y147573D01*
X379782Y148774D01*
X379952Y150063D01*
Y153500D01*
D02*
G37*
G36*
X134500Y139083D02*
X133573Y138961D01*
X132708Y138603D01*
X131966Y138034D01*
X131397Y137292D01*
X131039Y136427D01*
X130917Y135500D01*
X131039Y134573D01*
X131397Y133708D01*
X131966Y132966D01*
X132708Y132397D01*
X133573Y132039D01*
X134500Y131917D01*
X135427Y132039D01*
X136292Y132397D01*
X137034Y132966D01*
X137603Y133708D01*
X137961Y134573D01*
X138083Y135500D01*
X137961Y136427D01*
X137603Y137292D01*
X137034Y138034D01*
X136292Y138603D01*
X135427Y138961D01*
X134500Y139083D01*
D02*
G37*
G36*
X372012Y133815D02*
X363661D01*
Y129335D01*
X367098D01*
X368387Y129505D01*
X369588Y130002D01*
X370620Y130794D01*
X371411Y131825D01*
X371908Y133026D01*
X372012Y133815D01*
D02*
G37*
G36*
X242000Y130449D02*
Y128500D01*
X243950D01*
X243855Y128975D01*
X243302Y129802D01*
X242476Y130355D01*
X242000Y130449D01*
D02*
G37*
G36*
X134000Y145000D02*
X130579D01*
X130649Y144468D01*
X131047Y143507D01*
X131681Y142681D01*
X132507Y142047D01*
X133468Y141649D01*
X134000Y141579D01*
Y145000D01*
D02*
G37*
G36*
X367098Y139295D02*
X363661D01*
Y134815D01*
X372012D01*
X371908Y135604D01*
X371411Y136805D01*
X370620Y137836D01*
X369588Y138627D01*
X368387Y139125D01*
X367098Y139295D01*
D02*
G37*
G36*
X362661D02*
X359224D01*
X357936Y139125D01*
X356735Y138627D01*
X355703Y137836D01*
X354912Y136805D01*
X354415Y135604D01*
X354311Y134815D01*
X362661D01*
Y139295D01*
D02*
G37*
G36*
X290047Y154500D02*
X287382D01*
Y151244D01*
X290047D01*
Y154500D01*
D02*
G37*
G36*
X310700Y163250D02*
Y161300D01*
X312649D01*
X312555Y161776D01*
X312002Y162602D01*
X311175Y163155D01*
X310700Y163250D01*
D02*
G37*
G36*
X309700D02*
X309225Y163155D01*
X308398Y162602D01*
X307845Y161776D01*
X307751Y161300D01*
X309700D01*
Y163250D01*
D02*
G37*
G36*
X312649Y160300D02*
X310700D01*
Y158351D01*
X311175Y158445D01*
X312002Y158998D01*
X312555Y159825D01*
X312649Y160300D01*
D02*
G37*
G36*
X210000Y170083D02*
X209073Y169961D01*
X208208Y169603D01*
X207466Y169034D01*
X206897Y168292D01*
X206539Y167427D01*
X206417Y166500D01*
X206539Y165573D01*
X206897Y164708D01*
X207466Y163966D01*
X207950Y163595D01*
X207789Y163122D01*
X202211D01*
X202050Y163595D01*
X202534Y163966D01*
X203103Y164708D01*
X203461Y165573D01*
X203583Y166500D01*
X203461Y167427D01*
X203103Y168292D01*
X202534Y169034D01*
X201792Y169603D01*
X200927Y169961D01*
X200000Y170083D01*
X199073Y169961D01*
X198208Y169603D01*
X197466Y169034D01*
X196897Y168292D01*
X196539Y167427D01*
X196417Y166500D01*
X196539Y165573D01*
X196897Y164708D01*
X197466Y163966D01*
X197950Y163595D01*
X197789Y163122D01*
X192211D01*
X192050Y163595D01*
X192534Y163966D01*
X193103Y164708D01*
X193461Y165573D01*
X193583Y166500D01*
X193461Y167427D01*
X193103Y168292D01*
X192534Y169034D01*
X191792Y169603D01*
X190927Y169961D01*
X190000Y170083D01*
X189073Y169961D01*
X188208Y169603D01*
X187466Y169034D01*
X186897Y168292D01*
X186539Y167427D01*
X186417Y166500D01*
X186539Y165573D01*
X186897Y164708D01*
X187466Y163966D01*
X187950Y163595D01*
X187789Y163122D01*
X182211D01*
X182050Y163595D01*
X182534Y163966D01*
X183103Y164708D01*
X183461Y165573D01*
X183583Y166500D01*
X183461Y167427D01*
X183103Y168292D01*
X182534Y169034D01*
X181792Y169603D01*
X180927Y169961D01*
X180000Y170083D01*
X179073Y169961D01*
X178208Y169603D01*
X177466Y169034D01*
X176897Y168292D01*
X176539Y167427D01*
X176417Y166500D01*
X176539Y165573D01*
X176897Y164708D01*
X177466Y163966D01*
X177950Y163595D01*
X177789Y163122D01*
X172868D01*
X172707Y163595D01*
X172819Y163681D01*
X173453Y164507D01*
X173851Y165468D01*
X173921Y166000D01*
X166079D01*
X166149Y165468D01*
X166547Y164507D01*
X167181Y163681D01*
X167293Y163595D01*
X167132Y163122D01*
X162211D01*
X162050Y163595D01*
X162534Y163966D01*
X163103Y164708D01*
X163461Y165573D01*
X163583Y166500D01*
X163461Y167427D01*
X163103Y168292D01*
X162534Y169034D01*
X161792Y169603D01*
X160927Y169961D01*
X160000Y170083D01*
X159073Y169961D01*
X158208Y169603D01*
X157466Y169034D01*
X156897Y168292D01*
X156539Y167427D01*
X156417Y166500D01*
X156539Y165573D01*
X156897Y164708D01*
X157466Y163966D01*
X157950Y163595D01*
X157789Y163122D01*
X152211D01*
X152050Y163595D01*
X152534Y163966D01*
X153103Y164708D01*
X153461Y165573D01*
X153583Y166500D01*
X153461Y167427D01*
X153103Y168292D01*
X152534Y169034D01*
X151792Y169603D01*
X150927Y169961D01*
X150000Y170083D01*
X149073Y169961D01*
X148208Y169603D01*
X147466Y169034D01*
X146897Y168292D01*
X146539Y167427D01*
X146417Y166500D01*
X146539Y165573D01*
X146897Y164708D01*
X147466Y163966D01*
X148208Y163397D01*
X149073Y163039D01*
X150000Y162917D01*
X150383Y162967D01*
X150604Y162519D01*
X143207Y155122D01*
X142964Y154758D01*
X142878Y154328D01*
X142878Y154328D01*
Y112293D01*
X133916Y103330D01*
X133672Y102966D01*
X133587Y102537D01*
X133587Y102537D01*
Y97677D01*
X132818Y97358D01*
X132034Y96757D01*
X131433Y95974D01*
X131056Y95061D01*
X130927Y94083D01*
X131056Y93104D01*
X131433Y92192D01*
X132034Y91408D01*
X132818Y90807D01*
X133730Y90430D01*
X134709Y90301D01*
X135687Y90430D01*
X136600Y90807D01*
X137383Y91408D01*
X137905Y92089D01*
X138378Y91928D01*
Y86237D01*
X137905Y86076D01*
X137383Y86757D01*
X136600Y87358D01*
X135687Y87736D01*
X134709Y87865D01*
X133730Y87736D01*
X132818Y87358D01*
X132034Y86757D01*
X131433Y85974D01*
X131056Y85062D01*
X130927Y84083D01*
X131056Y83104D01*
X131433Y82192D01*
X132034Y81408D01*
X132818Y80807D01*
X133730Y80430D01*
X134709Y80301D01*
X135687Y80430D01*
X136600Y80807D01*
X137383Y81408D01*
X137905Y82089D01*
X138378Y81928D01*
Y54072D01*
X137905Y53911D01*
X137383Y54592D01*
X136600Y55193D01*
X135687Y55570D01*
X134709Y55699D01*
X133730Y55570D01*
X132818Y55193D01*
X132034Y54592D01*
X131433Y53808D01*
X131056Y52896D01*
X130927Y51917D01*
X131056Y50938D01*
X131433Y50026D01*
X132034Y49243D01*
X132818Y48642D01*
X133730Y48264D01*
X134709Y48135D01*
X134906Y48161D01*
X135127Y47713D01*
X133916Y46502D01*
X133672Y46138D01*
X133587Y45709D01*
X133587Y45709D01*
Y45511D01*
X132818Y45193D01*
X132034Y44592D01*
X131433Y43808D01*
X131056Y42896D01*
X130927Y41917D01*
X131056Y40938D01*
X131433Y40026D01*
X132034Y39243D01*
X132818Y38642D01*
X133730Y38264D01*
X134709Y38135D01*
X135687Y38264D01*
X136600Y38642D01*
X137383Y39243D01*
X137984Y40026D01*
X138362Y40938D01*
X138491Y41917D01*
X138362Y42896D01*
X137984Y43808D01*
X137383Y44592D01*
X136600Y45193D01*
X136435Y45261D01*
X136337Y45751D01*
X140293Y49707D01*
X140293Y49707D01*
X140536Y50071D01*
X140622Y50500D01*
X140622Y50500D01*
Y104035D01*
X146793Y110207D01*
X146793Y110207D01*
X147036Y110571D01*
X147036Y110571D01*
X147036Y110571D01*
X147122Y111000D01*
X147122Y111000D01*
Y153035D01*
X152565Y158478D01*
X158070D01*
X158215Y158000D01*
X158086Y157914D01*
X157622Y157219D01*
X157459Y156400D01*
X157622Y155581D01*
X158086Y154886D01*
X158781Y154422D01*
X159426Y154294D01*
X159876Y153993D01*
X160500Y153869D01*
X227000D01*
X227624Y153993D01*
X228153Y154347D01*
X229676Y155869D01*
X241162D01*
X241681Y155522D01*
X242500Y155359D01*
X243319Y155522D01*
X244014Y155986D01*
X244478Y156681D01*
X244641Y157500D01*
X244478Y158319D01*
X244014Y159014D01*
X243319Y159478D01*
X242500Y159641D01*
X241681Y159478D01*
X241162Y159131D01*
X229371D01*
X229179Y159593D01*
X234965Y165378D01*
X259035D01*
X269378Y155035D01*
Y136582D01*
X268900Y136436D01*
X268514Y137014D01*
X267819Y137478D01*
X267000Y137641D01*
X266181Y137478D01*
X265837Y137249D01*
X263644Y139442D01*
X263880Y139883D01*
X264000Y139859D01*
X264819Y140022D01*
X265514Y140486D01*
X265978Y141181D01*
X266141Y142000D01*
X266036Y142527D01*
X266390Y142881D01*
X266500Y142859D01*
X267319Y143022D01*
X268014Y143486D01*
X268478Y144181D01*
X268641Y145000D01*
X268478Y145819D01*
X268014Y146514D01*
X267319Y146978D01*
X266500Y147141D01*
X265681Y146978D01*
X264986Y146514D01*
X264724Y146122D01*
X246272D01*
X246272Y146122D01*
X245843Y146036D01*
X245479Y145793D01*
X245479Y145793D01*
X232707Y133021D01*
X232464Y132657D01*
X232378Y132228D01*
X232379Y132228D01*
Y116000D01*
X232378Y116000D01*
X232464Y115571D01*
X232707Y115207D01*
X234207Y113707D01*
X234571Y113464D01*
X235000Y113378D01*
X235000Y113378D01*
X237000D01*
X237000Y113378D01*
X237429Y113464D01*
X237793Y113707D01*
X239537Y115451D01*
X240000Y115359D01*
X240819Y115522D01*
X241514Y115986D01*
X241978Y116681D01*
X242141Y117500D01*
X241978Y118319D01*
X241514Y119014D01*
X240819Y119478D01*
X240000Y119641D01*
X239181Y119478D01*
X239082Y119413D01*
X238620Y119604D01*
X238478Y120319D01*
X238014Y121014D01*
X237621Y121276D01*
Y130521D01*
X247979Y140878D01*
X262117D01*
X262374Y140450D01*
X262199Y140122D01*
X257000D01*
X256571Y140036D01*
X256207Y139793D01*
X256207Y139793D01*
X251744Y135330D01*
X250981Y135178D01*
X250286Y134714D01*
X249822Y134019D01*
X249659Y133200D01*
X249822Y132381D01*
X250286Y131686D01*
X250981Y131222D01*
X251800Y131059D01*
X252619Y131222D01*
X253314Y131686D01*
X253778Y132381D01*
X253941Y133200D01*
X253778Y134019D01*
X253709Y134123D01*
X257465Y137878D01*
X262035D01*
X264969Y134945D01*
X265022Y134681D01*
X265486Y133986D01*
X266181Y133522D01*
X267000Y133359D01*
X267819Y133522D01*
X268514Y133986D01*
X268900Y134564D01*
X269378Y134418D01*
Y130220D01*
X268992Y129903D01*
X268800Y129941D01*
X267981Y129778D01*
X267286Y129314D01*
X266822Y128619D01*
X266659Y127800D01*
X266822Y126981D01*
X267286Y126286D01*
X267981Y125822D01*
X268800Y125659D01*
X269619Y125822D01*
X270314Y126286D01*
X270511Y126581D01*
X271001Y126483D01*
X271022Y126381D01*
X271486Y125686D01*
X272181Y125222D01*
X273000Y125059D01*
X273819Y125222D01*
X274514Y125686D01*
X274978Y126381D01*
X275141Y127200D01*
X274978Y128019D01*
X274514Y128714D01*
X274121Y128976D01*
Y155828D01*
X274122Y155828D01*
X274036Y156258D01*
X273793Y156622D01*
X261122Y169293D01*
X260758Y169536D01*
X260328Y169622D01*
X260328Y169622D01*
X233672D01*
X233672Y169622D01*
X233242Y169536D01*
X232878Y169293D01*
X232878Y169293D01*
X226707Y163122D01*
X223553D01*
Y170053D01*
X216447D01*
Y163122D01*
X212211D01*
X212050Y163595D01*
X212534Y163966D01*
X213103Y164708D01*
X213461Y165573D01*
X213583Y166500D01*
X213461Y167427D01*
X213103Y168292D01*
X212534Y169034D01*
X211792Y169603D01*
X210927Y169961D01*
X210000Y170083D01*
D02*
G37*
G36*
X138053Y169053D02*
X130947D01*
Y161947D01*
X138053D01*
Y169053D01*
D02*
G37*
G36*
X302400Y161922D02*
X302400Y161922D01*
X288600D01*
X288600Y161922D01*
X288171Y161836D01*
X287807Y161593D01*
X287807Y161593D01*
X281807Y155593D01*
X281564Y155229D01*
X281478Y154800D01*
X281479Y154800D01*
Y130776D01*
X281086Y130514D01*
X280622Y129819D01*
X280459Y129000D01*
X280622Y128181D01*
X281086Y127486D01*
X281781Y127022D01*
X282600Y126859D01*
X283419Y127022D01*
X284114Y127486D01*
X284578Y128181D01*
X284741Y129000D01*
X284578Y129819D01*
X284114Y130514D01*
X283721Y130776D01*
Y154335D01*
X286920Y157534D01*
X287382Y157343D01*
Y155500D01*
X290047D01*
Y158756D01*
X288795D01*
X288604Y159218D01*
X289065Y159678D01*
X301935D01*
X311207Y150407D01*
X311571Y150164D01*
X312000Y150078D01*
X312000Y150078D01*
X315735D01*
X343664Y122150D01*
Y119203D01*
Y119129D01*
X342899D01*
X321274Y140754D01*
X320579Y141218D01*
X319760Y141381D01*
X311647D01*
X299218Y153810D01*
Y158356D01*
X293713D01*
Y158756D01*
X291047D01*
Y155000D01*
Y151244D01*
X293713D01*
Y151644D01*
X295328D01*
X309246Y137726D01*
X309246Y137726D01*
X309246D01*
X309246Y137726D01*
X309246D01*
X309246Y137726D01*
Y137726D01*
Y137726D01*
D01*
D01*
X309246D01*
Y137726D01*
X309941Y137262D01*
X310760Y137099D01*
X318873D01*
X340498Y115474D01*
X341192Y115010D01*
X341192Y115010D01*
X341192Y115010D01*
D01*
X341192Y115010D01*
X341193Y115010D01*
X342012Y114847D01*
X343664D01*
Y114715D01*
X354903D01*
Y119203D01*
Y123750D01*
X345236D01*
X316993Y151993D01*
X316629Y152236D01*
X316200Y152322D01*
X316200Y152322D01*
X312465D01*
X303193Y161593D01*
X302829Y161836D01*
X302400Y161922D01*
D02*
G37*
G36*
X374472Y162851D02*
X373684Y162747D01*
X372483Y162250D01*
X371451Y161458D01*
X370660Y160427D01*
X370163Y159226D01*
X369993Y157937D01*
Y154500D01*
X374472D01*
Y162851D01*
D02*
G37*
G36*
X134500Y159083D02*
X133573Y158961D01*
X132708Y158603D01*
X131966Y158034D01*
X131397Y157292D01*
X131039Y156427D01*
X130917Y155500D01*
X131039Y154573D01*
X131397Y153708D01*
X131966Y152966D01*
X132708Y152397D01*
X133573Y152039D01*
X134500Y151917D01*
X135427Y152039D01*
X136292Y152397D01*
X137034Y152966D01*
X137603Y153708D01*
X137961Y154573D01*
X138083Y155500D01*
X137961Y156427D01*
X137603Y157292D01*
X137034Y158034D01*
X136292Y158603D01*
X135427Y158961D01*
X134500Y159083D01*
D02*
G37*
G36*
X323047Y154500D02*
X320382D01*
Y151244D01*
X323047D01*
Y154500D01*
D02*
G37*
G36*
X309700Y160300D02*
X307751D01*
X307845Y159825D01*
X308398Y158998D01*
X309225Y158445D01*
X309700Y158351D01*
Y160300D01*
D02*
G37*
G36*
X323047Y158756D02*
X320382D01*
Y155500D01*
X323047D01*
Y158756D01*
D02*
G37*
G36*
X375472Y162851D02*
Y154500D01*
X379952D01*
Y157937D01*
X379782Y159226D01*
X379285Y160427D01*
X378494Y161458D01*
X377462Y162250D01*
X376261Y162747D01*
X375472Y162851D01*
D02*
G37*
G36*
X326713Y158756D02*
X324047D01*
Y155000D01*
Y151244D01*
X326713D01*
Y151644D01*
X327259D01*
Y147100D01*
X327422Y146281D01*
X327422Y146281D01*
X327422Y146281D01*
X327886Y145586D01*
X340191Y133282D01*
X340229Y133189D01*
X340646Y132646D01*
X341189Y132229D01*
X341282Y132191D01*
X346486Y126986D01*
X347181Y126522D01*
X348000Y126359D01*
X355613D01*
X359359Y122613D01*
Y110887D01*
X358625Y110153D01*
X354903D01*
Y110285D01*
X343664D01*
Y105739D01*
Y105665D01*
X337206D01*
X328357Y114514D01*
X327662Y114978D01*
X326843Y115141D01*
X318553D01*
Y116553D01*
X311447D01*
Y109447D01*
X318553D01*
Y110859D01*
X325956D01*
X334805Y102010D01*
X335500Y101546D01*
X335500Y101546D01*
X335500Y101546D01*
D01*
X335500Y101545D01*
X335500Y101546D01*
X336319Y101383D01*
X343664D01*
Y101250D01*
X354903D01*
Y105739D01*
Y105871D01*
X357880D01*
Y100988D01*
X357880Y100988D01*
X357880D01*
X358005Y100364D01*
X358358Y99835D01*
X377369Y80824D01*
Y35676D01*
X373588Y31895D01*
X373427Y31961D01*
X372500Y32083D01*
X371573Y31961D01*
X370708Y31603D01*
X369966Y31034D01*
X369397Y30292D01*
X369039Y29427D01*
X368917Y28500D01*
X369039Y27573D01*
X369397Y26708D01*
X369966Y25966D01*
X370708Y25397D01*
X371573Y25039D01*
X372500Y24917D01*
X373427Y25039D01*
X374292Y25397D01*
X375034Y25966D01*
X375603Y26708D01*
X375961Y27573D01*
X376083Y28500D01*
X375961Y29427D01*
X375895Y29588D01*
X380153Y33847D01*
X380507Y34376D01*
X380631Y35000D01*
X380631Y35000D01*
X380631Y35000D01*
Y35000D01*
Y81500D01*
X380507Y82124D01*
X380153Y82653D01*
X361143Y101664D01*
Y106615D01*
X363014Y108486D01*
X363478Y109181D01*
X363641Y110000D01*
Y123500D01*
X363478Y124319D01*
X363014Y125014D01*
X359155Y128873D01*
X359346Y129335D01*
X362661D01*
Y133815D01*
X354311D01*
X354415Y133026D01*
X354912Y131825D01*
X355476Y131090D01*
X355255Y130641D01*
X348887D01*
X345111Y134417D01*
X345122Y134500D01*
X345033Y135179D01*
X344771Y135811D01*
X344354Y136354D01*
X343811Y136771D01*
X343179Y137033D01*
X342500Y137122D01*
X342417Y137111D01*
X331541Y147987D01*
Y151644D01*
X332218D01*
Y158356D01*
X326713D01*
Y158756D01*
D02*
G37*
G36*
X274950Y112000D02*
X273000D01*
Y110050D01*
X273476Y110145D01*
X274302Y110698D01*
X274855Y111524D01*
X274950Y112000D01*
D02*
G37*
G36*
X272000D02*
X270051D01*
X270145Y111524D01*
X270698Y110698D01*
X271525Y110145D01*
X272000Y110050D01*
Y112000D01*
D02*
G37*
G36*
Y114950D02*
X271525Y114855D01*
X270698Y114302D01*
X270145Y113476D01*
X270051Y113000D01*
X272000D01*
Y114950D01*
D02*
G37*
G36*
X258500Y137141D02*
X257681Y136978D01*
X256986Y136514D01*
X256522Y135819D01*
X256359Y135000D01*
X256522Y134181D01*
X256986Y133486D01*
X257379Y133224D01*
Y132328D01*
X257364Y132306D01*
X257278Y131877D01*
X257278Y131877D01*
Y129723D01*
X257278Y129723D01*
X257364Y129294D01*
X257379Y129272D01*
Y117965D01*
X250535Y111122D01*
X237798D01*
X237778Y111219D01*
X237314Y111914D01*
X236619Y112378D01*
X235800Y112541D01*
X234981Y112378D01*
X234286Y111914D01*
X233822Y111219D01*
X233659Y110400D01*
X233822Y109581D01*
X234286Y108886D01*
X234981Y108422D01*
X235667Y108285D01*
X235859Y107823D01*
X235522Y107319D01*
X235359Y106500D01*
X235522Y105681D01*
X235986Y104986D01*
X236681Y104522D01*
X237500Y104359D01*
X238319Y104522D01*
X239014Y104986D01*
X239478Y105681D01*
X239641Y106500D01*
X239952Y106878D01*
X252500D01*
X252500Y106878D01*
X252644Y106907D01*
X252880Y106466D01*
X251463Y105049D01*
X251000Y105141D01*
X250181Y104978D01*
X249486Y104514D01*
X249022Y103819D01*
X248859Y103000D01*
X249022Y102181D01*
X249486Y101486D01*
X249879Y101224D01*
Y83965D01*
X247637Y81723D01*
X247364Y81777D01*
X246545Y81614D01*
X245850Y81150D01*
X245386Y80455D01*
X245223Y79636D01*
X245386Y78816D01*
X245850Y78122D01*
X246545Y77658D01*
X247364Y77495D01*
X248184Y77658D01*
X248878Y78122D01*
X249342Y78816D01*
X249505Y79636D01*
X249375Y80289D01*
X251793Y82707D01*
X251793Y82707D01*
X252036Y83071D01*
X252036Y83071D01*
X252036Y83071D01*
X252122Y83500D01*
X252121Y83500D01*
Y101224D01*
X252514Y101486D01*
X252978Y102181D01*
X253141Y103000D01*
X253049Y103463D01*
X262465Y112878D01*
X263000D01*
X263000Y112878D01*
X263429Y112964D01*
X263439Y112970D01*
X264000Y112859D01*
X264819Y113022D01*
X265514Y113486D01*
X265978Y114181D01*
X266141Y115000D01*
X265978Y115819D01*
X265514Y116514D01*
X264819Y116978D01*
X264000Y117141D01*
X263181Y116978D01*
X262562Y116565D01*
X262122Y116801D01*
Y129024D01*
X262514Y129286D01*
X262978Y129981D01*
X263141Y130800D01*
X262978Y131619D01*
X262514Y132314D01*
X261819Y132778D01*
X261000Y132941D01*
X260181Y132778D01*
X260063Y132699D01*
X259810Y132834D01*
X259786Y133334D01*
X260014Y133486D01*
X260478Y134181D01*
X260641Y135000D01*
X260478Y135819D01*
X260014Y136514D01*
X259319Y136978D01*
X258500Y137141D01*
D02*
G37*
G36*
X134500Y119083D02*
X133573Y118961D01*
X132708Y118603D01*
X131966Y118034D01*
X131397Y117292D01*
X131039Y116427D01*
X130917Y115500D01*
X131039Y114573D01*
X131397Y113708D01*
X131966Y112966D01*
X132708Y112397D01*
X133573Y112039D01*
X134500Y111917D01*
X135427Y112039D01*
X136292Y112397D01*
X137034Y112966D01*
X137603Y113708D01*
X137961Y114573D01*
X138083Y115500D01*
X137961Y116427D01*
X137603Y117292D01*
X137034Y118034D01*
X136292Y118603D01*
X135427Y118961D01*
X134500Y119083D01*
D02*
G37*
G36*
X281400Y109541D02*
X280581Y109378D01*
X279886Y108914D01*
X279422Y108219D01*
X279259Y107400D01*
X279351Y106937D01*
X276907Y104493D01*
X276664Y104129D01*
X276578Y103700D01*
X276578Y103700D01*
Y76964D01*
X276578Y76964D01*
X276664Y76535D01*
X276907Y76171D01*
X289279Y63800D01*
Y61776D01*
X288886Y61514D01*
X288422Y60819D01*
X288259Y60000D01*
X288422Y59181D01*
X288886Y58486D01*
X289581Y58022D01*
X290400Y57859D01*
X291219Y58022D01*
X291914Y58486D01*
X292378Y59181D01*
X292541Y60000D01*
X292378Y60819D01*
X291914Y61514D01*
X291522Y61776D01*
Y64265D01*
X291484Y64453D01*
X291925Y64689D01*
X296151Y60463D01*
X296059Y60000D01*
X296222Y59181D01*
X296686Y58486D01*
X297381Y58022D01*
X298200Y57859D01*
X299019Y58022D01*
X299714Y58486D01*
X300178Y59181D01*
X300341Y60000D01*
X300178Y60819D01*
X299714Y61514D01*
X299019Y61978D01*
X298200Y62141D01*
X297737Y62049D01*
X281322Y78465D01*
Y100200D01*
X281708Y100517D01*
X282000Y100459D01*
X282819Y100622D01*
X283514Y101086D01*
X283978Y101781D01*
X284141Y102600D01*
X283978Y103419D01*
X283514Y104114D01*
X282819Y104578D01*
X282000Y104741D01*
X281181Y104578D01*
X280486Y104114D01*
X280022Y103419D01*
X279859Y102600D01*
X279951Y102137D01*
X279407Y101593D01*
X279300Y101433D01*
X278821Y101578D01*
Y103235D01*
X280937Y105351D01*
X281400Y105259D01*
X282219Y105422D01*
X282914Y105886D01*
X283378Y106581D01*
X283541Y107400D01*
X283378Y108219D01*
X282914Y108914D01*
X282219Y109378D01*
X281400Y109541D01*
D02*
G37*
G36*
X237000Y96949D02*
Y95000D01*
X238949D01*
X238855Y95476D01*
X238302Y96302D01*
X237475Y96855D01*
X237000Y96949D01*
D02*
G37*
G36*
X236000D02*
X235525Y96855D01*
X234698Y96302D01*
X234145Y95476D01*
X234050Y95000D01*
X236000D01*
Y96949D01*
D02*
G37*
G36*
X166008Y103465D02*
X164721Y103296D01*
X163521Y102799D01*
X162491Y102009D01*
X161701Y100979D01*
X161204Y99779D01*
X161035Y98492D01*
X161204Y97205D01*
X161701Y96005D01*
X162491Y94976D01*
X163521Y94185D01*
X164721Y93688D01*
X166008Y93519D01*
X167295Y93688D01*
X168494Y94185D01*
X169525Y94976D01*
X170315Y96005D01*
X170812Y97205D01*
X170981Y98492D01*
X170812Y99779D01*
X170315Y100979D01*
X169525Y102009D01*
X168494Y102799D01*
X167295Y103296D01*
X166008Y103465D01*
D02*
G37*
G36*
X327500Y103610D02*
X326681Y103447D01*
X325986Y102982D01*
X325522Y102288D01*
X325359Y101469D01*
X324769Y101351D01*
X324579Y101478D01*
X323760Y101641D01*
X322940Y101478D01*
X322246Y101014D01*
X321782Y100319D01*
X321619Y99500D01*
X321782Y98681D01*
X322246Y97986D01*
X322940Y97522D01*
X323760Y97359D01*
X324579Y97522D01*
X324769Y97649D01*
X325359Y97531D01*
X325522Y96712D01*
X325986Y96017D01*
X326681Y95553D01*
X327500Y95390D01*
X328319Y95553D01*
X329014Y96017D01*
X329478Y96712D01*
X329641Y97531D01*
X330231Y97649D01*
X330421Y97522D01*
X331240Y97359D01*
X332060Y97522D01*
X332754Y97986D01*
X333218Y98681D01*
X333381Y99500D01*
X333218Y100319D01*
X332754Y101014D01*
X332060Y101478D01*
X331240Y101641D01*
X330421Y101478D01*
X330231Y101351D01*
X329641Y101469D01*
X329478Y102288D01*
X329014Y102982D01*
X328319Y103447D01*
X327500Y103610D01*
D02*
G37*
G36*
X390638Y112000D02*
X378917D01*
Y100378D01*
X390638D01*
Y112000D01*
D02*
G37*
G36*
X377917D02*
X366197D01*
Y100378D01*
X377917D01*
Y112000D01*
D02*
G37*
G36*
X305500Y116921D02*
Y113500D01*
X308921D01*
X308851Y114032D01*
X308453Y114993D01*
X307819Y115819D01*
X306993Y116453D01*
X306032Y116851D01*
X305500Y116921D01*
D02*
G37*
G36*
X243950Y127500D02*
X242000D01*
Y125550D01*
X242476Y125645D01*
X243302Y126198D01*
X243855Y127024D01*
X243950Y127500D01*
D02*
G37*
G36*
X285500Y125141D02*
X284681Y124978D01*
X283986Y124514D01*
X283522Y123819D01*
X283359Y123000D01*
X283522Y122181D01*
X283986Y121486D01*
X284681Y121022D01*
X285411Y120877D01*
X287951Y118337D01*
X287859Y117874D01*
X288022Y117055D01*
X288486Y116360D01*
X289181Y115896D01*
X290000Y115733D01*
X290819Y115896D01*
X291514Y116360D01*
X291978Y117055D01*
X292141Y117874D01*
X291978Y118693D01*
X291514Y119388D01*
X290819Y119852D01*
X290000Y120015D01*
X289537Y119923D01*
X287399Y122062D01*
X287478Y122181D01*
X287641Y123000D01*
X287478Y123819D01*
X287014Y124514D01*
X286319Y124978D01*
X285500Y125141D01*
D02*
G37*
G36*
X241000Y127500D02*
X239051D01*
X239145Y127024D01*
X239698Y126198D01*
X240525Y125645D01*
X241000Y125550D01*
Y127500D01*
D02*
G37*
G36*
X134500Y129083D02*
X133573Y128961D01*
X132708Y128603D01*
X131966Y128034D01*
X131397Y127292D01*
X131039Y126427D01*
X130917Y125500D01*
X131039Y124573D01*
X131397Y123708D01*
X131966Y122966D01*
X132708Y122397D01*
X133573Y122039D01*
X134500Y121917D01*
X135427Y122039D01*
X136292Y122397D01*
X137034Y122966D01*
X137603Y123708D01*
X137961Y124573D01*
X138083Y125500D01*
X137961Y126427D01*
X137603Y127292D01*
X137034Y128034D01*
X136292Y128603D01*
X135427Y128961D01*
X134500Y129083D01*
D02*
G37*
G36*
X241000Y130449D02*
X240525Y130355D01*
X239698Y129802D01*
X239145Y128975D01*
X239051Y128500D01*
X241000D01*
Y130449D01*
D02*
G37*
G36*
X377917Y124622D02*
X366197D01*
Y113000D01*
X377917D01*
Y124622D01*
D02*
G37*
G36*
X273000Y114950D02*
Y113000D01*
X274950D01*
X274855Y113476D01*
X274302Y114302D01*
X273476Y114855D01*
X273000Y114950D01*
D02*
G37*
G36*
X301500Y120141D02*
X300681Y119978D01*
X299986Y119514D01*
X299522Y118819D01*
X299359Y118000D01*
X299451Y117537D01*
X295807Y113893D01*
X295564Y113529D01*
X295478Y113100D01*
X295479Y113100D01*
Y110068D01*
X295038Y109832D01*
X294819Y109978D01*
X294000Y110141D01*
X293181Y109978D01*
X292486Y109514D01*
X292022Y108819D01*
X291859Y108000D01*
X292022Y107181D01*
X292486Y106486D01*
X293181Y106022D01*
X293378Y105982D01*
Y105237D01*
X293378Y105237D01*
X293394Y105158D01*
Y103984D01*
X293394Y103984D01*
X293480Y103555D01*
X293723Y103191D01*
X321378Y75535D01*
Y71861D01*
X320917Y71670D01*
X312793Y79793D01*
X312429Y80036D01*
X312000Y80122D01*
X312000Y80122D01*
X292276D01*
X292014Y80514D01*
X291319Y80978D01*
X290500Y81141D01*
X289681Y80978D01*
X288986Y80514D01*
X288522Y79819D01*
X288359Y79000D01*
X288359Y79000D01*
X288359Y79000D01*
D01*
X288433Y78621D01*
X288079Y78267D01*
X287700Y78341D01*
D01*
X287700Y78341D01*
Y78341D01*
X286881Y78178D01*
X286186Y77714D01*
X285722Y77019D01*
X285559Y76200D01*
X285722Y75381D01*
X286186Y74686D01*
X286881Y74222D01*
X287700Y74059D01*
X288519Y74222D01*
X289214Y74686D01*
X289343Y74878D01*
X310535D01*
X323378Y62035D01*
Y56500D01*
X323378Y56500D01*
X323464Y56071D01*
X323707Y55707D01*
X349316Y30098D01*
X349039Y29427D01*
X348917Y28500D01*
X349039Y27573D01*
X349397Y26708D01*
X349966Y25966D01*
X350708Y25397D01*
X351573Y25039D01*
X352500Y24917D01*
X353427Y25039D01*
X354292Y25397D01*
X355034Y25966D01*
X355603Y26708D01*
X355961Y27573D01*
X356083Y28500D01*
X355961Y29427D01*
X355603Y30292D01*
X355034Y31034D01*
X354550Y31405D01*
X354711Y31878D01*
X357535D01*
X359316Y30098D01*
X359039Y29427D01*
X358917Y28500D01*
X359039Y27573D01*
X359397Y26708D01*
X359966Y25966D01*
X360708Y25397D01*
X361573Y25039D01*
X362500Y24917D01*
X363427Y25039D01*
X364292Y25397D01*
X365034Y25966D01*
X365603Y26708D01*
X365961Y27573D01*
X366083Y28500D01*
X365961Y29427D01*
X365603Y30292D01*
X365034Y31034D01*
X364292Y31603D01*
X363427Y31961D01*
X362500Y32083D01*
X361573Y31961D01*
X360902Y31684D01*
X358793Y33793D01*
X358429Y34036D01*
X358000Y34122D01*
X358000Y34122D01*
X351965D01*
X338670Y47416D01*
X338861Y47878D01*
X354724D01*
X354986Y47486D01*
X355681Y47022D01*
X356500Y46859D01*
X357319Y47022D01*
X358014Y47486D01*
X358478Y48181D01*
X358641Y49000D01*
X358478Y49819D01*
X358014Y50514D01*
X357319Y50978D01*
X356500Y51141D01*
X355681Y50978D01*
X354986Y50514D01*
X354724Y50122D01*
X338465D01*
X329770Y58816D01*
X329892Y59301D01*
X330100Y59364D01*
X330286Y59086D01*
X330981Y58622D01*
X331800Y58459D01*
X332619Y58622D01*
X333314Y59086D01*
X333778Y59781D01*
X333941Y60600D01*
X333778Y61419D01*
X333314Y62114D01*
X332619Y62578D01*
X332121Y62677D01*
Y65500D01*
X332122Y65500D01*
X332036Y65929D01*
X331793Y66293D01*
X331793Y66293D01*
X325622Y72465D01*
Y76176D01*
X326086Y76486D01*
X326781Y76022D01*
X327600Y75859D01*
X328419Y76022D01*
X329114Y76486D01*
X329578Y77181D01*
X329741Y78000D01*
X329578Y78819D01*
X329114Y79514D01*
X328425Y79975D01*
Y80398D01*
X328571Y80464D01*
X328571Y80464D01*
D01*
X328571Y80464D01*
X328571Y80464D01*
X329000Y80378D01*
X346535D01*
X355755Y71159D01*
X355706Y70661D01*
X355486Y70514D01*
X355022Y69819D01*
X354859Y69000D01*
X355022Y68181D01*
X355486Y67486D01*
X356181Y67022D01*
X357000Y66859D01*
X357819Y67022D01*
X358514Y67486D01*
X358978Y68181D01*
X359141Y69000D01*
X358978Y69819D01*
X358514Y70514D01*
X358121Y70776D01*
Y71500D01*
X358122Y71500D01*
X358036Y71929D01*
X357793Y72293D01*
X357793Y72293D01*
X347793Y82293D01*
X347429Y82536D01*
X347000Y82622D01*
X347000Y82622D01*
X329465D01*
X307121Y104965D01*
Y105624D01*
X307514Y105886D01*
X307978Y106581D01*
X308141Y107400D01*
X307978Y108219D01*
X307514Y108914D01*
X307157Y109153D01*
X307151Y109167D01*
X307135Y109656D01*
X307819Y110181D01*
X308453Y111007D01*
X308851Y111968D01*
X308921Y112500D01*
X301079D01*
X301149Y111968D01*
X301547Y111007D01*
X302181Y110181D01*
X303007Y109547D01*
X303968Y109149D01*
X304119Y109129D01*
X304325Y108674D01*
X304022Y108219D01*
X303859Y107400D01*
X304022Y106581D01*
X304486Y105886D01*
X304878Y105624D01*
Y104500D01*
X304878Y104500D01*
X304907Y104356D01*
X304466Y104120D01*
X301149Y107437D01*
X301378Y107781D01*
X301541Y108600D01*
X301378Y109419D01*
X300914Y110114D01*
X300219Y110578D01*
X299400Y110741D01*
X298581Y110578D01*
X298163Y110299D01*
X297722Y110535D01*
Y112635D01*
X301037Y115951D01*
X301500Y115859D01*
X301643Y115887D01*
X301907Y115463D01*
X301547Y114993D01*
X301149Y114032D01*
X301079Y113500D01*
X304500D01*
Y116921D01*
X303968Y116851D01*
X303782Y116774D01*
X303465Y117160D01*
X303478Y117181D01*
X303641Y118000D01*
X303478Y118819D01*
X303014Y119514D01*
X302319Y119978D01*
X301500Y120141D01*
D02*
G37*
G36*
X390638Y124622D02*
X378917D01*
Y113000D01*
X390638D01*
Y124622D01*
D02*
G37*
%LPD*%
G36*
X325184Y64230D02*
X325086Y63740D01*
X324917Y63670D01*
X311793Y76793D01*
X311429Y77036D01*
X311000Y77122D01*
X311000Y77122D01*
X292301D01*
X292126Y77450D01*
X292383Y77878D01*
X311535D01*
X325184Y64230D01*
D02*
G37*
G36*
X298581Y106622D02*
X298845Y106569D01*
X325879Y79535D01*
Y79203D01*
X325622Y78819D01*
X325612Y78772D01*
X325512Y78621D01*
X325014Y78572D01*
X297722Y105865D01*
Y106666D01*
X298163Y106901D01*
X298581Y106622D01*
D02*
G37*
G36*
X262374Y143550D02*
X262117Y143122D01*
X247515D01*
X247515Y143122D01*
X247085Y143036D01*
X246722Y142793D01*
X246722Y142793D01*
X235707Y131778D01*
X235464Y131414D01*
X235378Y130985D01*
X235379Y130985D01*
Y121383D01*
X234950Y121125D01*
X234622Y121301D01*
Y131763D01*
X246737Y143878D01*
X262199D01*
X262374Y143550D01*
D02*
G37*
G36*
X227209Y158017D02*
X226324Y157131D01*
X161596D01*
X161578Y157219D01*
X161114Y157914D01*
X160985Y158000D01*
X161130Y158478D01*
X227018D01*
X227209Y158017D01*
D02*
G37*
D13*
X323547Y155000D02*
D03*
X329453D02*
D03*
X290547D02*
D03*
X296453D02*
D03*
D27*
X280200Y78000D02*
X297600Y60600D01*
X277700Y76964D02*
X290400Y64265D01*
Y60000D02*
Y64265D01*
X277700Y76964D02*
Y103700D01*
X280200Y78000D02*
Y100800D01*
X277700Y103700D02*
X281400Y107400D01*
X280200Y100800D02*
X282000Y102600D01*
X296600Y105400D02*
X324500Y77500D01*
X296600Y113100D02*
X301500Y118000D01*
X306000Y104500D02*
Y107400D01*
Y104500D02*
X329000Y81500D01*
X298400Y108600D02*
X299400D01*
X296600Y105400D02*
Y113100D01*
X298400Y108600D02*
X327000Y80000D01*
X338000Y49000D02*
X356500D01*
X328500Y58500D02*
X338000Y49000D01*
X328500Y58500D02*
Y65000D01*
X287500Y76000D02*
X287700Y76200D01*
X237600Y85600D02*
X238000Y86000D01*
X251500Y133500D02*
X251800Y133200D01*
X258500Y131977D02*
Y135000D01*
X258400Y131877D02*
X258500Y131977D01*
X258400Y129723D02*
Y131877D01*
Y129723D02*
X258500Y129623D01*
X261000Y116500D02*
Y130800D01*
X258500Y117500D02*
Y129623D01*
X273000Y126600D02*
Y155828D01*
X268800Y127700D02*
Y127800D01*
Y127700D02*
X269000Y127500D01*
X294000Y108000D02*
X294500Y107500D01*
Y105237D02*
Y107500D01*
Y105237D02*
X294516Y105221D01*
Y103984D02*
Y105221D01*
Y103984D02*
X322500Y76000D01*
X139500Y50500D02*
Y104500D01*
X134709Y45709D02*
X139500Y50500D01*
X134709Y41917D02*
Y45709D01*
X139500Y104500D02*
X146000Y111000D01*
X358000Y33000D02*
X362500Y28500D01*
X351500Y33000D02*
X358000D01*
X326500Y58000D02*
X351500Y33000D01*
X184000Y70000D02*
Y70535D01*
X311000Y76000D02*
X324500Y62500D01*
Y56500D02*
Y62500D01*
Y56500D02*
X352500Y28500D01*
X312000Y79000D02*
X326500Y64500D01*
Y58000D02*
Y64500D01*
X290500Y79000D02*
X312000D01*
X287500Y76000D02*
X311000D01*
X322500Y71000D02*
X328500Y65000D01*
X322500Y71000D02*
Y76000D01*
X331000Y60500D02*
Y65500D01*
X324500Y72000D02*
X331000Y65500D01*
X324500Y72000D02*
Y77500D01*
X327000Y78600D02*
Y80000D01*
X357000Y69000D02*
Y71500D01*
X347000Y81500D02*
X357000Y71500D01*
X329000Y81500D02*
X347000D01*
X247500Y80000D02*
X251000Y83500D01*
Y103000D01*
X263000Y114000D02*
X264000Y115000D01*
X262000Y114000D02*
X263000D01*
X251000Y103000D02*
X262000Y114000D01*
X285500Y122374D02*
X290000Y117874D01*
X285500Y122374D02*
Y123000D01*
X266000Y135500D02*
X268000D01*
X262500Y139000D02*
X266000Y135500D01*
X257000Y139000D02*
X262500D01*
X251500Y133500D02*
X257000Y139000D01*
X251000Y110000D02*
X258500Y117500D01*
X237000Y114500D02*
X240000Y117500D01*
X235000Y114500D02*
X237000D01*
X237500Y106500D02*
X239000Y108000D01*
X252500D01*
X261000Y116500D01*
X233500Y116000D02*
X235000Y114500D01*
X237000Y110000D02*
X251000D01*
X233500Y116000D02*
Y132228D01*
X236500Y119500D02*
Y130985D01*
X233500Y132228D02*
X246272Y145000D01*
X266500D01*
X236500Y130985D02*
X247515Y142000D01*
X264000D01*
X259500Y166500D02*
X270500Y155500D01*
Y129000D02*
Y155500D01*
X269000Y127500D02*
X270500Y129000D01*
X134709Y94083D02*
Y102537D01*
X144000Y111828D01*
Y154328D01*
X146000Y111000D02*
Y153500D01*
X233672Y168500D02*
X260328D01*
X234500Y166500D02*
X259500D01*
X260328Y168500D02*
X273000Y155828D01*
X220000Y74000D02*
X235000Y89000D01*
X234828Y86000D02*
X238000D01*
X220828Y72000D02*
X234828Y86000D01*
X192000Y70500D02*
X197000D01*
X184000Y62500D02*
X192000Y70500D01*
X184000Y60535D02*
Y62500D01*
X197000Y70500D02*
X198500Y72000D01*
X220828D01*
X200500Y74000D02*
X220000D01*
X199035Y75465D02*
X200500Y74000D01*
X194000Y75465D02*
X199035D01*
X144000Y154328D02*
X151672Y162000D01*
X227172D01*
X233672Y168500D01*
X146000Y153500D02*
X152100Y159600D01*
X227600D01*
X234500Y166500D01*
X297600Y60600D02*
X298200Y60000D01*
X345924Y121476D02*
X349284D01*
X316200Y151200D02*
X345924Y121476D01*
X312000Y151200D02*
X316200D01*
X302400Y160800D02*
X312000Y151200D01*
X288600Y160800D02*
X302400D01*
X282600Y154800D02*
X288600Y160800D01*
X282600Y129000D02*
Y154800D01*
X327000Y78600D02*
X327600Y78000D01*
X127200Y21600D02*
Y172000D01*
X127100Y21500D02*
X127200Y21600D01*
X127100Y21500D02*
X393400D01*
X393500Y21600D01*
Y171600D01*
X393100Y172000D02*
X393500Y171600D01*
X127200Y172000D02*
X393100D01*
D28*
X359512Y100988D02*
Y108012D01*
Y100988D02*
X379000Y81500D01*
Y35000D02*
Y81500D01*
X372500Y28500D02*
X379000Y35000D01*
X160500Y155500D02*
X227000D01*
X229000Y157500D02*
X242500D01*
X227000Y155500D02*
X229000Y157500D01*
X159600Y156400D02*
X160500Y155500D01*
D34*
X342012Y116988D02*
X349284D01*
X319760Y139240D02*
X342012Y116988D01*
X329400Y147100D02*
Y155000D01*
Y147100D02*
X348000Y128500D01*
X296400Y153600D02*
Y155000D01*
Y153600D02*
X310760Y139240D01*
X319760D01*
X348000Y128500D02*
X356500D01*
X361500Y123500D01*
Y110000D02*
Y123500D01*
X359512Y108012D02*
X361500Y110000D01*
X349284Y108012D02*
X359512D01*
X315000Y113000D02*
X326843D01*
X336319Y103524D01*
X349284D01*
D35*
X184000Y60535D02*
D03*
X194000Y75465D02*
D03*
X184000Y50535D02*
D03*
X194000Y85465D02*
D03*
Y65465D02*
D03*
Y55465D02*
D03*
X184000Y80535D02*
D03*
Y70535D02*
D03*
X374972Y150063D02*
D03*
Y157937D02*
D03*
X359224Y134315D02*
D03*
X367098D02*
D03*
X305000Y113000D02*
D03*
X134500Y155500D02*
D03*
Y145500D02*
D03*
Y135500D02*
D03*
Y125500D02*
D03*
Y115500D02*
D03*
X210000Y166500D02*
D03*
X160000D02*
D03*
X190000D02*
D03*
X200000D02*
D03*
X180000D02*
D03*
X170000D02*
D03*
X150000D02*
D03*
X352500Y28500D02*
D03*
X342500D02*
D03*
X312500D02*
D03*
X322500D02*
D03*
X332500D02*
D03*
X362500D02*
D03*
X372500D02*
D03*
X386500Y42000D02*
D03*
Y52000D02*
D03*
Y62000D02*
D03*
Y72000D02*
D03*
Y82000D02*
D03*
X241800Y28200D02*
D03*
X221800D02*
D03*
X231800D02*
D03*
D36*
X166008Y37508D02*
D03*
Y98492D02*
D03*
D37*
X154000Y45500D02*
D03*
Y90500D02*
D03*
X315000Y113000D02*
D03*
X220000Y166500D02*
D03*
X302500Y28500D02*
D03*
X211800Y28200D02*
D03*
D38*
X134709Y94083D02*
D03*
Y84083D02*
D03*
Y41917D02*
D03*
Y51917D02*
D03*
D39*
X350563Y154000D02*
D03*
D40*
X374972D02*
D03*
D41*
X363161Y134315D02*
D03*
D42*
X350563Y158921D02*
D03*
Y149079D02*
D03*
D43*
X134500Y165500D02*
D03*
X386500Y32000D02*
D03*
D44*
X310200Y160800D02*
D03*
X298200Y60000D02*
D03*
X290400D02*
D03*
X282000Y102600D02*
D03*
X281400Y107400D02*
D03*
X323760Y99500D02*
D03*
X331240D02*
D03*
X327500Y97531D02*
D03*
Y101469D02*
D03*
X299400Y108600D02*
D03*
X294000Y108000D02*
D03*
X306000Y107400D02*
D03*
X287700Y76200D02*
D03*
X237600Y85600D02*
D03*
X251800Y133200D02*
D03*
X258500Y135000D02*
D03*
X261000Y130800D02*
D03*
X268800Y127800D02*
D03*
X273000Y127200D02*
D03*
X356500Y49000D02*
D03*
X331800Y60600D02*
D03*
X327600Y78000D02*
D03*
X357000Y69000D02*
D03*
X301500Y118000D02*
D03*
X290500Y79000D02*
D03*
X159600Y156400D02*
D03*
X242500Y157500D02*
D03*
X235500Y76500D02*
D03*
X241500Y128000D02*
D03*
X272500Y112500D02*
D03*
X247364Y79636D02*
D03*
X264000Y115000D02*
D03*
X251000Y103000D02*
D03*
X285500Y123000D02*
D03*
X267000Y135500D02*
D03*
X237500Y106500D02*
D03*
X240000Y117500D02*
D03*
X236500Y119500D02*
D03*
X235800Y110400D02*
D03*
X266500Y145000D02*
D03*
X264000Y142000D02*
D03*
X257500Y84500D02*
D03*
X236500Y94500D02*
D03*
X235000Y89000D02*
D03*
X290000Y117874D02*
D03*
X262200Y47400D02*
D03*
X282600Y129000D02*
D03*
D45*
X342500Y134500D02*
D03*
D46*
X349284Y103524D02*
D03*
Y108012D02*
D03*
Y116988D02*
D03*
Y121476D02*
D03*
D47*
X378417Y112500D02*
D03*
M02*
