%FSLAX25Y25*%
%MOIN*%
G70*
G01*
G75*
G04 Layer_Color=16711935*
%ADD10R,0.03150X0.03150*%
%ADD11R,0.03543X0.02756*%
%ADD12R,0.04724X0.13780*%
%ADD13R,0.04331X0.05512*%
%ADD14R,0.05512X0.04331*%
%ADD15R,0.02756X0.03543*%
%ADD16O,0.07087X0.01181*%
%ADD17O,0.01181X0.07087*%
%ADD18R,0.05512X0.26378*%
%ADD19R,0.03543X0.03150*%
%ADD20R,0.09055X0.09055*%
%ADD21R,0.09764X0.06102*%
%ADD22R,0.01181X0.02559*%
%ADD23R,0.05709X0.02362*%
%ADD24O,0.02165X0.00984*%
%ADD25R,0.03543X0.05906*%
%ADD26R,0.03150X0.03543*%
%ADD27C,0.01000*%
%ADD28C,0.02000*%
%ADD29C,0.03500*%
%ADD30C,0.05000*%
%ADD31C,0.04000*%
%ADD32C,0.01200*%
%ADD33C,0.01500*%
%ADD34C,0.03000*%
%ADD35C,0.05906*%
%ADD36C,0.08661*%
%ADD37R,0.05906X0.05906*%
%ADD38C,0.06299*%
%ADD39O,0.07874X0.17716*%
%ADD40O,0.07874X0.15748*%
%ADD41O,0.15748X0.07874*%
%ADD42C,0.05906*%
%ADD43R,0.05906X0.05906*%
%ADD44C,0.03000*%
%ADD45C,0.04000*%
%ADD46R,0.10039X0.03347*%
%ADD47R,0.22441X0.22244*%
%ADD48C,0.00984*%
%ADD49C,0.02362*%
%ADD50C,0.00394*%
%ADD51C,0.00787*%
%ADD52R,0.03950X0.03950*%
%ADD53R,0.04343X0.03556*%
%ADD54R,0.05524X0.14579*%
%ADD55R,0.05131X0.06312*%
%ADD56R,0.06312X0.05131*%
%ADD57R,0.03556X0.04343*%
%ADD58O,0.07887X0.01981*%
%ADD59O,0.01981X0.07887*%
%ADD60R,0.06312X0.27178*%
%ADD61R,0.04343X0.03950*%
%ADD62R,0.09855X0.09855*%
%ADD63R,0.10564X0.06902*%
%ADD64R,0.01981X0.03359*%
%ADD65R,0.06509X0.03162*%
%ADD66O,0.02965X0.01784*%
%ADD67R,0.04343X0.06706*%
%ADD68R,0.03950X0.04343*%
%ADD69C,0.06706*%
%ADD70C,0.09461*%
%ADD71R,0.06706X0.06706*%
%ADD72C,0.07099*%
%ADD73O,0.08674X0.18517*%
%ADD74O,0.08674X0.16548*%
%ADD75O,0.16548X0.08674*%
%ADD76C,0.06706*%
%ADD77R,0.06706X0.06706*%
%ADD78C,0.03800*%
%ADD79C,0.04800*%
%ADD80R,0.10839X0.04147*%
%ADD81R,0.23241X0.23044*%
D27*
X127200Y21600D02*
Y172000D01*
X127100Y21500D02*
X127200Y21600D01*
X127100Y21500D02*
X393400D01*
X393500Y21600D01*
Y171600D01*
X393100Y172000D02*
X393500Y171600D01*
X127200Y172000D02*
X393100D01*
D55*
X323547Y155000D02*
D03*
X329453D02*
D03*
X290547D02*
D03*
X296453D02*
D03*
D69*
X184000Y60535D02*
D03*
X194000Y75465D02*
D03*
X184000Y50535D02*
D03*
X194000Y85465D02*
D03*
Y65465D02*
D03*
Y55465D02*
D03*
X184000Y80535D02*
D03*
Y70535D02*
D03*
X374972Y150063D02*
D03*
Y157937D02*
D03*
X359224Y134315D02*
D03*
X367098D02*
D03*
X305000Y113000D02*
D03*
X134500Y155500D02*
D03*
Y145500D02*
D03*
Y135500D02*
D03*
Y125500D02*
D03*
Y115500D02*
D03*
X210000Y166500D02*
D03*
X160000D02*
D03*
X190000D02*
D03*
X200000D02*
D03*
X180000D02*
D03*
X170000D02*
D03*
X150000D02*
D03*
X352500Y28500D02*
D03*
X342500D02*
D03*
X312500D02*
D03*
X322500D02*
D03*
X332500D02*
D03*
X362500D02*
D03*
X372500D02*
D03*
X386500Y42000D02*
D03*
Y52000D02*
D03*
Y62000D02*
D03*
Y72000D02*
D03*
Y82000D02*
D03*
X241800Y28200D02*
D03*
X221800D02*
D03*
X231800D02*
D03*
D70*
X166008Y37508D02*
D03*
Y98492D02*
D03*
D71*
X154000Y45500D02*
D03*
Y90500D02*
D03*
X315000Y113000D02*
D03*
X220000Y166500D02*
D03*
X302500Y28500D02*
D03*
X211800Y28200D02*
D03*
D72*
X134709Y94083D02*
D03*
Y84083D02*
D03*
Y41917D02*
D03*
Y51917D02*
D03*
D73*
X350563Y154000D02*
D03*
D74*
X374972D02*
D03*
D75*
X363161Y134315D02*
D03*
D76*
X350563Y158921D02*
D03*
Y149079D02*
D03*
D77*
X134500Y165500D02*
D03*
X386500Y32000D02*
D03*
D78*
X310200Y160800D02*
D03*
X298200Y60000D02*
D03*
X290400D02*
D03*
X282000Y102600D02*
D03*
X281400Y107400D02*
D03*
X323760Y99500D02*
D03*
X331240D02*
D03*
X327500Y97531D02*
D03*
Y101469D02*
D03*
X299400Y108600D02*
D03*
X294000Y108000D02*
D03*
X306000Y107400D02*
D03*
X287700Y76200D02*
D03*
X237600Y85600D02*
D03*
X251800Y133200D02*
D03*
X258500Y135000D02*
D03*
X261000Y130800D02*
D03*
X268800Y127800D02*
D03*
X273000Y127200D02*
D03*
X356500Y49000D02*
D03*
X331800Y60600D02*
D03*
X327600Y78000D02*
D03*
X357000Y69000D02*
D03*
X301500Y118000D02*
D03*
X290500Y79000D02*
D03*
X159600Y156400D02*
D03*
X242500Y157500D02*
D03*
X235500Y76500D02*
D03*
X241500Y128000D02*
D03*
X272500Y112500D02*
D03*
X247364Y79636D02*
D03*
X264000Y115000D02*
D03*
X251000Y103000D02*
D03*
X285500Y123000D02*
D03*
X267000Y135500D02*
D03*
X237500Y106500D02*
D03*
X240000Y117500D02*
D03*
X236500Y119500D02*
D03*
X235800Y110400D02*
D03*
X266500Y145000D02*
D03*
X264000Y142000D02*
D03*
X257500Y84500D02*
D03*
X236500Y94500D02*
D03*
X235000Y89000D02*
D03*
X290000Y117874D02*
D03*
X262200Y47400D02*
D03*
X282600Y129000D02*
D03*
D79*
X342500Y134500D02*
D03*
D80*
X349284Y103524D02*
D03*
Y108012D02*
D03*
Y116988D02*
D03*
Y121476D02*
D03*
D81*
X378417Y112500D02*
D03*
M02*
