%FSLAX25Y25*%
%MOIN*%
G70*
G01*
G75*
G04 Layer_Physical_Order=1*
G04 Layer_Color=255*
%ADD10R,0.03150X0.03150*%
%ADD11R,0.03543X0.02756*%
%ADD12R,0.04724X0.13780*%
%ADD13R,0.04331X0.05512*%
%ADD14R,0.05512X0.04331*%
%ADD15R,0.02756X0.03543*%
%ADD16O,0.07087X0.01181*%
%ADD17O,0.01181X0.07087*%
%ADD18R,0.05512X0.26378*%
%ADD19R,0.03543X0.03150*%
%ADD20R,0.09055X0.09055*%
%ADD21R,0.09764X0.06102*%
%ADD22R,0.01181X0.02559*%
%ADD23R,0.05709X0.02362*%
%ADD24O,0.02165X0.00984*%
%ADD25R,0.03543X0.05906*%
%ADD26R,0.03150X0.03543*%
%ADD27C,0.01000*%
%ADD28C,0.02000*%
%ADD29C,0.03500*%
%ADD30C,0.05000*%
%ADD31C,0.04000*%
%ADD32C,0.01200*%
%ADD33C,0.01500*%
%ADD34C,0.03000*%
%ADD35C,0.05906*%
%ADD36C,0.08661*%
%ADD37R,0.05906X0.05906*%
%ADD38C,0.06299*%
%ADD39O,0.07874X0.17716*%
%ADD40O,0.07874X0.15748*%
%ADD41O,0.15748X0.07874*%
%ADD42C,0.05906*%
%ADD43R,0.05906X0.05906*%
%ADD44C,0.03000*%
%ADD45C,0.04000*%
G36*
X273378Y117001D02*
X273843Y116908D01*
X274303Y117000D01*
X274313Y116991D01*
X274690Y116428D01*
Y116276D01*
X273303Y114889D01*
X273000Y114950D01*
Y113000D01*
X274950D01*
X274889Y113303D01*
X276604Y115018D01*
X276604Y115018D01*
X276702Y115165D01*
X277200Y115214D01*
X278380Y114034D01*
X278380Y114034D01*
X278744Y113791D01*
X278744Y113791D01*
X278744Y113791D01*
D01*
X278744Y113791D01*
X278744Y113791D01*
X279173Y113705D01*
X279173Y113705D01*
X280592D01*
X280783Y113243D01*
X277607Y110067D01*
X277364Y109703D01*
X277278Y109274D01*
X277278Y109274D01*
Y99600D01*
X277278Y99600D01*
X277364Y99171D01*
X277607Y98807D01*
X280935Y95479D01*
X280935Y95479D01*
X281299Y95236D01*
X281299Y95236D01*
X281299Y95236D01*
D01*
X281299Y95236D01*
X281299Y95236D01*
X281728Y95150D01*
X281728Y95150D01*
X284411D01*
X284728Y94764D01*
X284636Y94303D01*
X284729Y93839D01*
X284992Y93445D01*
Y93193D01*
X284729Y92799D01*
X284636Y92335D01*
X284729Y91870D01*
X284992Y91476D01*
Y91224D01*
X284729Y90831D01*
X284636Y90366D01*
X284729Y89902D01*
X284992Y89508D01*
Y89256D01*
X284729Y88862D01*
X284636Y88398D01*
X284729Y87933D01*
X284992Y87539D01*
Y87287D01*
X284729Y86894D01*
X284636Y86429D01*
X284729Y85965D01*
X284992Y85571D01*
Y85319D01*
X284729Y84925D01*
X284020Y85066D01*
X273990Y95096D01*
X273626Y95339D01*
X273197Y95425D01*
X273197Y95425D01*
X253837D01*
X253646Y95887D01*
X255193Y97434D01*
X255193Y97434D01*
X255436Y97798D01*
X255436Y97798D01*
X255436Y97798D01*
X255522Y98227D01*
X255521Y98227D01*
Y113100D01*
X255522Y113100D01*
X255436Y113529D01*
X255193Y113893D01*
X255193Y113893D01*
X252795Y116292D01*
X252654Y117001D01*
X253047Y117264D01*
X253299D01*
X253693Y117001D01*
X254157Y116908D01*
X254622Y117001D01*
X255016Y117264D01*
X255268D01*
X255661Y117001D01*
X256126Y116908D01*
X256591Y117001D01*
X256984Y117264D01*
X257236D01*
X257630Y117001D01*
X258095Y116908D01*
X258559Y117001D01*
X258953Y117264D01*
X259205D01*
X259598Y117001D01*
X260063Y116908D01*
X260527Y117001D01*
X260921Y117264D01*
X261173D01*
X261567Y117001D01*
X262032Y116908D01*
X262200Y116942D01*
X262486Y116514D01*
X262022Y115819D01*
X261859Y115000D01*
X262022Y114181D01*
X262486Y113486D01*
X263181Y113022D01*
X264000Y112859D01*
X264819Y113022D01*
X265514Y113486D01*
X265978Y114181D01*
X266141Y115000D01*
X265978Y115819D01*
X265866Y115987D01*
X265928Y116295D01*
X266017Y116510D01*
X266589Y116624D01*
X267115Y116975D01*
X267237Y117158D01*
X267473Y117001D01*
X267937Y116908D01*
X268402Y117001D01*
X268795Y117264D01*
X269047D01*
X269441Y117001D01*
X269905Y116908D01*
X270370Y117001D01*
X270764Y117264D01*
X271016D01*
X271410Y117001D01*
X271874Y116908D01*
X272339Y117001D01*
X272732Y117264D01*
X272984D01*
X273378Y117001D01*
D02*
G37*
G36*
X141678Y133026D02*
Y126465D01*
X136835Y121622D01*
X135702D01*
X135604Y122112D01*
X136292Y122397D01*
X137034Y122966D01*
X137603Y123708D01*
X137961Y124573D01*
X138083Y125500D01*
X137961Y126427D01*
X137603Y127292D01*
X137034Y128034D01*
X136874Y128156D01*
X136841Y128655D01*
X140946Y132760D01*
X141189Y133124D01*
X141678Y133026D01*
D02*
G37*
G36*
X233998Y94735D02*
X233951Y94500D01*
X234145Y93524D01*
X234698Y92698D01*
X235525Y92145D01*
X236000Y92050D01*
Y94500D01*
X237000D01*
Y92050D01*
X237475Y92145D01*
X237651Y92263D01*
X239380Y90534D01*
X239144Y90093D01*
X239000Y90122D01*
X239000Y90122D01*
X236776D01*
X236514Y90514D01*
X235819Y90978D01*
X235000Y91141D01*
X234181Y90978D01*
X233486Y90514D01*
X233022Y89819D01*
X232859Y89000D01*
X233022Y88181D01*
X233486Y87486D01*
X234181Y87022D01*
X235000Y86859D01*
X235415Y86941D01*
X235693Y86526D01*
X235622Y86419D01*
X235459Y85600D01*
X235622Y84781D01*
X236086Y84086D01*
X236781Y83622D01*
X237600Y83459D01*
X238419Y83622D01*
X239114Y84086D01*
X239578Y84781D01*
X239598Y84878D01*
X240000D01*
X240000Y84878D01*
X240429Y84964D01*
X240586Y85068D01*
X241001Y84790D01*
X240936Y84461D01*
X241028Y83996D01*
X241291Y83602D01*
X241685Y83339D01*
X242150Y83247D01*
X243981D01*
Y81898D01*
X243981Y81898D01*
X244066Y81468D01*
X244309Y81105D01*
X245315Y80099D01*
X245223Y79636D01*
X245386Y78816D01*
X245850Y78122D01*
X246545Y77658D01*
X247364Y77495D01*
X247827Y77587D01*
X248833Y76581D01*
X248833Y76581D01*
X249197Y76338D01*
X249626Y76253D01*
X250975D01*
Y74421D01*
X251067Y73957D01*
Y73154D01*
X244535Y66622D01*
X237618D01*
Y69500D01*
X234453D01*
Y70500D01*
X237618D01*
Y73756D01*
X236754D01*
X236609Y74234D01*
X237302Y74698D01*
X237855Y75524D01*
X237949Y76000D01*
X233050D01*
X233145Y75524D01*
X233331Y75246D01*
Y73756D01*
X231287D01*
Y73356D01*
X229622D01*
Y81683D01*
X231462D01*
Y92876D01*
X233557Y94971D01*
X233998Y94735D01*
D02*
G37*
G36*
X309878Y106812D02*
Y95244D01*
X309878Y95244D01*
X309928Y94996D01*
X309611Y94610D01*
X306803D01*
X303586Y97827D01*
X304330Y98571D01*
X307118D01*
Y101827D01*
X303953D01*
Y102827D01*
X307118D01*
Y105622D01*
X307514Y105886D01*
X307978Y106581D01*
X308141Y107400D01*
X308024Y107991D01*
X308465Y108226D01*
X309878Y106812D01*
D02*
G37*
G36*
X256973Y130841D02*
Y125467D01*
X256586Y125150D01*
X256126Y125241D01*
X255661Y125149D01*
X255268Y124886D01*
X255016D01*
X254622Y125149D01*
X254157Y125241D01*
X253693Y125149D01*
X253299Y124886D01*
X253047D01*
X252654Y125149D01*
X252189Y125241D01*
X251724Y125149D01*
X251331Y124886D01*
X251100Y124541D01*
X250622Y124686D01*
Y130900D01*
X250622Y130900D01*
D01*
X251008Y131216D01*
X251800Y131059D01*
X252619Y131222D01*
X253314Y131686D01*
X253778Y132381D01*
X253941Y133200D01*
X254502Y133312D01*
X256973Y130841D01*
D02*
G37*
G36*
X128707Y152307D02*
X131207Y149807D01*
X131207Y149807D01*
X131571Y149564D01*
X132000Y149478D01*
X132494D01*
X132592Y148988D01*
X132507Y148953D01*
X131681Y148319D01*
X131047Y147493D01*
X130649Y146532D01*
X130579Y146000D01*
X138421D01*
X138351Y146532D01*
X137953Y147493D01*
X137319Y148319D01*
X136493Y148953D01*
X136408Y148988D01*
X136506Y149478D01*
X142439D01*
X142630Y149016D01*
X139360Y145746D01*
X139117Y145382D01*
X139031Y144953D01*
X139031Y144953D01*
Y134017D01*
X134036Y129022D01*
X133573Y128961D01*
X132708Y128603D01*
X131966Y128034D01*
X131397Y127292D01*
X131112Y126604D01*
X130622Y126702D01*
Y130035D01*
X132902Y132316D01*
X133573Y132039D01*
X134500Y131917D01*
X135427Y132039D01*
X136292Y132397D01*
X137034Y132966D01*
X137603Y133708D01*
X137961Y134573D01*
X138083Y135500D01*
X137961Y136427D01*
X137603Y137292D01*
X137034Y138034D01*
X136292Y138603D01*
X135427Y138961D01*
X134500Y139083D01*
X133573Y138961D01*
X132708Y138603D01*
X131966Y138034D01*
X131397Y137292D01*
X131039Y136427D01*
X130917Y135500D01*
X131039Y134573D01*
X131316Y133902D01*
X128707Y131293D01*
X128600Y131133D01*
X128121Y131278D01*
Y152322D01*
X128600Y152467D01*
X128707Y152307D01*
D02*
G37*
G36*
X261951Y142463D02*
X261859Y142000D01*
X262022Y141181D01*
X262486Y140486D01*
X263181Y140022D01*
X264000Y139859D01*
X264819Y140022D01*
X265514Y140486D01*
X265978Y141181D01*
X266141Y142000D01*
X266036Y142527D01*
X266390Y142881D01*
X266500Y142859D01*
X267319Y143022D01*
X268014Y143486D01*
X268478Y144181D01*
X268641Y145000D01*
X268478Y145819D01*
X268092Y146397D01*
X268479Y146714D01*
X277346Y137847D01*
X277876Y137493D01*
X278500Y137369D01*
X280557D01*
X292562Y125363D01*
X292371Y124901D01*
X290280D01*
X290280Y124901D01*
X289850Y124816D01*
X289487Y124573D01*
X288061Y123147D01*
X287583Y123293D01*
X287478Y123819D01*
X287014Y124514D01*
X286621Y124776D01*
Y130000D01*
X286536Y130429D01*
X286293Y130793D01*
X286293Y130793D01*
X280793Y136293D01*
X280429Y136536D01*
X280000Y136622D01*
X280000Y136622D01*
X268776D01*
X268514Y137014D01*
X267819Y137478D01*
X267000Y137641D01*
X266181Y137478D01*
X265486Y137014D01*
X265022Y136319D01*
X264859Y135500D01*
X265022Y134681D01*
X265486Y133986D01*
X266181Y133522D01*
X266341Y133490D01*
X266486Y133011D01*
X263469Y129995D01*
X263028Y130230D01*
X263141Y130800D01*
X262978Y131619D01*
X262514Y132314D01*
X262222Y132509D01*
Y138900D01*
X262222Y138900D01*
X262136Y139329D01*
X261893Y139693D01*
X261893Y139693D01*
X252170Y149416D01*
X252361Y149878D01*
X254535D01*
X261951Y142463D01*
D02*
G37*
G36*
X201161Y139007D02*
X201161Y139007D01*
X201524Y138764D01*
X201954Y138678D01*
X240135D01*
X248325Y130489D01*
X248228Y129998D01*
X247917Y129870D01*
X239993Y137793D01*
X239629Y138036D01*
X239200Y138122D01*
X239200Y138122D01*
X201265D01*
X189793Y149593D01*
X189783Y149600D01*
X189824Y149737D01*
X190309Y149858D01*
X201161Y139007D01*
D02*
G37*
G36*
X253036Y71297D02*
Y67122D01*
X250035Y64122D01*
X245778D01*
X245633Y64600D01*
X245793Y64707D01*
X252574Y71488D01*
X253036Y71297D01*
D02*
G37*
G36*
X285791Y77123D02*
X285722Y77019D01*
X285559Y76200D01*
X285722Y75381D01*
X286186Y74686D01*
X286881Y74222D01*
X287700Y74059D01*
X288519Y74222D01*
X289214Y74686D01*
X289678Y75381D01*
X289841Y76200D01*
X289841Y76200D01*
X289841Y76200D01*
D01*
X289767Y76579D01*
X290121Y76933D01*
X290500Y76859D01*
D01*
X290500Y76859D01*
Y76859D01*
X291319Y77022D01*
X292014Y77486D01*
X292400Y78064D01*
X292879Y77918D01*
Y77265D01*
X283607Y67993D01*
X283364Y67629D01*
X283336Y67488D01*
X282838Y67537D01*
Y73957D01*
X282930Y74421D01*
Y79330D01*
X283392Y79522D01*
X285791Y77123D01*
D02*
G37*
G36*
X343378Y58035D02*
Y57521D01*
X343378D01*
X343328D01*
X343025Y57521D01*
X343025Y57521D01*
Y57521D01*
X336420D01*
Y56074D01*
X333872D01*
Y56931D01*
X332121D01*
Y58523D01*
X332619Y58622D01*
X333314Y59086D01*
X333778Y59781D01*
X333941Y60600D01*
X333778Y61419D01*
X333314Y62114D01*
X332619Y62578D01*
X332606Y62581D01*
X332655Y63078D01*
X338335D01*
X343378Y58035D01*
D02*
G37*
G36*
X254836Y65335D02*
X254934Y64844D01*
X251258Y61169D01*
X216503D01*
X216381Y61463D01*
X216659Y61878D01*
X250500D01*
X250500Y61878D01*
X250929Y61964D01*
X251293Y62207D01*
X254542Y65456D01*
X254836Y65335D01*
D02*
G37*
G36*
X281101Y81813D02*
X281052Y81315D01*
X280858Y81185D01*
X280606D01*
X280213Y81448D01*
X279748Y81541D01*
X279283Y81448D01*
X278890Y81185D01*
X278638D01*
X278244Y81448D01*
X277780Y81541D01*
X277315Y81448D01*
X276921Y81185D01*
X276669D01*
X276275Y81448D01*
X275811Y81541D01*
X275346Y81448D01*
X274953Y81185D01*
X274701D01*
X274307Y81448D01*
X273843Y81541D01*
X273378Y81448D01*
X272984Y81185D01*
X272732D01*
X272339Y81448D01*
X271874Y81541D01*
X271410Y81448D01*
X271016Y81185D01*
X270764D01*
X270370Y81448D01*
X269905Y81541D01*
X269441Y81448D01*
X269047Y81185D01*
X268795D01*
X268402Y81448D01*
X267937Y81541D01*
X267473Y81448D01*
X267237Y81291D01*
X267115Y81473D01*
X266589Y81825D01*
X266469Y81849D01*
Y77374D01*
X265469D01*
Y81849D01*
X265348Y81825D01*
X264984Y81582D01*
X264621Y81825D01*
X264500Y81849D01*
Y77374D01*
X263500D01*
Y81889D01*
X263153Y82174D01*
Y83969D01*
X263068Y84398D01*
X262825Y84762D01*
X262825Y84762D01*
X259193Y88393D01*
X258829Y88636D01*
X258400Y88722D01*
X258400Y88722D01*
X256600D01*
X256600Y88722D01*
X256171Y88636D01*
X255807Y88393D01*
X255807Y88393D01*
X251396Y83982D01*
X251153Y83618D01*
X251067Y83189D01*
X251067Y83189D01*
Y80791D01*
X250975Y80327D01*
Y78496D01*
X250091D01*
X249413Y79173D01*
X249505Y79636D01*
X249342Y80455D01*
X248878Y81150D01*
X248184Y81614D01*
X247364Y81777D01*
X246901Y81685D01*
X246224Y82362D01*
Y83247D01*
X248055D01*
X248520Y83339D01*
X248913Y83602D01*
X249177Y83996D01*
X249269Y84461D01*
X249177Y84925D01*
X248913Y85319D01*
Y85571D01*
X249177Y85965D01*
X249269Y86429D01*
X249177Y86894D01*
X248913Y87287D01*
Y87539D01*
X249177Y87933D01*
X249269Y88398D01*
X249177Y88862D01*
X249019Y89097D01*
X249202Y89219D01*
X249553Y89745D01*
X249577Y89866D01*
X245102D01*
Y90866D01*
X249618D01*
X249902Y91213D01*
X271701D01*
X281101Y81813D01*
D02*
G37*
G36*
X324253Y110038D02*
X324260Y110005D01*
X324308Y109933D01*
Y107482D01*
X322372D01*
Y103723D01*
X326233D01*
X326284Y103553D01*
X325987Y103151D01*
X322018D01*
Y100673D01*
X321782Y100319D01*
X321619Y99500D01*
X321782Y98681D01*
X322018Y98327D01*
Y95849D01*
X325909D01*
Y95677D01*
X325909D01*
X325909Y95277D01*
X322372D01*
Y91518D01*
X324410D01*
Y89116D01*
X323569D01*
Y84414D01*
X323107Y84223D01*
X320621Y86709D01*
Y91744D01*
X320621Y91744D01*
X320536Y92173D01*
X320293Y92537D01*
X318549Y94281D01*
X318185Y94524D01*
X317772Y94607D01*
Y96063D01*
X315985D01*
X315887Y96553D01*
X316311Y96729D01*
X316437Y96825D01*
X317372D01*
Y97931D01*
X317533Y98321D01*
X317622Y99000D01*
X317533Y99679D01*
X317372Y100069D01*
Y101175D01*
X317141D01*
Y109447D01*
X318553D01*
Y110378D01*
X323914D01*
X324253Y110038D01*
D02*
G37*
G36*
X279283Y73300D02*
X279748Y73207D01*
X280208Y73299D01*
X280595Y72982D01*
Y62365D01*
X268143Y49913D01*
X267702Y50149D01*
X267743Y50353D01*
X267658Y50779D01*
X267417Y51140D01*
X267160Y51311D01*
Y53039D01*
X267075Y53468D01*
X266832Y53832D01*
X266832Y53832D01*
X266077Y54586D01*
Y55228D01*
X267131D01*
Y56478D01*
X268200D01*
X268200Y56478D01*
X268629Y56564D01*
X268993Y56807D01*
X271393Y59207D01*
X271393Y59207D01*
X271636Y59571D01*
X271722Y60000D01*
X271722Y60000D01*
Y64900D01*
X271722Y64900D01*
X271636Y65329D01*
X271393Y65693D01*
X271393Y65693D01*
X270621Y66465D01*
X269793Y67707D01*
X270036Y68071D01*
X270122Y68500D01*
Y71500D01*
X270122Y71500D01*
X270036Y71929D01*
X269793Y72293D01*
X269793Y72293D01*
X269233Y72853D01*
X269468Y73294D01*
X269905Y73207D01*
X270370Y73300D01*
X270764Y73563D01*
X271016D01*
X271410Y73300D01*
X271874Y73207D01*
X272339Y73300D01*
X272732Y73563D01*
X272984D01*
X273378Y73300D01*
X273843Y73207D01*
X274307Y73300D01*
X274701Y73563D01*
X274953D01*
X275346Y73300D01*
X275811Y73207D01*
X276275Y73300D01*
X276669Y73563D01*
X276921D01*
X277315Y73300D01*
X277780Y73207D01*
X278244Y73300D01*
X278638Y73563D01*
X278890D01*
X279283Y73300D01*
D02*
G37*
G36*
X220707Y64707D02*
X220867Y64600D01*
X220722Y64122D01*
X216094D01*
X216094Y64122D01*
X215665Y64036D01*
X215301Y63793D01*
X196583Y45074D01*
X193372D01*
Y45786D01*
X194793Y47207D01*
X194793Y47207D01*
X195036Y47571D01*
X195036Y47571D01*
X195036Y47571D01*
X195122Y48000D01*
X195122Y48000D01*
Y52084D01*
X195792Y52361D01*
X196534Y52931D01*
X197103Y53673D01*
X197461Y54537D01*
X197583Y55465D01*
X197461Y56392D01*
X197103Y57256D01*
X196534Y57998D01*
X195792Y58568D01*
X194927Y58926D01*
X194000Y59048D01*
X193073Y58926D01*
X192208Y58568D01*
X191466Y57998D01*
X190897Y57256D01*
X190539Y56392D01*
X190417Y55465D01*
X190539Y54537D01*
X190897Y53673D01*
X191466Y52931D01*
X192208Y52361D01*
X192878Y52084D01*
Y48465D01*
X190345Y45931D01*
X188628D01*
Y42122D01*
X187417D01*
X186372Y43167D01*
Y45931D01*
X185122D01*
Y47155D01*
X185792Y47432D01*
X186534Y48002D01*
X187103Y48744D01*
X187461Y49608D01*
X187583Y50535D01*
X187461Y51463D01*
X187103Y52327D01*
X186534Y53069D01*
X185792Y53639D01*
X184927Y53997D01*
X184000Y54119D01*
X183073Y53997D01*
X182208Y53639D01*
X181466Y53069D01*
X180897Y52327D01*
X180539Y51463D01*
X180417Y50535D01*
X180539Y49608D01*
X180897Y48744D01*
X181466Y48002D01*
X182208Y47432D01*
X182878Y47155D01*
Y45931D01*
X181628D01*
Y41975D01*
X184392D01*
X185880Y40487D01*
X185688Y40025D01*
X181628D01*
Y36069D01*
X182878D01*
Y35356D01*
X181282D01*
Y28644D01*
X186787D01*
Y28244D01*
X188005D01*
X188196Y27782D01*
X187535Y27122D01*
X180965D01*
X178622Y29465D01*
Y40500D01*
X178622Y40500D01*
X178536Y40929D01*
X178293Y41293D01*
X178293Y41293D01*
X169122Y50465D01*
Y73535D01*
X171682Y76096D01*
X172144Y75905D01*
Y70782D01*
X174378D01*
Y68431D01*
X173128D01*
Y64475D01*
X177872D01*
Y68431D01*
X176621D01*
Y70782D01*
X178856D01*
Y72426D01*
X180488D01*
X180765Y72010D01*
X180539Y71463D01*
X180417Y70535D01*
X180539Y69608D01*
X180897Y68744D01*
X181466Y68002D01*
X182208Y67432D01*
X183073Y67074D01*
X184000Y66952D01*
X184927Y67074D01*
X185792Y67432D01*
X186534Y68002D01*
X187103Y68744D01*
X187461Y69608D01*
X187583Y70535D01*
X187461Y71463D01*
X187184Y72133D01*
X188793Y73742D01*
X188793Y73742D01*
X189036Y74106D01*
X189122Y74535D01*
Y77535D01*
X190965Y79378D01*
X192884D01*
X192981Y78888D01*
X192208Y78568D01*
X191466Y77998D01*
X190897Y77256D01*
X190539Y76392D01*
X190417Y75465D01*
X190539Y74537D01*
X190897Y73673D01*
X191466Y72931D01*
X192208Y72361D01*
X193073Y72003D01*
X194000Y71881D01*
X194927Y72003D01*
X195792Y72361D01*
X196534Y72931D01*
X197103Y73673D01*
X197415Y74426D01*
X198128D01*
Y73569D01*
X202872D01*
Y77525D01*
X198128D01*
Y76669D01*
X197347D01*
X197103Y77256D01*
X196534Y77998D01*
X195792Y78568D01*
X195019Y78888D01*
X195116Y79378D01*
X197000D01*
X197000Y79378D01*
X197429Y79464D01*
X197446Y79475D01*
X198128Y79475D01*
Y79475D01*
X202872D01*
Y80331D01*
X205083D01*
X220707Y64707D01*
D02*
G37*
G36*
X203207Y141407D02*
X203207Y141407D01*
X203217Y141400D01*
X203072Y140922D01*
X202418D01*
X191347Y151993D01*
X190983Y152236D01*
X190554Y152322D01*
X190554Y152322D01*
X164161D01*
X164020Y152663D01*
X164297Y153078D01*
X191535D01*
X203207Y141407D01*
D02*
G37*
G36*
X392378Y127433D02*
X392378D01*
X392098D01*
X392025Y127433D01*
X392025Y127433D01*
Y127433D01*
X391469D01*
Y140630D01*
X391469Y140630D01*
X391416Y141034D01*
X391363Y141439D01*
X391207Y141816D01*
X391050Y142193D01*
X390553Y142841D01*
X379952Y153442D01*
Y153500D01*
X375472D01*
Y145149D01*
X376261Y145253D01*
X377462Y145750D01*
X378219Y146331D01*
X385216Y139335D01*
Y127433D01*
X384587D01*
Y113744D01*
X388342D01*
Y113244D01*
X388843D01*
Y99055D01*
X392025D01*
X392025Y99055D01*
Y99055D01*
X392098Y99055D01*
X392378Y98775D01*
Y22622D01*
X128121D01*
Y121222D01*
X128600Y121367D01*
X128707Y121207D01*
X130207Y119707D01*
X130571Y119464D01*
X131000Y119378D01*
X131000Y119378D01*
X133298D01*
X133396Y118888D01*
X132708Y118603D01*
X131966Y118034D01*
X131397Y117292D01*
X131039Y116427D01*
X130917Y115500D01*
X131039Y114573D01*
X131397Y113708D01*
X131966Y112966D01*
X132708Y112397D01*
X133573Y112039D01*
X134500Y111917D01*
X135427Y112039D01*
X136292Y112397D01*
X137034Y112966D01*
X137603Y113708D01*
X137961Y114573D01*
X138083Y115500D01*
X137961Y116427D01*
X137603Y117292D01*
X137034Y118034D01*
X136292Y118603D01*
X135604Y118888D01*
X135702Y119378D01*
X137300D01*
X137300Y119378D01*
X137729Y119464D01*
X138093Y119707D01*
X143593Y125207D01*
X143593Y125207D01*
X143836Y125571D01*
X143922Y126000D01*
Y144135D01*
X147465Y147678D01*
X188535D01*
X200007Y136207D01*
X200371Y135964D01*
X200800Y135878D01*
X200800Y135878D01*
X238735D01*
X246378Y128235D01*
Y117500D01*
X246378Y117500D01*
X246464Y117071D01*
X246707Y116707D01*
X247750Y115664D01*
X247558Y115202D01*
X245475D01*
X242384Y118293D01*
X242020Y118536D01*
X241805Y118579D01*
X241514Y119014D01*
X240819Y119478D01*
X240000Y119641D01*
X239181Y119478D01*
X239082Y119413D01*
X238620Y119604D01*
X238478Y120319D01*
X238014Y121014D01*
X237319Y121478D01*
X236500Y121641D01*
X235681Y121478D01*
X234986Y121014D01*
X234522Y120319D01*
X234359Y119500D01*
X234522Y118681D01*
X234986Y117986D01*
X235379Y117724D01*
Y117000D01*
X235378Y117000D01*
X235464Y116571D01*
X235707Y116207D01*
X240330Y111583D01*
X240139Y111122D01*
X237798D01*
X237778Y111219D01*
X237314Y111914D01*
X236619Y112378D01*
X235800Y112541D01*
X234981Y112378D01*
X234286Y111914D01*
X233822Y111219D01*
X233659Y110400D01*
X233822Y109581D01*
X234286Y108886D01*
X234981Y108422D01*
X235667Y108285D01*
X235859Y107823D01*
X235522Y107319D01*
X235359Y106500D01*
X235426Y106164D01*
X234985Y105928D01*
X231462Y109451D01*
Y118316D01*
X229622D01*
Y127144D01*
X231287D01*
Y126744D01*
X233953D01*
Y130500D01*
Y134256D01*
X231287D01*
Y133856D01*
X225782D01*
Y127144D01*
X227379D01*
Y118316D01*
X225538D01*
Y103337D01*
X231462D01*
Y105625D01*
X231924Y105816D01*
X236325Y101416D01*
X236325Y101416D01*
X235309Y99896D01*
X231897Y96483D01*
X231462Y96663D01*
Y96663D01*
X231462Y96663D01*
X225538D01*
Y81683D01*
X227379D01*
Y73356D01*
X225782D01*
Y66644D01*
D01*
Y66644D01*
X225759Y66622D01*
X221965D01*
X206340Y82246D01*
X205976Y82489D01*
X205547Y82574D01*
X205547Y82574D01*
X202872D01*
Y83431D01*
X198128D01*
Y82750D01*
X197953Y82574D01*
X197953D01*
Y82574D01*
D01*
D01*
D01*
X197524Y82489D01*
X197160Y82246D01*
X197160Y82246D01*
X196667Y81753D01*
X196179Y81866D01*
X196102Y82095D01*
X196819Y82645D01*
X197453Y83471D01*
X197851Y84433D01*
X197921Y84965D01*
X194000D01*
Y85465D01*
X193500D01*
Y89386D01*
X192968Y89316D01*
X192007Y88917D01*
X191181Y88284D01*
X190547Y87458D01*
X190186Y86586D01*
X188929D01*
X188500Y86501D01*
X188136Y86258D01*
X188136Y86258D01*
X185904Y84025D01*
X185032Y84386D01*
X184500Y84456D01*
Y80535D01*
X183500D01*
Y84456D01*
X182968Y84386D01*
X182007Y83988D01*
X181181Y83355D01*
X180547Y82529D01*
X180149Y81567D01*
X180018Y80574D01*
X179256D01*
Y82618D01*
X176000D01*
Y79453D01*
X175000D01*
Y82618D01*
X171744D01*
Y80574D01*
X164453D01*
X164453Y80574D01*
X164024Y80489D01*
X163660Y80246D01*
X163660Y80246D01*
X161035Y77622D01*
X143331D01*
Y79272D01*
X141453D01*
Y76500D01*
X140953D01*
Y76000D01*
X138575D01*
Y73728D01*
X139831D01*
Y61772D01*
X138575D01*
Y59500D01*
X143331D01*
Y61772D01*
X142074D01*
Y73728D01*
X143331D01*
Y75378D01*
X161500D01*
X161500Y75378D01*
X161929Y75464D01*
X162293Y75707D01*
X164917Y78331D01*
X170092D01*
X170283Y77869D01*
X167207Y74793D01*
X166964Y74429D01*
X166878Y74000D01*
X166878Y74000D01*
Y50000D01*
X166878Y50000D01*
X166964Y49571D01*
X167207Y49207D01*
X176378Y40035D01*
Y29000D01*
X176378Y29000D01*
X176464Y28571D01*
X176707Y28207D01*
X179707Y25207D01*
X180071Y24964D01*
X180500Y24878D01*
X180500Y24879D01*
X188000D01*
X188000Y24878D01*
X188429Y24964D01*
X188793Y25207D01*
X190746Y27160D01*
X190989Y27524D01*
X191074Y27953D01*
X192531Y28244D01*
X193118D01*
Y31500D01*
X189953D01*
Y32500D01*
X193118D01*
Y35756D01*
X193118D01*
Y35816D01*
X193372Y36069D01*
X193372D01*
Y39878D01*
X197000D01*
X197000Y39878D01*
X197429Y39964D01*
X197793Y40207D01*
X216512Y58926D01*
X251723D01*
X251723Y58926D01*
X252152Y59011D01*
X252516Y59254D01*
X256666Y63405D01*
X257128Y63213D01*
Y62396D01*
X261872D01*
Y63253D01*
X263128D01*
Y62396D01*
X267872D01*
Y65389D01*
X268334Y65580D01*
X269479Y64435D01*
Y60465D01*
X267735Y58722D01*
X267131D01*
Y59972D01*
X262781D01*
Y55228D01*
X263834D01*
Y54121D01*
X263834Y54121D01*
X263920Y53692D01*
X264163Y53328D01*
X264917Y52574D01*
Y51311D01*
X264661Y51140D01*
X264535Y50953D01*
X259865D01*
X259739Y51140D01*
X259378Y51381D01*
X258952Y51466D01*
X258402D01*
X258361Y51474D01*
X223753D01*
X223753Y51474D01*
X223323Y51389D01*
X222960Y51146D01*
X222960Y51146D01*
X211007Y39193D01*
X210764Y38829D01*
X210678Y38400D01*
X210679Y38400D01*
Y31753D01*
X208247D01*
Y24647D01*
X215353D01*
Y31753D01*
X212922D01*
Y37935D01*
X224217Y49231D01*
X230592D01*
X230783Y48769D01*
X221007Y38993D01*
X220764Y38629D01*
X220678Y38200D01*
X220678Y38200D01*
Y31581D01*
X220008Y31303D01*
X219266Y30734D01*
X218697Y29992D01*
X218339Y29127D01*
X218217Y28200D01*
X218339Y27273D01*
X218697Y26408D01*
X219266Y25666D01*
X220008Y25097D01*
X220873Y24739D01*
X221800Y24617D01*
X222727Y24739D01*
X223592Y25097D01*
X224334Y25666D01*
X224903Y26408D01*
X225261Y27273D01*
X225383Y28200D01*
X225261Y29127D01*
X224903Y29992D01*
X224334Y30734D01*
X223592Y31303D01*
X222921Y31581D01*
Y37735D01*
X232449Y47263D01*
X235823D01*
X236015Y46801D01*
X231007Y41793D01*
X230764Y41429D01*
X230678Y41000D01*
X230679Y41000D01*
Y31581D01*
X230008Y31303D01*
X229266Y30734D01*
X228697Y29992D01*
X228339Y29127D01*
X228217Y28200D01*
X228339Y27273D01*
X228697Y26408D01*
X229266Y25666D01*
X230008Y25097D01*
X230873Y24739D01*
X231800Y24617D01*
X232727Y24739D01*
X233592Y25097D01*
X234334Y25666D01*
X234903Y26408D01*
X235261Y27273D01*
X235383Y28200D01*
X235261Y29127D01*
X234903Y29992D01*
X234334Y30734D01*
X233592Y31303D01*
X232922Y31581D01*
Y40535D01*
X237680Y45294D01*
X245255D01*
X245446Y44832D01*
X241007Y40393D01*
X240764Y40029D01*
X240678Y39600D01*
X240679Y39600D01*
Y32014D01*
X239807Y31653D01*
X238981Y31019D01*
X238347Y30193D01*
X237949Y29232D01*
X237879Y28700D01*
X245721D01*
X245651Y29232D01*
X245253Y30193D01*
X244619Y31019D01*
X243793Y31653D01*
X242921Y32014D01*
Y39135D01*
X247112Y43326D01*
X256764D01*
X257189Y43042D01*
X257771Y42926D01*
X257861D01*
Y44447D01*
X258861D01*
Y42926D01*
X258952D01*
X259534Y43042D01*
X260028Y43371D01*
X260346Y43847D01*
X264535D01*
X264661Y43660D01*
X265022Y43418D01*
X265448Y43334D01*
X265998D01*
X266039Y43326D01*
X273647D01*
X273647Y43326D01*
X274076Y43411D01*
X274440Y43654D01*
X287593Y56807D01*
X287593Y56807D01*
X287836Y57171D01*
X287836Y57171D01*
X287836Y57171D01*
X287922Y57600D01*
X287922Y57600D01*
Y59145D01*
X288419Y59194D01*
X288422Y59181D01*
X288886Y58486D01*
X289425Y58126D01*
Y53873D01*
X293775D01*
Y58223D01*
X292717D01*
X292636Y58629D01*
X292393Y58993D01*
X292309Y59077D01*
X292378Y59181D01*
X292541Y60000D01*
X292378Y60819D01*
X291914Y61514D01*
X291219Y61978D01*
X290400Y62141D01*
X289581Y61978D01*
X288886Y61514D01*
X288422Y60819D01*
X288419Y60806D01*
X287922Y60855D01*
Y64335D01*
X297193Y73607D01*
X297436Y73971D01*
X297522Y74400D01*
X297521Y74400D01*
Y83739D01*
X297946Y83915D01*
X298012Y83902D01*
X317879Y64035D01*
Y35465D01*
X314098Y31684D01*
X313427Y31961D01*
X312500Y32083D01*
X311573Y31961D01*
X310708Y31603D01*
X309966Y31034D01*
X309397Y30292D01*
X309039Y29427D01*
X308917Y28500D01*
X309039Y27573D01*
X309397Y26708D01*
X309966Y25966D01*
X310708Y25397D01*
X311573Y25039D01*
X312500Y24917D01*
X313427Y25039D01*
X314292Y25397D01*
X315034Y25966D01*
X315603Y26708D01*
X315961Y27573D01*
X316083Y28500D01*
X315961Y29427D01*
X315684Y30098D01*
X319793Y34207D01*
X319793Y34207D01*
X320036Y34571D01*
X320036Y34571D01*
X320036Y34571D01*
X320122Y35000D01*
X320122Y35000D01*
Y64500D01*
X320084Y64689D01*
X320525Y64925D01*
X323879Y61571D01*
Y32225D01*
X323463Y31947D01*
X323427Y31961D01*
X322500Y32083D01*
X321573Y31961D01*
X320708Y31603D01*
X319966Y31034D01*
X319397Y30292D01*
X319039Y29427D01*
X318917Y28500D01*
X319039Y27573D01*
X319397Y26708D01*
X319966Y25966D01*
X320708Y25397D01*
X321573Y25039D01*
X322500Y24917D01*
X323427Y25039D01*
X324292Y25397D01*
X325034Y25966D01*
X325603Y26708D01*
X325961Y27573D01*
X326083Y28500D01*
X325961Y29427D01*
X325684Y30098D01*
X325793Y30207D01*
X325793Y30207D01*
X326036Y30571D01*
X326121Y31000D01*
Y62036D01*
X326122Y62036D01*
X326084Y62224D01*
X326525Y62460D01*
X326878Y62107D01*
Y33000D01*
X326878Y33000D01*
X326964Y32571D01*
X327207Y32207D01*
X329316Y30098D01*
X329039Y29427D01*
X328917Y28500D01*
X329039Y27573D01*
X329397Y26708D01*
X329966Y25966D01*
X330708Y25397D01*
X331573Y25039D01*
X332500Y24917D01*
X333427Y25039D01*
X334292Y25397D01*
X335034Y25966D01*
X335603Y26708D01*
X335961Y27573D01*
X336083Y28500D01*
X335961Y29427D01*
X335603Y30292D01*
X335034Y31034D01*
X334292Y31603D01*
X333427Y31961D01*
X332500Y32083D01*
X331573Y31961D01*
X330902Y31684D01*
X329121Y33465D01*
Y46669D01*
X331000D01*
Y49047D01*
Y51425D01*
X329121D01*
Y52975D01*
D01*
X329128D01*
X329475Y52975D01*
X329475Y52975D01*
Y52975D01*
X333872D01*
Y53831D01*
X339087D01*
X339087Y53831D01*
X339516Y53917D01*
X339579Y53959D01*
X343025D01*
X343025Y53959D01*
Y53959D01*
X343328Y53959D01*
X343378Y53909D01*
Y50441D01*
X340374D01*
Y48260D01*
Y46079D01*
X343378D01*
Y32347D01*
X343003Y32017D01*
X342500Y32083D01*
X341573Y31961D01*
X340708Y31603D01*
X339966Y31034D01*
X339397Y30292D01*
X339039Y29427D01*
X338917Y28500D01*
X339039Y27573D01*
X339397Y26708D01*
X339966Y25966D01*
X340708Y25397D01*
X341573Y25039D01*
X342500Y24917D01*
X343427Y25039D01*
X344292Y25397D01*
X345034Y25966D01*
X345603Y26708D01*
X345961Y27573D01*
X346083Y28500D01*
X345961Y29427D01*
X345603Y30292D01*
X345585Y30316D01*
X345622Y30500D01*
X345621Y30500D01*
Y50219D01*
X345622D01*
X345672D01*
X345975Y50219D01*
X345975Y50219D01*
Y50219D01*
X352580D01*
Y50878D01*
X354699D01*
X354935Y50437D01*
X354522Y49819D01*
X354359Y49000D01*
X354522Y48181D01*
X354986Y47486D01*
X355101Y47409D01*
X354956Y46931D01*
X354628D01*
Y42975D01*
X359372D01*
Y43831D01*
X364087D01*
X364087Y43831D01*
X364516Y43917D01*
X364579Y43959D01*
X368328D01*
Y47521D01*
X361420D01*
Y46074D01*
X359372D01*
Y46931D01*
X358044D01*
X357899Y47409D01*
X358014Y47486D01*
X358478Y48181D01*
X358641Y49000D01*
X358478Y49819D01*
X358065Y50437D01*
X358301Y50878D01*
X383119D01*
X383397Y50208D01*
X383966Y49466D01*
X384708Y48897D01*
X385573Y48539D01*
X386500Y48417D01*
X387427Y48539D01*
X388292Y48897D01*
X389034Y49466D01*
X389603Y50208D01*
X389961Y51073D01*
X390083Y52000D01*
X389961Y52927D01*
X389603Y53792D01*
X389034Y54534D01*
X388292Y55103D01*
X387427Y55461D01*
X386500Y55583D01*
X385573Y55461D01*
X384708Y55103D01*
X383966Y54534D01*
X383397Y53792D01*
X383119Y53122D01*
X352580D01*
Y53781D01*
X345975D01*
X345975Y53781D01*
Y53781D01*
X345672Y53781D01*
X345621Y53831D01*
Y58500D01*
X345622Y58500D01*
X345536Y58929D01*
X345293Y59293D01*
X345293Y59293D01*
X339593Y64993D01*
X339229Y65236D01*
X338800Y65322D01*
X338800Y65322D01*
X330571D01*
X329685Y66207D01*
X329876Y66669D01*
X331000D01*
Y68547D01*
X328728D01*
Y67817D01*
X328266Y67626D01*
X300796Y95096D01*
X300432Y95339D01*
X300003Y95425D01*
X300003Y95425D01*
X293195D01*
X292878Y95811D01*
X292970Y96272D01*
X292877Y96736D01*
X292614Y97130D01*
Y97382D01*
X292877Y97776D01*
X292954Y98163D01*
X293433Y98308D01*
X294707Y97034D01*
X294707Y97034D01*
X295071Y96791D01*
X295071Y96791D01*
X295071Y96791D01*
D01*
X295071Y96791D01*
X295071Y96791D01*
X295500Y96705D01*
X295500Y96705D01*
X301535D01*
X305545Y92695D01*
X305545Y92695D01*
X305909Y92452D01*
X306339Y92367D01*
X312228D01*
Y90913D01*
X314500D01*
Y93488D01*
X315500D01*
Y90913D01*
X317772D01*
Y91233D01*
X317963Y91312D01*
X318378Y91034D01*
Y86244D01*
X318378Y86244D01*
X318464Y85815D01*
X318707Y85451D01*
X322207Y81951D01*
X322207Y81951D01*
X322571Y81708D01*
X322571Y81708D01*
X322571Y81708D01*
D01*
X322571Y81708D01*
X322571Y81708D01*
X323000Y81622D01*
X323000Y81623D01*
X327500D01*
X327500Y81622D01*
X327929Y81708D01*
X328293Y81951D01*
X329293Y82951D01*
X329293Y82951D01*
X329536Y83315D01*
X329622Y83744D01*
Y84373D01*
X333431D01*
Y85623D01*
X352906D01*
X352906Y85623D01*
X353335Y85708D01*
X353699Y85951D01*
X354793Y87046D01*
X354793Y87046D01*
X355036Y87409D01*
X355070Y87577D01*
X356175D01*
Y91927D01*
X351825D01*
Y87866D01*
X340272D01*
Y87913D01*
X340272D01*
Y89281D01*
X340596Y89498D01*
X342011Y90913D01*
X342500D01*
Y93488D01*
Y96063D01*
X340228D01*
Y96063D01*
X340225D01*
X339872Y96417D01*
Y98175D01*
X335128D01*
Y95556D01*
X334194Y94621D01*
X332628D01*
Y95277D01*
X331059D01*
X331059Y95677D01*
D01*
X331231Y95849D01*
X332982D01*
Y98327D01*
X333218Y98681D01*
X333381Y99500D01*
X333218Y100319D01*
X332982Y100673D01*
Y103151D01*
X329013D01*
X328716Y103553D01*
X328767Y103723D01*
X332628D01*
Y104379D01*
X335635D01*
X339135Y100879D01*
X339532Y100614D01*
X339547Y100611D01*
X340628Y99530D01*
Y96825D01*
X345372D01*
Y97634D01*
X351028D01*
X351825Y96837D01*
Y94073D01*
X356175D01*
Y98423D01*
X353411D01*
X352285Y99549D01*
X351921Y99792D01*
X351492Y99878D01*
X351492Y99878D01*
X345372D01*
Y101175D01*
X342155D01*
X341133Y102197D01*
X341130Y102212D01*
X340865Y102609D01*
X337007Y106467D01*
X336610Y106733D01*
X336142Y106826D01*
X332661D01*
Y108016D01*
X333494Y108850D01*
X333494Y108850D01*
X333806Y109316D01*
X334014Y109627D01*
X334196Y110544D01*
X334196Y110544D01*
X334196Y110544D01*
Y110544D01*
Y112117D01*
X340269D01*
Y122372D01*
X330014D01*
Y115460D01*
X329586Y114819D01*
X329404Y113902D01*
X329404Y113902D01*
Y112565D01*
X328914Y112467D01*
X328771Y112811D01*
X328354Y113354D01*
X326854Y114854D01*
X326311Y115271D01*
X325679Y115533D01*
X325000Y115622D01*
X325000Y115622D01*
X318553D01*
Y116553D01*
X311447D01*
Y109447D01*
X312859D01*
Y101175D01*
X312628D01*
Y100420D01*
X312242Y100102D01*
X312122Y100126D01*
Y107277D01*
X312122Y107277D01*
X312036Y107706D01*
X311793Y108070D01*
X308571Y111292D01*
X308851Y111968D01*
X308921Y112500D01*
X305000D01*
Y113000D01*
X304500D01*
Y116921D01*
X303968Y116851D01*
X303782Y116774D01*
X303465Y117160D01*
X303478Y117181D01*
X303641Y118000D01*
X303478Y118819D01*
X303014Y119514D01*
X302319Y119978D01*
X301500Y120141D01*
X300681Y119978D01*
X299986Y119514D01*
X299522Y118819D01*
X299359Y118000D01*
X299522Y117181D01*
X299952Y116538D01*
X299286Y115873D01*
X298824Y116064D01*
Y119852D01*
X294081D01*
Y118996D01*
X291776D01*
X291514Y119388D01*
X290819Y119852D01*
X290000Y120015D01*
X289181Y119852D01*
X288486Y119388D01*
X288224Y118996D01*
X287735D01*
X287544Y119457D01*
X290744Y122658D01*
X294081D01*
Y121802D01*
X298824D01*
Y122148D01*
X320779D01*
X321404Y122272D01*
X321933Y122626D01*
X321933Y122626D01*
X321933Y122626D01*
X332176Y132869D01*
X340475D01*
X340646Y132646D01*
X341189Y132229D01*
X341821Y131967D01*
X342500Y131878D01*
X343179Y131967D01*
X343811Y132229D01*
X344354Y132646D01*
X344771Y133189D01*
X345033Y133821D01*
X345122Y134500D01*
X345033Y135179D01*
X344771Y135811D01*
X344354Y136354D01*
X343811Y136771D01*
X343179Y137033D01*
X342500Y137122D01*
X341821Y137033D01*
X341189Y136771D01*
X340646Y136354D01*
X340475Y136131D01*
X314128D01*
X311775Y138484D01*
Y140527D01*
X307425D01*
Y136177D01*
X309468D01*
X312298Y133346D01*
X312828Y132993D01*
X313452Y132869D01*
X326908D01*
X327100Y132407D01*
X320104Y125411D01*
X298824D01*
Y125758D01*
X296782D01*
X282386Y140154D01*
X281857Y140507D01*
X281232Y140631D01*
X279176D01*
X261154Y158653D01*
X260624Y159007D01*
X260000Y159131D01*
X243838D01*
X243319Y159478D01*
X242500Y159641D01*
X241681Y159478D01*
X240986Y159014D01*
X240522Y158319D01*
X240359Y157500D01*
X240522Y156681D01*
X240986Y155986D01*
X241681Y155522D01*
X242500Y155359D01*
X243319Y155522D01*
X243838Y155869D01*
X259324D01*
X268214Y146979D01*
X267897Y146592D01*
X267319Y146978D01*
X266500Y147141D01*
X266037Y147049D01*
X259293Y153793D01*
X258929Y154036D01*
X258500Y154122D01*
X258500Y154122D01*
X233965D01*
X223553Y164533D01*
Y170053D01*
X216447D01*
Y162947D01*
X221967D01*
X232330Y152584D01*
X232139Y152122D01*
X225965D01*
X213184Y164902D01*
X213461Y165573D01*
X213583Y166500D01*
X213461Y167427D01*
X213103Y168292D01*
X212534Y169034D01*
X211792Y169603D01*
X210927Y169961D01*
X210000Y170083D01*
X209073Y169961D01*
X208208Y169603D01*
X207466Y169034D01*
X206897Y168292D01*
X206539Y167427D01*
X206417Y166500D01*
X206539Y165573D01*
X206897Y164708D01*
X207466Y163966D01*
X208208Y163397D01*
X209073Y163039D01*
X210000Y162917D01*
X210927Y163039D01*
X211598Y163316D01*
X224330Y150584D01*
X224139Y150122D01*
X217965D01*
X203184Y164902D01*
X203461Y165573D01*
X203583Y166500D01*
X203461Y167427D01*
X203103Y168292D01*
X202534Y169034D01*
X201792Y169603D01*
X200927Y169961D01*
X200000Y170083D01*
X199073Y169961D01*
X198208Y169603D01*
X197466Y169034D01*
X196897Y168292D01*
X196539Y167427D01*
X196417Y166500D01*
X196539Y165573D01*
X196897Y164708D01*
X197466Y163966D01*
X198208Y163397D01*
X199073Y163039D01*
X200000Y162917D01*
X200927Y163039D01*
X201598Y163316D01*
X216330Y148583D01*
X216139Y148122D01*
X209965D01*
X193184Y164902D01*
X193461Y165573D01*
X193583Y166500D01*
X193461Y167427D01*
X193103Y168292D01*
X192534Y169034D01*
X191792Y169603D01*
X190927Y169961D01*
X190000Y170083D01*
X189073Y169961D01*
X188208Y169603D01*
X187466Y169034D01*
X186897Y168292D01*
X186539Y167427D01*
X186417Y166500D01*
X186539Y165573D01*
X186897Y164708D01*
X187466Y163966D01*
X188208Y163397D01*
X189073Y163039D01*
X190000Y162917D01*
X190927Y163039D01*
X191598Y163316D01*
X208330Y146583D01*
X208139Y146122D01*
X206465D01*
X194318Y158268D01*
X193954Y158511D01*
X193525Y158597D01*
X193525Y158597D01*
X176590D01*
X173268Y161918D01*
X172904Y162161D01*
X172475Y162247D01*
X172475Y162247D01*
X171342D01*
X171244Y162737D01*
X171993Y163047D01*
X172819Y163681D01*
X173453Y164507D01*
X173851Y165468D01*
X173921Y166000D01*
X166079D01*
X166149Y165468D01*
X166547Y164507D01*
X167181Y163681D01*
X168007Y163047D01*
X168756Y162737D01*
X168658Y162247D01*
X165840D01*
X163184Y164902D01*
X163461Y165573D01*
X163583Y166500D01*
X163461Y167427D01*
X163103Y168292D01*
X162534Y169034D01*
X161792Y169603D01*
X160927Y169961D01*
X160000Y170083D01*
X159073Y169961D01*
X158208Y169603D01*
X157466Y169034D01*
X156897Y168292D01*
X156539Y167427D01*
X156417Y166500D01*
X156539Y165573D01*
X156897Y164708D01*
X157466Y163966D01*
X158208Y163397D01*
X159073Y163039D01*
X160000Y162917D01*
X160927Y163039D01*
X161598Y163316D01*
X164582Y160332D01*
X164582Y160332D01*
X164946Y160089D01*
X164946Y160089D01*
X164946Y160089D01*
D01*
X164946Y160089D01*
X164946Y160089D01*
X165375Y160003D01*
X165375Y160003D01*
X172010D01*
X175332Y156682D01*
X175696Y156439D01*
X176125Y156353D01*
X176125Y156353D01*
X193060D01*
X205207Y144207D01*
X205207Y144207D01*
X205571Y143964D01*
X206000Y143878D01*
X243935D01*
X251912Y135902D01*
X251811Y135398D01*
X251333Y135253D01*
X243593Y142993D01*
X243229Y143236D01*
X242800Y143322D01*
X242800Y143322D01*
X204465D01*
X192793Y154993D01*
X192429Y155236D01*
X192000Y155322D01*
X192000Y155322D01*
X163800D01*
X163800Y155322D01*
X163371Y155236D01*
X163007Y154993D01*
X163007Y154993D01*
X162135Y154122D01*
X160831D01*
X160686Y154600D01*
X161114Y154886D01*
X161578Y155581D01*
X161741Y156400D01*
X161578Y157219D01*
X161114Y157914D01*
X160419Y158378D01*
X159600Y158541D01*
X159137Y158449D01*
X153005Y164581D01*
X153103Y164708D01*
X153461Y165573D01*
X153583Y166500D01*
X153461Y167427D01*
X153103Y168292D01*
X152534Y169034D01*
X151792Y169603D01*
X150927Y169961D01*
X150000Y170083D01*
X149073Y169961D01*
X148208Y169603D01*
X147466Y169034D01*
X146897Y168292D01*
X146539Y167427D01*
X146417Y166500D01*
X146539Y165573D01*
X146816Y164902D01*
X144035Y162122D01*
X140000D01*
X139571Y162036D01*
X139207Y161793D01*
X139207Y161793D01*
X136098Y158684D01*
X135427Y158961D01*
X134500Y159083D01*
X133573Y158961D01*
X132708Y158603D01*
X131966Y158034D01*
X131397Y157292D01*
X131112Y156604D01*
X130622Y156702D01*
Y160035D01*
X132533Y161947D01*
X138053D01*
Y169053D01*
X130947D01*
Y163533D01*
X128707Y161293D01*
X128600Y161133D01*
X128121Y161278D01*
Y170879D01*
X169152D01*
X169185Y170380D01*
X168968Y170351D01*
X168007Y169953D01*
X167181Y169319D01*
X166547Y168493D01*
X166149Y167532D01*
X166079Y167000D01*
X173921D01*
X173851Y167532D01*
X173453Y168493D01*
X172819Y169319D01*
X171993Y169953D01*
X171032Y170351D01*
X170815Y170380D01*
X170848Y170879D01*
X392378D01*
Y127433D01*
D02*
G37*
G36*
X149073Y163039D02*
X150000Y162917D01*
X150927Y163039D01*
X151244Y163170D01*
X157551Y156863D01*
X157459Y156400D01*
X157622Y155581D01*
X158086Y154886D01*
X158514Y154600D01*
X158369Y154122D01*
X145200D01*
X144771Y154036D01*
X144407Y153793D01*
X144407Y153793D01*
X142335Y151722D01*
X135943D01*
X135846Y152212D01*
X136292Y152397D01*
X137034Y152966D01*
X137603Y153708D01*
X137961Y154573D01*
X138083Y155500D01*
X137961Y156427D01*
X137684Y157098D01*
X140465Y159878D01*
X144500D01*
X144500Y159878D01*
X144929Y159964D01*
X145293Y160207D01*
X148402Y163316D01*
X149073Y163039D01*
D02*
G37*
G36*
X257255Y137159D02*
X257206Y136661D01*
X256986Y136514D01*
X256522Y135819D01*
X256400Y135209D01*
X255922Y135064D01*
X245570Y145416D01*
X245761Y145878D01*
X248535D01*
X257255Y137159D01*
D02*
G37*
%LPC*%
G36*
X137025Y61372D02*
X133069D01*
Y56628D01*
X133926D01*
Y55596D01*
X133730Y55570D01*
X132818Y55193D01*
X132034Y54592D01*
X131433Y53808D01*
X131056Y52896D01*
X130927Y51917D01*
X131056Y50938D01*
X131433Y50026D01*
X132034Y49243D01*
X132818Y48642D01*
X133730Y48264D01*
X134709Y48135D01*
X135687Y48264D01*
X136600Y48642D01*
X137383Y49243D01*
X137984Y50026D01*
X138362Y50938D01*
X138491Y51917D01*
X138362Y52896D01*
X137984Y53808D01*
X137383Y54592D01*
X136600Y55193D01*
X136169Y55371D01*
Y56628D01*
X137025D01*
Y61372D01*
D02*
G37*
G36*
X334272Y51425D02*
X332000D01*
Y49047D01*
Y46669D01*
X334272D01*
Y47926D01*
X336020D01*
Y46079D01*
X339374D01*
Y48260D01*
Y50441D01*
X336020D01*
Y50169D01*
X334272D01*
Y51425D01*
D02*
G37*
G36*
X298200Y62141D02*
X297381Y61978D01*
X296686Y61514D01*
X296222Y60819D01*
X296059Y60000D01*
X296222Y59181D01*
X296567Y58664D01*
X296332Y58223D01*
X296025D01*
Y53873D01*
X300375D01*
Y58223D01*
X300068D01*
X299833Y58664D01*
X300178Y59181D01*
X300341Y60000D01*
X300178Y60819D01*
X299714Y61514D01*
X299019Y61978D01*
X298200Y62141D01*
D02*
G37*
G36*
X262019Y57100D02*
X259944D01*
Y54828D01*
X262019D01*
Y57100D01*
D02*
G37*
G36*
X258944D02*
X256869D01*
Y54828D01*
X258944D01*
Y57100D01*
D02*
G37*
G36*
X297700Y41425D02*
X295428D01*
Y40169D01*
X294372D01*
Y41425D01*
X292100D01*
Y39047D01*
Y36669D01*
X294372D01*
Y37926D01*
X295428D01*
Y36669D01*
X297078D01*
Y32800D01*
X297078Y32800D01*
X297164Y32371D01*
X297407Y32007D01*
X298547Y30867D01*
Y29000D01*
X302000D01*
Y32453D01*
X300133D01*
X299322Y33265D01*
Y36669D01*
X300972D01*
Y38547D01*
X298200D01*
Y39047D01*
X297700D01*
Y41425D01*
D02*
G37*
G36*
X356500D02*
X354228D01*
Y39547D01*
X356500D01*
Y41425D01*
D02*
G37*
G36*
X293775Y51727D02*
X289425D01*
Y47377D01*
X289425D01*
Y47128D01*
X289228Y46931D01*
X289228D01*
Y42975D01*
X293972D01*
Y46931D01*
X293775D01*
Y47377D01*
X293775D01*
Y51727D01*
D02*
G37*
G36*
X386500Y45583D02*
X385573Y45461D01*
X384708Y45103D01*
X383966Y44534D01*
X383397Y43792D01*
X383119Y43122D01*
X377580D01*
Y43781D01*
X370672D01*
Y40219D01*
X377580D01*
Y40878D01*
X383119D01*
X383397Y40208D01*
X383966Y39466D01*
X384708Y38897D01*
X385573Y38539D01*
X386500Y38417D01*
X387427Y38539D01*
X388292Y38897D01*
X389034Y39466D01*
X389603Y40208D01*
X389961Y41073D01*
X390083Y42000D01*
X389961Y42927D01*
X389603Y43792D01*
X389034Y44534D01*
X388292Y45103D01*
X387427Y45461D01*
X386500Y45583D01*
D02*
G37*
G36*
X300375Y51727D02*
X296025D01*
Y47377D01*
X296025D01*
Y47128D01*
X295828Y46931D01*
X295828D01*
Y42975D01*
X300572D01*
Y46931D01*
X300375D01*
Y47377D01*
X300375D01*
Y51727D01*
D02*
G37*
G36*
X356500Y61425D02*
X354228D01*
Y59547D01*
X356500D01*
Y61425D01*
D02*
G37*
G36*
Y58547D02*
X354228D01*
Y56669D01*
X356500D01*
Y58547D01*
D02*
G37*
G36*
X258944Y60372D02*
X256869D01*
Y58100D01*
X258944D01*
Y60372D01*
D02*
G37*
G36*
X368728Y60441D02*
X365374D01*
Y58760D01*
X368728D01*
Y60441D01*
D02*
G37*
G36*
X262019Y60372D02*
X259944D01*
Y58100D01*
X262019D01*
Y60372D01*
D02*
G37*
G36*
X368728Y57760D02*
X365374D01*
Y56079D01*
X368728D01*
Y57760D01*
D02*
G37*
G36*
X359772Y61425D02*
X357500D01*
Y59047D01*
Y56669D01*
X359772D01*
Y57926D01*
X361020D01*
Y56079D01*
X364374D01*
Y58260D01*
Y60441D01*
X361020D01*
Y60169D01*
X359772D01*
Y61425D01*
D02*
G37*
G36*
X184000Y64119D02*
X183073Y63997D01*
X182208Y63639D01*
X181466Y63069D01*
X180897Y62327D01*
X180624Y61669D01*
X177872D01*
Y62525D01*
X173128D01*
Y58569D01*
X177872D01*
Y59426D01*
X180614D01*
X180897Y58744D01*
X181466Y58002D01*
X182208Y57432D01*
X183073Y57074D01*
X184000Y56952D01*
X184927Y57074D01*
X185792Y57432D01*
X186534Y58002D01*
X187103Y58744D01*
X187461Y59608D01*
X187583Y60535D01*
X187461Y61463D01*
X187103Y62327D01*
X186534Y63069D01*
X185792Y63639D01*
X184927Y63997D01*
X184000Y64119D01*
D02*
G37*
G36*
X143331Y58500D02*
X141453D01*
Y56228D01*
X143331D01*
Y58500D01*
D02*
G37*
G36*
X140453D02*
X138575D01*
Y56228D01*
X140453D01*
Y58500D01*
D02*
G37*
G36*
X386000Y31500D02*
X382547D01*
Y28047D01*
X386000D01*
Y31500D01*
D02*
G37*
G36*
X372500Y32083D02*
X371573Y31961D01*
X370708Y31603D01*
X369966Y31034D01*
X369397Y30292D01*
X369039Y29427D01*
X368917Y28500D01*
X369039Y27573D01*
X369397Y26708D01*
X369966Y25966D01*
X370708Y25397D01*
X371573Y25039D01*
X372500Y24917D01*
X373427Y25039D01*
X374292Y25397D01*
X375034Y25966D01*
X375603Y26708D01*
X375961Y27573D01*
X376083Y28500D01*
X375961Y29427D01*
X375603Y30292D01*
X375034Y31034D01*
X374292Y31603D01*
X373427Y31961D01*
X372500Y32083D01*
D02*
G37*
G36*
X390453Y31500D02*
X387000D01*
Y28047D01*
X390453D01*
Y31500D01*
D02*
G37*
G36*
X386000Y35953D02*
X382547D01*
Y32500D01*
X386000D01*
Y35953D01*
D02*
G37*
G36*
X306453Y32453D02*
X303000D01*
Y29000D01*
X306453D01*
Y32453D01*
D02*
G37*
G36*
X362500Y32083D02*
X361573Y31961D01*
X360708Y31603D01*
X359966Y31034D01*
X359397Y30292D01*
X359039Y29427D01*
X358917Y28500D01*
X359039Y27573D01*
X359397Y26708D01*
X359966Y25966D01*
X360708Y25397D01*
X361573Y25039D01*
X362500Y24917D01*
X363427Y25039D01*
X364292Y25397D01*
X365034Y25966D01*
X365603Y26708D01*
X365961Y27573D01*
X366083Y28500D01*
X365961Y29427D01*
X365603Y30292D01*
X365034Y31034D01*
X364292Y31603D01*
X363427Y31961D01*
X362500Y32083D01*
D02*
G37*
G36*
X245721Y27700D02*
X242300D01*
Y24279D01*
X242832Y24349D01*
X243793Y24747D01*
X244619Y25381D01*
X245253Y26207D01*
X245651Y27168D01*
X245721Y27700D01*
D02*
G37*
G36*
X241300D02*
X237879D01*
X237949Y27168D01*
X238347Y26207D01*
X238981Y25381D01*
X239807Y24747D01*
X240768Y24349D01*
X241300Y24279D01*
Y27700D01*
D02*
G37*
G36*
X302000Y28000D02*
X298547D01*
Y24547D01*
X302000D01*
Y28000D01*
D02*
G37*
G36*
X352500Y32083D02*
X351573Y31961D01*
X350708Y31603D01*
X349966Y31034D01*
X349397Y30292D01*
X349039Y29427D01*
X348917Y28500D01*
X349039Y27573D01*
X349397Y26708D01*
X349966Y25966D01*
X350708Y25397D01*
X351573Y25039D01*
X352500Y24917D01*
X353427Y25039D01*
X354292Y25397D01*
X355034Y25966D01*
X355603Y26708D01*
X355961Y27573D01*
X356083Y28500D01*
X355961Y29427D01*
X355603Y30292D01*
X355034Y31034D01*
X354292Y31603D01*
X353427Y31961D01*
X352500Y32083D01*
D02*
G37*
G36*
X306453Y28000D02*
X303000D01*
Y24547D01*
X306453D01*
Y28000D01*
D02*
G37*
G36*
X134709Y45699D02*
X133730Y45570D01*
X132818Y45193D01*
X132034Y44592D01*
X131433Y43808D01*
X131056Y42896D01*
X130927Y41917D01*
X131056Y40938D01*
X131433Y40026D01*
X132034Y39243D01*
X132818Y38642D01*
X133730Y38264D01*
X134709Y38135D01*
X135687Y38264D01*
X136600Y38642D01*
X137383Y39243D01*
X137984Y40026D01*
X138362Y40938D01*
X138491Y41917D01*
X138362Y42896D01*
X137984Y43808D01*
X137383Y44592D01*
X136600Y45193D01*
X135687Y45570D01*
X134709Y45699D01*
D02*
G37*
G36*
X154000Y53026D02*
X152532Y52881D01*
X151120Y52453D01*
X149819Y51758D01*
X148678Y50822D01*
X147742Y49681D01*
X147047Y48380D01*
X146619Y46968D01*
X146474Y45500D01*
X146619Y44032D01*
X147047Y42620D01*
X147742Y41319D01*
X148678Y40178D01*
X149819Y39242D01*
X151120Y38547D01*
X152532Y38119D01*
X154000Y37974D01*
X155468Y38119D01*
X156880Y38547D01*
X158181Y39242D01*
X159322Y40178D01*
X160258Y41319D01*
X160953Y42620D01*
X161381Y44032D01*
X161526Y45500D01*
X161381Y46968D01*
X160953Y48380D01*
X160258Y49681D01*
X159322Y50822D01*
X158181Y51758D01*
X156880Y52453D01*
X155468Y52881D01*
X154000Y53026D01*
D02*
G37*
G36*
X368728Y40441D02*
X365374D01*
Y38760D01*
X368728D01*
Y40441D01*
D02*
G37*
G36*
X300972Y41425D02*
X298700D01*
Y39547D01*
X300972D01*
Y41425D01*
D02*
G37*
G36*
X291100D02*
X288828D01*
Y39547D01*
X291100D01*
Y41425D01*
D02*
G37*
G36*
X356500Y38547D02*
X354228D01*
Y36669D01*
X356500D01*
Y38547D01*
D02*
G37*
G36*
X166008Y42481D02*
X164721Y42312D01*
X163521Y41815D01*
X162491Y41025D01*
X161701Y39994D01*
X161204Y38795D01*
X161035Y37508D01*
X161204Y36221D01*
X161701Y35021D01*
X162491Y33991D01*
X163521Y33201D01*
X164721Y32704D01*
X166008Y32535D01*
X167295Y32704D01*
X168494Y33201D01*
X169525Y33991D01*
X170315Y35021D01*
X170812Y36221D01*
X170981Y37508D01*
X170812Y38795D01*
X170315Y39994D01*
X169525Y41025D01*
X168494Y41815D01*
X167295Y42312D01*
X166008Y42481D01*
D02*
G37*
G36*
X390453Y35953D02*
X387000D01*
Y32500D01*
X390453D01*
Y35953D01*
D02*
G37*
G36*
X359772Y41425D02*
X357500D01*
Y39047D01*
Y36669D01*
X359772D01*
Y37926D01*
X361020D01*
Y36079D01*
X364374D01*
Y38260D01*
Y40441D01*
X361020D01*
Y40169D01*
X359772D01*
Y41425D01*
D02*
G37*
G36*
X291100Y38547D02*
X288828D01*
Y36669D01*
X291100D01*
Y38547D01*
D02*
G37*
G36*
X368728Y37760D02*
X365374D01*
Y36079D01*
X368728D01*
Y37760D01*
D02*
G37*
G36*
X180000Y170083D02*
X179073Y169961D01*
X178208Y169603D01*
X177466Y169034D01*
X176897Y168292D01*
X176539Y167427D01*
X176417Y166500D01*
X176539Y165573D01*
X176897Y164708D01*
X177466Y163966D01*
X178208Y163397D01*
X179073Y163039D01*
X180000Y162917D01*
X180927Y163039D01*
X181792Y163397D01*
X182534Y163966D01*
X183103Y164708D01*
X183461Y165573D01*
X183583Y166500D01*
X183461Y167427D01*
X183103Y168292D01*
X182534Y169034D01*
X181792Y169603D01*
X180927Y169961D01*
X180000Y170083D01*
D02*
G37*
G36*
X274950Y112000D02*
X273000D01*
Y110050D01*
X273476Y110145D01*
X274302Y110698D01*
X274855Y111524D01*
X274950Y112000D01*
D02*
G37*
G36*
X272000D02*
X270051D01*
X270145Y111524D01*
X270698Y110698D01*
X271525Y110145D01*
X272000Y110050D01*
Y112000D01*
D02*
G37*
G36*
Y114950D02*
X271525Y114855D01*
X270698Y114302D01*
X270145Y113476D01*
X270051Y113000D01*
X272000D01*
Y114950D01*
D02*
G37*
G36*
X374472Y153500D02*
X369993D01*
Y150063D01*
X370163Y148774D01*
X370660Y147573D01*
X371451Y146542D01*
X372483Y145750D01*
X373684Y145253D01*
X374472Y145149D01*
Y153500D01*
D02*
G37*
G36*
X305500Y116921D02*
Y113500D01*
X308921D01*
X308851Y114032D01*
X308453Y114993D01*
X307819Y115819D01*
X306993Y116453D01*
X306032Y116851D01*
X305500Y116921D01*
D02*
G37*
G36*
X166008Y103465D02*
X164721Y103296D01*
X163521Y102799D01*
X162491Y102009D01*
X161701Y100979D01*
X161204Y99779D01*
X161035Y98492D01*
X161204Y97205D01*
X161701Y96005D01*
X162491Y94976D01*
X163521Y94185D01*
X164721Y93688D01*
X166008Y93519D01*
X167295Y93688D01*
X168494Y94185D01*
X169525Y94976D01*
X170315Y96005D01*
X170812Y97205D01*
X170981Y98492D01*
X170812Y99779D01*
X170315Y100979D01*
X169525Y102009D01*
X168494Y102799D01*
X167295Y103296D01*
X166008Y103465D01*
D02*
G37*
G36*
X345772Y92988D02*
X343500D01*
Y90913D01*
X345772D01*
Y92988D01*
D02*
G37*
G36*
Y96063D02*
X343500D01*
Y93988D01*
X345772D01*
Y96063D01*
D02*
G37*
G36*
X387842Y112744D02*
X384587D01*
Y99055D01*
X387842D01*
Y112744D01*
D02*
G37*
G36*
X309100Y155453D02*
X306828D01*
Y153575D01*
X309100D01*
Y155453D01*
D02*
G37*
G36*
X311972Y152025D02*
X307228D01*
Y148069D01*
X308478D01*
Y147023D01*
X307425D01*
Y142673D01*
X311775D01*
Y147023D01*
X310722D01*
Y148069D01*
X311972D01*
Y152025D01*
D02*
G37*
G36*
X372012Y133815D02*
X363661D01*
Y129335D01*
X367098D01*
X368387Y129505D01*
X369588Y130002D01*
X370620Y130794D01*
X371411Y131825D01*
X371908Y133026D01*
X372012Y133815D01*
D02*
G37*
G36*
X362661D02*
X354311D01*
X354415Y133026D01*
X354912Y131825D01*
X355703Y130794D01*
X356735Y130002D01*
X357936Y129505D01*
X359224Y129335D01*
X362661D01*
Y133815D01*
D02*
G37*
G36*
X134000Y145000D02*
X130579D01*
X130649Y144468D01*
X131047Y143507D01*
X131681Y142681D01*
X132507Y142047D01*
X133468Y141649D01*
X134000Y141579D01*
Y145000D01*
D02*
G37*
G36*
X367098Y139295D02*
X363661D01*
Y134815D01*
X372012D01*
X371908Y135604D01*
X371411Y136805D01*
X370620Y137836D01*
X369588Y138627D01*
X368387Y139125D01*
X367098Y139295D01*
D02*
G37*
G36*
X362661D02*
X359224D01*
X357936Y139125D01*
X356735Y138627D01*
X355703Y137836D01*
X354912Y136805D01*
X354415Y135604D01*
X354311Y134815D01*
X362661D01*
Y139295D01*
D02*
G37*
G36*
X241000Y127500D02*
X239051D01*
X239145Y127024D01*
X239698Y126198D01*
X240525Y125645D01*
X241000Y125550D01*
Y127500D01*
D02*
G37*
G36*
X138421Y145000D02*
X135000D01*
Y141579D01*
X135532Y141649D01*
X136493Y142047D01*
X137319Y142681D01*
X137953Y143507D01*
X138351Y144468D01*
X138421Y145000D01*
D02*
G37*
G36*
X243950Y127500D02*
X242000D01*
Y125550D01*
X242476Y125645D01*
X243302Y126198D01*
X243855Y127024D01*
X243950Y127500D01*
D02*
G37*
G36*
X242000Y130449D02*
Y128500D01*
X243950D01*
X243855Y128975D01*
X243302Y129802D01*
X242476Y130355D01*
X242000Y130449D01*
D02*
G37*
G36*
X237618Y134256D02*
X234953D01*
Y130500D01*
Y126744D01*
X237618D01*
Y129378D01*
X238535D01*
X239111Y128803D01*
X239051Y128500D01*
X241000D01*
Y130449D01*
X240697Y130389D01*
X239793Y131293D01*
X239429Y131536D01*
X239000Y131622D01*
X239000Y131622D01*
X237618D01*
Y134256D01*
D02*
G37*
G36*
X134709Y97865D02*
X133730Y97736D01*
X132818Y97358D01*
X132034Y96757D01*
X131433Y95974D01*
X131056Y95061D01*
X130927Y94083D01*
X131056Y93104D01*
X131433Y92192D01*
X132034Y91408D01*
X132818Y90807D01*
X133730Y90430D01*
X134709Y90301D01*
X135687Y90430D01*
X136600Y90807D01*
X137383Y91408D01*
X137984Y92192D01*
X138362Y93104D01*
X138491Y94083D01*
X138362Y95061D01*
X137984Y95974D01*
X137383Y96757D01*
X136600Y97358D01*
X135687Y97736D01*
X134709Y97865D01*
D02*
G37*
G36*
X343728Y70441D02*
X340374D01*
Y68760D01*
X343728D01*
Y70441D01*
D02*
G37*
G36*
X309700Y163250D02*
X309225Y163155D01*
X308398Y162602D01*
X307845Y161776D01*
X307751Y161300D01*
X309700D01*
Y163250D01*
D02*
G37*
G36*
X331000Y71425D02*
X328728D01*
Y69547D01*
X331000D01*
Y71425D01*
D02*
G37*
G36*
X327600Y80141D02*
X326781Y79978D01*
X326086Y79514D01*
X325622Y78819D01*
X325459Y78000D01*
X325622Y77181D01*
X326086Y76486D01*
X326781Y76022D01*
X327600Y75859D01*
X328063Y75951D01*
X329128Y74885D01*
Y72975D01*
X333872D01*
Y73831D01*
X339087D01*
X339087Y73831D01*
X339516Y73917D01*
X339579Y73959D01*
X343328D01*
Y77521D01*
X336420D01*
Y76074D01*
X333872D01*
Y76931D01*
X330255D01*
X329649Y77537D01*
X329741Y78000D01*
X329578Y78819D01*
X329114Y79514D01*
X328419Y79978D01*
X327600Y80141D01*
D02*
G37*
G36*
X386500Y75583D02*
X385573Y75461D01*
X384708Y75103D01*
X383966Y74534D01*
X383397Y73792D01*
X383119Y73122D01*
X352580D01*
Y73781D01*
X345672D01*
Y70219D01*
X352580D01*
Y70878D01*
X355199D01*
X355435Y70438D01*
X355022Y69819D01*
X354859Y69000D01*
X355022Y68181D01*
X355486Y67486D01*
X355601Y67409D01*
X355456Y66931D01*
X354628D01*
Y62975D01*
X359372D01*
Y63831D01*
X364087D01*
X364516Y63917D01*
X364579Y63959D01*
X368328D01*
Y67521D01*
X361420D01*
Y66074D01*
X359372D01*
Y66931D01*
X358544D01*
X358399Y67409D01*
X358514Y67486D01*
X358978Y68181D01*
X359141Y69000D01*
X358978Y69819D01*
X358565Y70438D01*
X358801Y70878D01*
X383119D01*
X383397Y70208D01*
X383966Y69466D01*
X384708Y68897D01*
X385573Y68539D01*
X386500Y68417D01*
X387427Y68539D01*
X388292Y68897D01*
X389034Y69466D01*
X389603Y70208D01*
X389961Y71073D01*
X390083Y72000D01*
X389961Y72927D01*
X389603Y73792D01*
X389034Y74534D01*
X388292Y75103D01*
X387427Y75461D01*
X386500Y75583D01*
D02*
G37*
G36*
Y65583D02*
X385573Y65461D01*
X384708Y65103D01*
X383966Y64534D01*
X383397Y63792D01*
X383119Y63122D01*
X377580D01*
Y63781D01*
X370672D01*
Y60219D01*
X377580D01*
Y60878D01*
X383119D01*
X383397Y60208D01*
X383966Y59466D01*
X384708Y58897D01*
X385573Y58539D01*
X386500Y58417D01*
X387427Y58539D01*
X388292Y58897D01*
X389034Y59466D01*
X389603Y60208D01*
X389961Y61073D01*
X390083Y62000D01*
X389961Y62927D01*
X389603Y63792D01*
X389034Y64534D01*
X388292Y65103D01*
X387427Y65461D01*
X386500Y65583D01*
D02*
G37*
G36*
X194000Y69048D02*
X193073Y68926D01*
X192208Y68568D01*
X191466Y67998D01*
X190897Y67256D01*
X190539Y66392D01*
X190417Y65465D01*
X190539Y64537D01*
X190897Y63673D01*
X191466Y62931D01*
X192208Y62361D01*
X193073Y62003D01*
X194000Y61881D01*
X194927Y62003D01*
X195792Y62361D01*
X196534Y62931D01*
X197103Y63673D01*
X197461Y64537D01*
X197583Y65465D01*
X197461Y66392D01*
X197103Y67256D01*
X196534Y67998D01*
X195792Y68568D01*
X194927Y68926D01*
X194000Y69048D01*
D02*
G37*
G36*
X310700Y163250D02*
Y161300D01*
X312649D01*
X312555Y161776D01*
X312002Y162602D01*
X311175Y163155D01*
X310700Y163250D01*
D02*
G37*
G36*
X343728Y67760D02*
X340374D01*
Y66079D01*
X343728D01*
Y67760D01*
D02*
G37*
G36*
X334272Y71425D02*
X332000D01*
Y69047D01*
Y66669D01*
X334272D01*
Y67926D01*
X336020D01*
Y66079D01*
X339374D01*
Y68260D01*
Y70441D01*
X336020D01*
Y70169D01*
X334272D01*
Y71425D01*
D02*
G37*
G36*
X134709Y87865D02*
X133730Y87736D01*
X132818Y87358D01*
X132034Y86757D01*
X131433Y85974D01*
X131056Y85062D01*
X130927Y84083D01*
X131056Y83104D01*
X131433Y82192D01*
X132034Y81408D01*
X132818Y80807D01*
X133587Y80489D01*
Y78872D01*
X133069D01*
Y74128D01*
X137025D01*
Y78872D01*
X135830D01*
Y80489D01*
X136600Y80807D01*
X137383Y81408D01*
X137984Y82192D01*
X138362Y83104D01*
X138491Y84083D01*
X138362Y85062D01*
X137984Y85974D01*
X137383Y86757D01*
X136600Y87358D01*
X135687Y87736D01*
X134709Y87865D01*
D02*
G37*
G36*
X154000Y98026D02*
X152532Y97881D01*
X151120Y97453D01*
X149819Y96758D01*
X148678Y95822D01*
X147742Y94681D01*
X147047Y93380D01*
X146619Y91968D01*
X146474Y90500D01*
X146619Y89032D01*
X147047Y87620D01*
X147742Y86319D01*
X148678Y85178D01*
X149819Y84242D01*
X151120Y83547D01*
X152532Y83119D01*
X154000Y82974D01*
X155468Y83119D01*
X156880Y83547D01*
X158181Y84242D01*
X159322Y85178D01*
X160258Y86319D01*
X160953Y87620D01*
X161381Y89032D01*
X161526Y90500D01*
X161381Y91968D01*
X160953Y93380D01*
X160258Y94681D01*
X159322Y95822D01*
X158181Y96758D01*
X156880Y97453D01*
X155468Y97881D01*
X154000Y98026D01*
D02*
G37*
G36*
X375472Y162851D02*
Y154500D01*
X379952D01*
Y157937D01*
X379782Y159226D01*
X379285Y160427D01*
X378494Y161458D01*
X377462Y162250D01*
X376261Y162747D01*
X375472Y162851D01*
D02*
G37*
G36*
X374472D02*
X373684Y162747D01*
X372483Y162250D01*
X371451Y161458D01*
X370660Y160427D01*
X370163Y159226D01*
X369993Y157937D01*
Y154500D01*
X374472D01*
Y162851D01*
D02*
G37*
G36*
X312372Y155453D02*
X310100D01*
Y153575D01*
X312372D01*
Y155453D01*
D02*
G37*
G36*
X194500Y89386D02*
Y85965D01*
X197921D01*
X197851Y86496D01*
X197453Y87458D01*
X196819Y88284D01*
X195993Y88917D01*
X195032Y89316D01*
X194500Y89386D01*
D02*
G37*
G36*
X235000Y78949D02*
X234524Y78855D01*
X233698Y78302D01*
X233145Y77476D01*
X233050Y77000D01*
X235000D01*
Y78949D01*
D02*
G37*
G36*
X140453Y79272D02*
X138575D01*
Y77000D01*
X140453D01*
Y79272D01*
D02*
G37*
G36*
X236000Y78949D02*
Y77000D01*
X237949D01*
X237855Y77476D01*
X237302Y78302D01*
X236475Y78855D01*
X236000Y78949D01*
D02*
G37*
G36*
X312649Y160300D02*
X307751D01*
X307845Y159825D01*
X308398Y158998D01*
X308478Y158944D01*
Y158331D01*
X306828D01*
Y156453D01*
X312372D01*
Y158331D01*
X311865D01*
X311720Y158809D01*
X312002Y158998D01*
X312555Y159825D01*
X312649Y160300D01*
D02*
G37*
G36*
X350563Y163497D02*
X349379Y163341D01*
X348275Y162884D01*
X347327Y162157D01*
X346600Y161209D01*
X346143Y160106D01*
X345987Y158921D01*
Y149079D01*
X346143Y147894D01*
X346600Y146791D01*
X347327Y145843D01*
X347436Y145759D01*
Y119539D01*
X347436Y119539D01*
X347490Y119135D01*
X347543Y118730D01*
X347731Y118276D01*
Y112117D01*
X353564D01*
X354647Y111033D01*
X354647Y111033D01*
X355295Y110536D01*
X356049Y110224D01*
X356858Y110117D01*
X365302D01*
Y99455D01*
X367103D01*
X367139Y99276D01*
X367150Y99218D01*
X367504Y98689D01*
X383105Y83088D01*
X383039Y82927D01*
X382917Y82000D01*
X383039Y81073D01*
X383397Y80208D01*
X383966Y79466D01*
X384708Y78897D01*
X385573Y78539D01*
X386500Y78417D01*
X387427Y78539D01*
X388292Y78897D01*
X389034Y79466D01*
X389603Y80208D01*
X389961Y81073D01*
X390083Y82000D01*
X389961Y82927D01*
X389603Y83792D01*
X389034Y84534D01*
X388292Y85103D01*
X387427Y85461D01*
X386500Y85583D01*
X385573Y85461D01*
X385412Y85395D01*
X371814Y98993D01*
X372005Y99455D01*
X372013D01*
Y127033D01*
X365302D01*
Y116371D01*
X358153D01*
X357986Y116538D01*
Y122372D01*
X353690D01*
Y145759D01*
X353799Y145843D01*
X354526Y146791D01*
X354983Y147894D01*
X355139Y149079D01*
Y158921D01*
X354983Y160106D01*
X354526Y161209D01*
X353799Y162157D01*
X352851Y162884D01*
X351747Y163341D01*
X350563Y163497D01*
D02*
G37*
%LPD*%
D10*
X354000Y96248D02*
D03*
Y89752D02*
D03*
X309600Y138352D02*
D03*
Y144848D02*
D03*
X298200Y56048D02*
D03*
Y49552D02*
D03*
X291600Y56048D02*
D03*
Y49552D02*
D03*
D11*
X309600Y155953D02*
D03*
Y150047D02*
D03*
X298200Y39047D02*
D03*
Y44953D02*
D03*
X291600Y39047D02*
D03*
Y44953D02*
D03*
X296453Y117874D02*
D03*
Y123779D02*
D03*
X265500Y64374D02*
D03*
Y70280D02*
D03*
X259500Y70280D02*
D03*
Y64374D02*
D03*
X200500Y81453D02*
D03*
Y75547D02*
D03*
X175500Y66453D02*
D03*
Y60547D02*
D03*
X184000Y38047D02*
D03*
Y43953D02*
D03*
X191000Y38047D02*
D03*
Y43953D02*
D03*
X337500Y90291D02*
D03*
Y96197D02*
D03*
X357000Y39047D02*
D03*
Y44953D02*
D03*
X331500Y49047D02*
D03*
Y54953D02*
D03*
X357000Y59047D02*
D03*
Y64953D02*
D03*
X331500Y69047D02*
D03*
Y74953D02*
D03*
D12*
X228500Y110827D02*
D03*
Y89173D02*
D03*
D13*
X228547Y130500D02*
D03*
X234453D02*
D03*
X228547Y70000D02*
D03*
X234453D02*
D03*
X184047Y32000D02*
D03*
X189953D02*
D03*
X298047Y102327D02*
D03*
X303953D02*
D03*
D14*
X175500Y73547D02*
D03*
Y79453D02*
D03*
D15*
X135047Y59000D02*
D03*
X140953D02*
D03*
X135047Y76500D02*
D03*
X140953D02*
D03*
X325547Y86744D02*
D03*
X331453D02*
D03*
D16*
X288803Y92335D02*
D03*
Y88398D02*
D03*
Y90366D02*
D03*
Y94303D02*
D03*
Y84461D02*
D03*
Y86429D02*
D03*
Y96272D02*
D03*
Y98240D02*
D03*
Y100209D02*
D03*
Y102177D02*
D03*
Y104146D02*
D03*
Y106114D02*
D03*
Y108083D02*
D03*
Y110051D02*
D03*
Y112020D02*
D03*
Y113988D02*
D03*
X245102D02*
D03*
Y112020D02*
D03*
Y110051D02*
D03*
Y108083D02*
D03*
Y106114D02*
D03*
Y104146D02*
D03*
Y102177D02*
D03*
Y100209D02*
D03*
Y98240D02*
D03*
Y96272D02*
D03*
Y94303D02*
D03*
Y92335D02*
D03*
Y90366D02*
D03*
Y88398D02*
D03*
Y86429D02*
D03*
Y84461D02*
D03*
D17*
X281716Y121075D02*
D03*
X279748D02*
D03*
X277780D02*
D03*
X275811D02*
D03*
X273843D02*
D03*
X271874D02*
D03*
X269905D02*
D03*
X267937D02*
D03*
X265968D02*
D03*
X264000D02*
D03*
X262032D02*
D03*
X260063D02*
D03*
X258095D02*
D03*
X256126D02*
D03*
X254157D02*
D03*
X252189D02*
D03*
Y77374D02*
D03*
X258095D02*
D03*
X260063D02*
D03*
X262032D02*
D03*
X264000D02*
D03*
X265968D02*
D03*
X267937D02*
D03*
X269905D02*
D03*
X271874D02*
D03*
X273843D02*
D03*
X275811D02*
D03*
X277780D02*
D03*
X279748D02*
D03*
X281716D02*
D03*
X254157D02*
D03*
X256126D02*
D03*
D18*
X388342Y113244D02*
D03*
X368657D02*
D03*
D19*
X343000Y93488D02*
D03*
Y99000D02*
D03*
X315000Y93488D02*
D03*
Y99000D02*
D03*
D20*
X335142Y117244D02*
D03*
X352858D02*
D03*
D21*
X327500Y99500D02*
D03*
D22*
X331437Y93398D02*
D03*
X329468D02*
D03*
X327500D02*
D03*
X325532D02*
D03*
X323563D02*
D03*
Y105602D02*
D03*
X325532D02*
D03*
X327500D02*
D03*
X329468D02*
D03*
X331437D02*
D03*
D23*
X364874Y45740D02*
D03*
Y38260D02*
D03*
X374126Y42000D02*
D03*
X339874Y55740D02*
D03*
Y48260D02*
D03*
X349126Y52000D02*
D03*
X364874Y65740D02*
D03*
Y58260D02*
D03*
X374126Y62000D02*
D03*
X339874Y75740D02*
D03*
Y68260D02*
D03*
X349126Y72000D02*
D03*
D24*
X258361Y50353D02*
D03*
Y48384D02*
D03*
Y46416D02*
D03*
Y44447D02*
D03*
X266039D02*
D03*
Y46416D02*
D03*
Y48384D02*
D03*
Y50353D02*
D03*
D25*
X262200Y47400D02*
D03*
D26*
X264956Y57600D02*
D03*
X259444D02*
D03*
D27*
X342988Y98756D02*
X351492D01*
X354000Y96248D01*
Y87839D02*
Y89752D01*
X352906Y86744D02*
X354000Y87839D01*
X309600Y160200D02*
X310200Y160800D01*
X309600Y155953D02*
Y160200D01*
X309600Y144848D02*
X309600Y144848D01*
Y150047D01*
X298200Y56048D02*
Y60000D01*
X298200Y32800D02*
X302500Y28500D01*
X298200Y32800D02*
Y39047D01*
X291600D02*
X298200D01*
Y44953D02*
X298200Y44953D01*
Y49552D01*
X291600Y44953D02*
Y49552D01*
X290100Y59700D02*
X291600Y58200D01*
Y56048D02*
Y58200D01*
X282686Y106114D02*
X288803D01*
X281400Y107400D02*
X282686Y106114D01*
X283546Y104146D02*
X288803D01*
X282000Y102600D02*
X283546Y104146D01*
X281728Y96272D02*
X288803D01*
X278400Y99600D02*
X281728Y96272D01*
X278400Y99600D02*
Y109274D01*
X287000Y117874D01*
X142800Y144600D02*
X147000Y148800D01*
X142800Y126000D02*
Y144600D01*
X137300Y120500D02*
X142800Y126000D01*
X147000Y148800D02*
X189000D01*
X140153Y133553D02*
Y144953D01*
X134500Y127900D02*
X140153Y133553D01*
Y144953D02*
X146400Y151200D01*
X190554D01*
X189000Y148800D02*
X200800Y137000D01*
X162600Y153000D02*
X163800Y154200D01*
X145200Y153000D02*
X162600D01*
X163800Y154200D02*
X192000D01*
X131000Y120500D02*
X137300D01*
X240600Y139800D02*
X249500Y130900D01*
X201954Y139800D02*
X240600D01*
X190554Y151200D02*
X201954Y139800D01*
X200800Y137000D02*
X239200D01*
X134500Y125500D02*
Y127900D01*
X192000Y154200D02*
X204000Y142200D01*
X242800D01*
X251800Y133200D01*
X206000Y145000D02*
X244400D01*
X193525Y157475D02*
X206000Y145000D01*
X176125Y157475D02*
X193525D01*
X160000Y166500D02*
X165375Y161125D01*
X172475D01*
X176125Y157475D01*
X299477Y112200D02*
X303077Y108600D01*
X288983Y112200D02*
X299477D01*
X311000Y95244D02*
Y107277D01*
X305277Y113000D02*
X311000Y107277D01*
X305000Y113000D02*
X305277D01*
X296400Y110600D02*
X298400Y108600D01*
X292923Y110600D02*
X296400D01*
X303077Y108600D02*
X304800D01*
X306000Y107400D01*
X288803Y112020D02*
X288983Y112200D01*
X292423Y110100D02*
X292923Y110600D01*
X288852Y110100D02*
X292423D01*
X298400Y108600D02*
X299400D01*
X298988Y113988D02*
X301500Y116500D01*
X288803Y113988D02*
X298988D01*
X290280Y123779D02*
X296453D01*
X295500Y97827D02*
X302000D01*
X293118Y100209D02*
X295500Y97827D01*
X288803Y100209D02*
X293118D01*
X288803Y92335D02*
X298236D01*
X288953Y102327D02*
X298047D01*
X296669Y90366D02*
X325000Y62036D01*
X288803Y90366D02*
X296669D01*
X295102Y88398D02*
X319000Y64500D01*
X288803Y88398D02*
X295102D01*
X298236Y92335D02*
X328000Y62571D01*
X287500Y76000D02*
X287700Y76200D01*
X237600Y85600D02*
X238000Y86000D01*
X244400Y145000D02*
X258095Y131306D01*
Y121075D02*
Y131306D01*
X249500Y118000D02*
Y130900D01*
X247500Y117500D02*
Y128700D01*
X239200Y137000D02*
X247500Y128700D01*
X251000Y149000D02*
X261100Y138900D01*
Y130900D02*
Y138900D01*
X261000Y130800D02*
X261100Y130900D01*
X264000Y128940D02*
X267560Y132500D01*
X264000Y121075D02*
Y128940D01*
X265968Y128645D02*
X267823Y130500D01*
X265968Y121075D02*
Y128645D01*
X267560Y132500D02*
X275500D01*
X267823Y130500D02*
X274000D01*
X268800Y127700D02*
Y127800D01*
Y127700D02*
X269000Y127500D01*
X273000Y126600D02*
Y128000D01*
X275811Y121075D02*
Y128689D01*
X274000Y130500D02*
X275811Y128689D01*
X330309Y90291D02*
X337500D01*
X329468Y91132D02*
X330309Y90291D01*
X329468Y91132D02*
Y93398D01*
X288803Y110051D02*
X288852Y110100D01*
X262032Y74000D02*
Y77374D01*
Y74000D02*
X262600Y73431D01*
Y68400D02*
Y73431D01*
Y68400D02*
X263500Y67500D01*
X287500Y76000D02*
Y77000D01*
X272165Y92335D02*
X287500Y77000D01*
X245102Y92335D02*
X272165D01*
X285893Y81607D02*
X287893D01*
X273197Y94303D02*
X285893Y81607D01*
X245102Y94303D02*
X273197D01*
X251500Y107327D02*
Y113500D01*
X247500Y117500D02*
X251500Y113500D01*
X285500Y123000D02*
Y130000D01*
X280000Y135500D02*
X285500Y130000D01*
X268000Y135500D02*
X280000D01*
X328000Y33000D02*
Y62571D01*
Y33000D02*
X332500Y28500D01*
X325000Y31000D02*
Y62036D01*
X322500Y28500D02*
X325000Y31000D01*
X319000Y35000D02*
Y64500D01*
X312500Y28500D02*
X319000Y35000D01*
X344500Y30500D02*
Y58500D01*
X342500Y28500D02*
X344500Y30500D01*
X287893Y81607D02*
X290500Y79000D01*
X331000Y55453D02*
X331500Y54953D01*
X331000Y55453D02*
Y60500D01*
X356500Y45453D02*
X357000Y44953D01*
X356500Y45453D02*
Y49000D01*
X357000Y64953D02*
X364087D01*
X357000D02*
Y69000D01*
Y64500D02*
Y64953D01*
X330600Y75000D02*
X331453D01*
X293917Y108083D02*
X294000Y108000D01*
X288803Y108083D02*
X293917D01*
X301500Y116500D02*
Y118000D01*
X251723Y60047D02*
X256126Y64450D01*
X216047Y60047D02*
X251723D01*
X250500Y63000D02*
X254157Y66658D01*
X216094Y63000D02*
X250500D01*
X339087Y69047D02*
X339874Y68260D01*
X331500Y69047D02*
X339087D01*
Y74953D02*
X339874Y75740D01*
X331500Y74953D02*
X339087D01*
X349126Y52000D02*
X386500D01*
X339087Y54953D02*
X339874Y55740D01*
X331500Y54953D02*
X339087D01*
Y49047D02*
X339874Y48260D01*
X331500Y49047D02*
X339087D01*
X364087Y44953D02*
X364874Y45740D01*
X357000Y44953D02*
X364087D01*
Y39047D02*
X364874Y38260D01*
X357000Y39047D02*
X364087D01*
Y59047D02*
X364874Y58260D01*
X357000Y59047D02*
X364087D01*
X349126Y72000D02*
X386500D01*
X374126Y62000D02*
X386500D01*
X374126Y42000D02*
X386500D01*
X234453Y75453D02*
X235500Y76500D01*
X234453Y70000D02*
Y75453D01*
X252189Y72689D02*
Y77374D01*
X245000Y65500D02*
X252189Y72689D01*
X221500Y65500D02*
X245000D01*
X205547Y81453D02*
X221500Y65500D01*
X200500Y81453D02*
X205547D01*
X239000Y130500D02*
X241500Y128000D01*
X234453Y130500D02*
X239000D01*
X272500Y112500D02*
X275811Y115811D01*
Y121075D01*
X312756Y93488D02*
X315000D01*
X306339D02*
X312756D01*
X302000Y97827D02*
X306339Y93488D01*
X241134Y90366D02*
X245102D01*
Y81898D02*
X249626Y77374D01*
X264000Y121075D02*
X264000Y121075D01*
Y115000D02*
Y121075D01*
X249854Y104146D02*
X251000Y103000D01*
X245102Y104146D02*
X249854D01*
X258500Y135000D02*
Y137500D01*
X217500Y149000D02*
X251000D01*
X249000Y147000D02*
X258500Y137500D01*
X209500Y147000D02*
X249000D01*
X144500Y161000D02*
X150000Y166500D01*
X140000Y161000D02*
X144500D01*
X134500Y155500D02*
X140000Y161000D01*
X241590Y117500D02*
X245102Y113988D01*
X240000Y117500D02*
X241590D01*
X241480Y112020D02*
X245102D01*
X236500Y117000D02*
X241480Y112020D01*
X236500Y117000D02*
Y119500D01*
X245051Y110000D02*
X245102Y110051D01*
X237000Y110000D02*
X245051D01*
X239083Y108083D02*
X245102D01*
X237500Y106500D02*
X239083Y108083D01*
X258500Y153000D02*
X266500Y145000D01*
X220000Y166500D02*
X233500Y153000D01*
X258500D01*
X255000Y151000D02*
X263750Y142250D01*
X210000Y166500D02*
X225500Y151000D01*
X255000D01*
X200000Y166500D02*
X217500Y149000D01*
X190000Y166500D02*
X209500Y147000D01*
X269905Y124906D02*
X273000Y128000D01*
X269905Y121075D02*
Y124906D01*
X267937Y126437D02*
X269000Y127500D01*
X267937Y121075D02*
Y126437D01*
X275500Y132500D02*
X279748Y128252D01*
Y121075D02*
Y128252D01*
X245102Y106114D02*
X250287D01*
X251500Y107327D01*
X262032Y77374D02*
Y83969D01*
X252189Y77374D02*
Y83189D01*
X267937Y72563D02*
Y77374D01*
Y72563D02*
X269000Y71500D01*
Y68500D02*
Y71500D01*
X268000Y67500D02*
X269000Y68500D01*
X263500Y67500D02*
X268000D01*
X257500Y84500D02*
X258095Y83906D01*
Y77374D02*
Y83906D01*
X249626Y77374D02*
X252189D01*
X245102Y81898D02*
Y84461D01*
X186953Y41000D02*
X197000D01*
X184000Y43953D02*
X186953Y41000D01*
X184000Y43953D02*
Y50535D01*
Y43953D02*
X184000Y43953D01*
X194000Y48000D02*
Y55465D01*
X191000Y43953D02*
X197047D01*
X191000Y45000D02*
X194000Y48000D01*
X191000Y43953D02*
Y45000D01*
X256126Y64450D02*
Y77374D01*
X254157Y66658D02*
Y77374D01*
X197000Y41000D02*
X216047Y60047D01*
X197047Y43953D02*
X216094Y63000D01*
X281327Y114827D02*
X290280Y123779D01*
X279173Y114827D02*
X281327D01*
X277780Y116220D02*
X279173Y114827D01*
X277780Y116220D02*
Y121075D01*
X236500Y95000D02*
X239740Y98240D01*
X245102D01*
X239571Y88429D02*
X245102D01*
X239000Y89000D02*
X239571Y88429D01*
X235000Y89000D02*
X239000D01*
X240429Y86429D02*
X245102D01*
X240000Y86000D02*
X240429Y86429D01*
X238000Y86000D02*
X240000D01*
X194083Y75547D02*
X200500D01*
X194000Y75465D02*
X194083Y75547D01*
X183988Y60547D02*
X184000Y60535D01*
X175500Y60547D02*
X183988D01*
X228500Y130453D02*
X228547Y130500D01*
X228500Y110827D02*
Y130453D01*
Y70047D02*
X228547Y70000D01*
X228500Y70047D02*
Y89173D01*
X237209Y100209D02*
X245102D01*
X228500Y91500D02*
X237209Y100209D01*
X228500Y89173D02*
Y91500D01*
X237118Y102209D02*
X245102D01*
X228500Y110827D02*
X237118Y102209D01*
X129500Y160500D02*
X134500Y165500D01*
X129500Y153100D02*
Y160500D01*
Y130500D02*
X134500Y135500D01*
X129500Y122000D02*
Y130500D01*
Y122000D02*
X131000Y120500D01*
X290000Y117874D02*
X296453D01*
X287000D02*
X290000D01*
X245102Y96272D02*
X252445D01*
X340000Y101744D02*
X342988Y98756D01*
X337500Y90291D02*
X339803D01*
X343000Y93488D01*
X325532Y86760D02*
Y93398D01*
Y86760D02*
X325547Y86744D01*
X331453D02*
X352906D01*
X327500Y82744D02*
X328500Y83744D01*
X323000Y82744D02*
X327500D01*
X319500Y86244D02*
X323000Y82744D01*
X319500Y86244D02*
Y91744D01*
X317756Y93488D02*
X319500Y91744D01*
X315000Y93488D02*
X317756D01*
X328500Y93398D02*
X329468D01*
X311000Y95244D02*
X312756Y93488D01*
X164453Y79453D02*
X173453D01*
X189953Y27953D02*
Y32000D01*
X188000Y26000D02*
X189953Y27953D01*
X180500Y26000D02*
X188000D01*
X177500Y29000D02*
X180500Y26000D01*
X177500Y29000D02*
Y40500D01*
X168000Y50000D02*
X177500Y40500D01*
X173453Y79453D02*
X175500D01*
X161500Y76500D02*
X164453Y79453D01*
X140953Y76500D02*
X161500D01*
X140953Y59000D02*
Y76500D01*
X134709Y51917D02*
X135047Y52256D01*
Y59000D01*
X184000Y80535D02*
X188929Y85465D01*
X182917Y79453D02*
X184000Y80535D01*
X188929Y85465D02*
X194000D01*
X175500Y79453D02*
X182917D01*
X188000Y78000D02*
X190500Y80500D01*
X197000D01*
X197953Y81453D01*
X200500D01*
X188000Y74535D02*
Y78000D01*
X184000Y70535D02*
X188000Y74535D01*
X180988Y73547D02*
X184000Y70535D01*
X175500Y73547D02*
X180988D01*
X175500Y66453D02*
Y73547D01*
X184000Y38047D02*
X191000D01*
X184000Y32047D02*
X184047Y32000D01*
X184000Y32047D02*
Y38047D01*
X296453Y117874D02*
X296500D01*
X277780Y121075D02*
X279748D01*
X260000Y64374D02*
X265500D01*
X260000Y64374D02*
X260000Y64374D01*
X260000Y70280D02*
Y77311D01*
X260063Y77374D01*
X265500Y70280D02*
Y76906D01*
X265968Y77374D01*
X264000D02*
X265968D01*
X288803Y102177D02*
X288953Y102327D01*
X302000Y97827D02*
X303953Y99779D01*
Y102327D01*
X288803Y94303D02*
X300003D01*
X330106Y64200D01*
X338800D01*
X344500Y58500D01*
X150000Y166000D02*
X159600Y156400D01*
X150000Y166000D02*
Y166500D01*
X129500Y153100D02*
X132000Y150600D01*
X142800D01*
X145200Y153000D01*
X168000Y50000D02*
Y74000D01*
X173453Y79453D01*
X236500Y95000D02*
X241134Y90366D01*
X328500Y83744D02*
Y93398D01*
X241800Y28200D02*
Y39600D01*
X246647Y44447D01*
X258361D01*
X231800Y28200D02*
Y41000D01*
X237216Y46416D01*
X258361D01*
X266039Y48384D02*
X268200D01*
X281716Y61901D02*
Y77374D01*
X294000Y76800D02*
Y82800D01*
X292339Y84461D02*
X294000Y82800D01*
X288803Y84461D02*
X292339D01*
X296400Y74400D02*
Y84000D01*
X293971Y86429D02*
X296400Y84000D01*
X288803Y86429D02*
X293971D01*
X268200Y48384D02*
X281716Y61901D01*
X211800Y28200D02*
Y38400D01*
X223753Y50353D01*
X258361D01*
X221800Y28200D02*
Y38200D01*
X231984Y48384D01*
X258361D01*
X266039Y44447D02*
X273647D01*
X266039Y46416D02*
X270816D01*
X266039Y50353D02*
Y53039D01*
X264956Y54121D02*
Y57600D01*
Y54121D02*
X266039Y53039D01*
X273647Y44447D02*
X286800Y57600D01*
Y64800D01*
X296400Y74400D01*
X270816Y46416D02*
X284400Y60000D01*
Y67200D01*
X294000Y76800D01*
X282600Y126600D02*
Y129000D01*
X281716Y125716D02*
X282600Y126600D01*
X281716Y121075D02*
Y125716D01*
X252445Y96272D02*
X254400Y98227D01*
Y113100D01*
X249500Y118000D02*
X254400Y113100D01*
X252189Y83189D02*
X256600Y87600D01*
X258400D01*
X262032Y83969D01*
X327600Y78000D02*
X330600Y75000D01*
X264956Y57600D02*
X268200D01*
X270600Y60000D01*
Y64900D01*
X268000Y67500D02*
X270600Y64900D01*
X134709Y76839D02*
X135047Y76500D01*
X134709Y76839D02*
Y84083D01*
X127200Y21600D02*
Y172000D01*
X127100Y21500D02*
X127200Y21600D01*
X127100Y21500D02*
X393400D01*
X393500Y21600D01*
Y171600D01*
X393100Y172000D02*
X393500Y171600D01*
X127200Y172000D02*
X393100D01*
D28*
X313452Y134500D02*
X331500D01*
X309600Y138352D02*
X313452Y134500D01*
X242500Y157500D02*
X260000D01*
X278500Y139000D01*
X281232D01*
X296453Y123779D01*
X331500Y134500D02*
X342500D01*
X320779Y123779D02*
X331500Y134500D01*
X296453Y123779D02*
X320779D01*
X368657Y99843D02*
X386500Y82000D01*
X368657Y99843D02*
Y113244D01*
D29*
X331800Y113902D02*
X335142Y117244D01*
X331800Y110544D02*
Y113902D01*
X330500Y109244D02*
X331800Y110544D01*
D30*
X388342Y113244D02*
Y140630D01*
X350563Y119539D02*
Y149079D01*
Y119539D02*
X352858Y117244D01*
X356858Y113244D01*
X368657D01*
X374972Y154000D02*
X388342Y140630D01*
D31*
X315000Y113000D02*
X325000D01*
X326500Y111500D01*
X315000Y99000D02*
X315000Y99000D01*
D32*
X325532Y105602D02*
Y110531D01*
X327500Y105602D02*
Y110500D01*
X331437Y105602D02*
Y108307D01*
X329468Y105602D02*
Y108213D01*
X330500Y109244D01*
X331437Y108307D01*
Y105602D02*
X336142D01*
X340000Y101744D01*
X331437Y93398D02*
X334701D01*
X337500Y96197D01*
D33*
X325532Y110531D02*
X326500Y111500D01*
X327500Y110500D01*
D34*
X315000Y99000D02*
Y113000D01*
D35*
X184000Y60535D02*
D03*
X194000Y75465D02*
D03*
X184000Y50535D02*
D03*
X194000Y85465D02*
D03*
Y65465D02*
D03*
Y55465D02*
D03*
X184000Y80535D02*
D03*
Y70535D02*
D03*
X374972Y150063D02*
D03*
Y157937D02*
D03*
X359224Y134315D02*
D03*
X367098D02*
D03*
X305000Y113000D02*
D03*
X134500Y155500D02*
D03*
Y145500D02*
D03*
Y135500D02*
D03*
Y125500D02*
D03*
Y115500D02*
D03*
X210000Y166500D02*
D03*
X160000D02*
D03*
X190000D02*
D03*
X200000D02*
D03*
X180000D02*
D03*
X170000D02*
D03*
X150000D02*
D03*
X352500Y28500D02*
D03*
X342500D02*
D03*
X312500D02*
D03*
X322500D02*
D03*
X332500D02*
D03*
X362500D02*
D03*
X372500D02*
D03*
X386500Y42000D02*
D03*
Y52000D02*
D03*
Y62000D02*
D03*
Y72000D02*
D03*
Y82000D02*
D03*
X241800Y28200D02*
D03*
X221800D02*
D03*
X231800D02*
D03*
D36*
X166008Y37508D02*
D03*
Y98492D02*
D03*
D37*
X154000Y45500D02*
D03*
Y90500D02*
D03*
X315000Y113000D02*
D03*
X220000Y166500D02*
D03*
X302500Y28500D02*
D03*
X211800Y28200D02*
D03*
D38*
X134709Y94083D02*
D03*
Y84083D02*
D03*
Y41917D02*
D03*
Y51917D02*
D03*
D39*
X350563Y154000D02*
D03*
D40*
X374972D02*
D03*
D41*
X363161Y134315D02*
D03*
D42*
X350563Y158921D02*
D03*
Y149079D02*
D03*
D43*
X134500Y165500D02*
D03*
X386500Y32000D02*
D03*
D44*
X310200Y160800D02*
D03*
X298200Y60000D02*
D03*
X290400D02*
D03*
X282000Y102600D02*
D03*
X281400Y107400D02*
D03*
X323760Y99500D02*
D03*
X331240D02*
D03*
X327500Y97531D02*
D03*
Y101469D02*
D03*
X299400Y108600D02*
D03*
X294000Y108000D02*
D03*
X306000Y107400D02*
D03*
X287700Y76200D02*
D03*
X237600Y85600D02*
D03*
X251800Y133200D02*
D03*
X258500Y135000D02*
D03*
X261000Y130800D02*
D03*
X268800Y127800D02*
D03*
X273000Y127200D02*
D03*
X356500Y49000D02*
D03*
X331800Y60600D02*
D03*
X327600Y78000D02*
D03*
X357000Y69000D02*
D03*
X301500Y118000D02*
D03*
X290500Y79000D02*
D03*
X159600Y156400D02*
D03*
X242500Y157500D02*
D03*
X235500Y76500D02*
D03*
X241500Y128000D02*
D03*
X272500Y112500D02*
D03*
X247364Y79636D02*
D03*
X264000Y115000D02*
D03*
X251000Y103000D02*
D03*
X285500Y123000D02*
D03*
X267000Y135500D02*
D03*
X237500Y106500D02*
D03*
X240000Y117500D02*
D03*
X236500Y119500D02*
D03*
X235800Y110400D02*
D03*
X266500Y145000D02*
D03*
X264000Y142000D02*
D03*
X257500Y84500D02*
D03*
X236500Y94500D02*
D03*
X235000Y89000D02*
D03*
X290000Y117874D02*
D03*
X262200Y47400D02*
D03*
X282600Y129000D02*
D03*
D45*
X342500Y134500D02*
D03*
M02*
