%FSLAX25Y25*%
%MOIN*%
G70*
G01*
G75*
G04 Layer_Color=8421504*
%ADD10R,0.03150X0.03150*%
%ADD11R,0.03543X0.02756*%
%ADD12R,0.04724X0.13780*%
%ADD13R,0.04331X0.05512*%
%ADD14R,0.05512X0.04331*%
%ADD15R,0.02756X0.03543*%
%ADD16O,0.07087X0.01181*%
%ADD17O,0.01181X0.07087*%
%ADD18R,0.05512X0.26378*%
%ADD19R,0.03543X0.03150*%
%ADD20R,0.09055X0.09055*%
%ADD21R,0.09764X0.06102*%
%ADD22R,0.01181X0.02559*%
%ADD23R,0.05709X0.02362*%
%ADD24O,0.02165X0.00984*%
%ADD25R,0.03543X0.05906*%
%ADD26R,0.03150X0.03543*%
%ADD27C,0.01000*%
%ADD28C,0.02000*%
%ADD29C,0.03500*%
%ADD30C,0.05000*%
%ADD31C,0.04000*%
%ADD32C,0.01200*%
%ADD33C,0.01500*%
%ADD34C,0.03000*%
%ADD35C,0.05906*%
%ADD36C,0.08661*%
%ADD37R,0.05906X0.05906*%
%ADD38C,0.06299*%
%ADD39O,0.07874X0.17716*%
%ADD40O,0.07874X0.15748*%
%ADD41O,0.15748X0.07874*%
%ADD42C,0.05906*%
%ADD43R,0.05906X0.05906*%
%ADD44C,0.03000*%
%ADD45C,0.04000*%
%ADD46R,0.10039X0.03347*%
%ADD47R,0.22441X0.22244*%
%ADD48C,0.00984*%
%ADD49C,0.02362*%
%ADD50C,0.00394*%
%ADD51C,0.00787*%
D10*
X354000Y96248D02*
D03*
Y89752D02*
D03*
X309600Y138352D02*
D03*
Y144848D02*
D03*
X298200Y56048D02*
D03*
Y49552D02*
D03*
X291600Y56048D02*
D03*
Y49552D02*
D03*
D11*
X309600Y155953D02*
D03*
Y150047D02*
D03*
X298200Y39047D02*
D03*
Y44953D02*
D03*
X291600Y39047D02*
D03*
Y44953D02*
D03*
X296453Y117874D02*
D03*
Y123779D02*
D03*
X265500Y64374D02*
D03*
Y70280D02*
D03*
X259500Y70280D02*
D03*
Y64374D02*
D03*
X200500Y81453D02*
D03*
Y75547D02*
D03*
X175500Y66453D02*
D03*
Y60547D02*
D03*
X184000Y38047D02*
D03*
Y43953D02*
D03*
X191000Y38047D02*
D03*
Y43953D02*
D03*
X337500Y90291D02*
D03*
Y96197D02*
D03*
X357000Y39047D02*
D03*
Y44953D02*
D03*
X331500Y49047D02*
D03*
Y54953D02*
D03*
X357000Y59047D02*
D03*
Y64953D02*
D03*
X331500Y69047D02*
D03*
Y74953D02*
D03*
D12*
X228500Y110827D02*
D03*
Y89173D02*
D03*
D13*
X228547Y130500D02*
D03*
X234453D02*
D03*
X228547Y70000D02*
D03*
X234453D02*
D03*
X184047Y32000D02*
D03*
X189953D02*
D03*
X298047Y102327D02*
D03*
X303953D02*
D03*
D14*
X175500Y73547D02*
D03*
Y79453D02*
D03*
D15*
X135047Y59000D02*
D03*
X140953D02*
D03*
X135047Y76500D02*
D03*
X140953D02*
D03*
X325547Y86744D02*
D03*
X331453D02*
D03*
D16*
X288803Y92335D02*
D03*
Y88398D02*
D03*
Y90366D02*
D03*
Y94303D02*
D03*
Y84461D02*
D03*
Y86429D02*
D03*
Y96272D02*
D03*
Y98240D02*
D03*
Y100209D02*
D03*
Y102177D02*
D03*
Y104146D02*
D03*
Y106114D02*
D03*
Y108083D02*
D03*
Y110051D02*
D03*
Y112020D02*
D03*
Y113988D02*
D03*
X245102D02*
D03*
Y112020D02*
D03*
Y110051D02*
D03*
Y108083D02*
D03*
Y106114D02*
D03*
Y104146D02*
D03*
Y102177D02*
D03*
Y100209D02*
D03*
Y98240D02*
D03*
Y96272D02*
D03*
Y94303D02*
D03*
Y92335D02*
D03*
Y90366D02*
D03*
Y88398D02*
D03*
Y86429D02*
D03*
Y84461D02*
D03*
D17*
X281716Y121075D02*
D03*
X279748D02*
D03*
X277780D02*
D03*
X275811D02*
D03*
X273843D02*
D03*
X271874D02*
D03*
X269905D02*
D03*
X267937D02*
D03*
X265968D02*
D03*
X264000D02*
D03*
X262032D02*
D03*
X260063D02*
D03*
X258095D02*
D03*
X256126D02*
D03*
X254157D02*
D03*
X252189D02*
D03*
Y77374D02*
D03*
X258095D02*
D03*
X260063D02*
D03*
X262032D02*
D03*
X264000D02*
D03*
X265968D02*
D03*
X267937D02*
D03*
X269905D02*
D03*
X271874D02*
D03*
X273843D02*
D03*
X275811D02*
D03*
X277780D02*
D03*
X279748D02*
D03*
X281716D02*
D03*
X254157D02*
D03*
X256126D02*
D03*
D18*
X388342Y113244D02*
D03*
X368657D02*
D03*
D19*
X343000Y93488D02*
D03*
Y99000D02*
D03*
X315000Y93488D02*
D03*
Y99000D02*
D03*
D20*
X335142Y117244D02*
D03*
X352858D02*
D03*
D21*
X327500Y99500D02*
D03*
D22*
X331437Y93398D02*
D03*
X329468D02*
D03*
X327500D02*
D03*
X325532D02*
D03*
X323563D02*
D03*
Y105602D02*
D03*
X325532D02*
D03*
X327500D02*
D03*
X329468D02*
D03*
X331437D02*
D03*
D23*
X364874Y45740D02*
D03*
Y38260D02*
D03*
X374126Y42000D02*
D03*
X339874Y55740D02*
D03*
Y48260D02*
D03*
X349126Y52000D02*
D03*
X364874Y65740D02*
D03*
Y58260D02*
D03*
X374126Y62000D02*
D03*
X339874Y75740D02*
D03*
Y68260D02*
D03*
X349126Y72000D02*
D03*
D24*
X258361Y50353D02*
D03*
Y48384D02*
D03*
Y46416D02*
D03*
Y44447D02*
D03*
X266039D02*
D03*
Y46416D02*
D03*
Y48384D02*
D03*
Y50353D02*
D03*
D25*
X262200Y47400D02*
D03*
D26*
X264956Y57600D02*
D03*
X259444D02*
D03*
D27*
X127200Y21600D02*
Y172000D01*
X127100Y21500D02*
X127200Y21600D01*
X127100Y21500D02*
X393400D01*
X393500Y21600D01*
Y171600D01*
X393100Y172000D02*
X393500Y171600D01*
X127200Y172000D02*
X393100D01*
M02*
