M48
;Layer_Color=9474304
;FILE_FORMAT=2:5
INCH,LZ
;TYPE=PLATED
T1F00S00C0.01300
T2F00S00C0.02000
T3F00S00C0.03543
T4F00S00C0.03937
T5F00S00C0.04331
;TYPE=NON_PLATED
T6F00S00C0.06496
T7F00S00C0.13780
%
T01
X02622Y00474
X02904Y006
X02982
X02877Y00762
X02905Y0079
X0282Y01026
X02814Y01074
X0294Y0108
X02994Y01086
X0306Y01074
X03015Y0118
X029Y0117874
X02855Y0123
X02826Y0129
X0273Y01272
X02688Y01278
X0267Y01355
X02585Y0135
X0261Y01308
X02518Y01332
X02415Y0128
X024Y01175
X02365Y01195
X02358Y01104
X02375Y01065
X02365Y00945
X0235Y0089
X02376Y00856
X02355Y00765
X0247364Y0079636
X02575Y00845
X0251Y0103
X0264Y0115
X02725Y01125
X0264Y0142
X02665Y0145
X032376Y00995
X03275Y0097531
Y0101469
X033124Y00995
X03276Y0078
X03318Y00606
X0357Y0069
X03565Y0049
X03102Y01608
X02425Y01575
X01596Y01564
T02
X03425Y01345
T03
X01345Y01155
Y01255
Y01355
Y01455
Y01555
X0184Y0080535
Y0070535
Y0060535
Y0050535
X0194Y0055465
Y0065465
Y0075465
Y0085465
X02118Y00282
X02218
X02318
X02418
X03025Y00285
X0305Y0113
X0315
X03125Y00285
X03225
X03325
X03425
X03525
X03625
X03725
X03865Y0032
Y0042
Y0052
Y0062
Y0072
Y0082
X022Y01665
X021
X02
X019
X018
X017
X016
X015
X01345Y01655
T04
X0359224Y0134315
X0367098
X0374972Y0150063
X0350563Y0149079
Y0158921
X0374972Y0157937
T05
X0134709Y0041917
Y0051917
Y0084083
Y0094083
T06
X0166008Y0037508
Y0098492
T07
X0154Y00455
Y00905
M30
